<svg width="337" height="693" viewBox="0 0 337 693" fill="none" xmlns="http://www.w3.org/2000/svg">
<g filter="url(#filter0_iiii_205_263)">
<path d="M78.7996 1.2002H329.2C332.514 1.2002 335.2 3.8865 335.2 7.20021V656.828C335.2 658.352 334.62 659.819 333.577 660.931L306.978 689.304C305.844 690.514 304.259 691.2 302.601 691.2H33.7996C32.1411 691.2 30.5566 690.514 29.4224 689.304L2.82297 660.931C1.7804 659.819 1.2002 658.352 1.2002 656.828V360.573C1.2002 359.049 1.7804 357.581 2.82297 356.469L44.5774 311.931C45.62 310.819 46.2002 309.352 46.2002 307.828V35.5729C46.2002 34.0485 46.7804 32.5813 47.823 31.4692L74.4224 3.09655C75.5566 1.88664 77.1411 1.2002 78.7996 1.2002Z" fill="url(#paint0_linear_205_263)"/>
<path d="M32.2002 297.824V64.3506C32.2002 58.9143 25.5492 56.2803 21.8271 60.2425L2.82712 80.4683C1.78198 81.5809 1.2002 83.0499 1.2002 84.5764V318.05C1.2002 323.486 7.8512 326.12 11.5733 322.158L30.5733 301.932C31.6184 300.82 32.2002 299.35 32.2002 297.824Z" fill="url(#paint1_linear_205_263)"/>
</g>
<path d="M78.7996 1.2002H329.2C332.514 1.2002 335.2 3.8865 335.2 7.20021V656.828C335.2 658.352 334.62 659.819 333.577 660.931L306.978 689.304C305.844 690.514 304.259 691.2 302.601 691.2H33.7996C32.1411 691.2 30.5566 690.514 29.4224 689.304L2.82297 660.931C1.7804 659.819 1.2002 658.352 1.2002 656.828V360.573C1.2002 359.049 1.7804 357.581 2.82297 356.469L44.5774 311.931C45.62 310.819 46.2002 309.352 46.2002 307.828V35.5729C46.2002 34.0485 46.7804 32.5813 47.823 31.4692L74.4224 3.09655C75.5566 1.88664 77.1411 1.2002 78.7996 1.2002Z" stroke="#EBC485" stroke-width="2.4"/>
<path d="M32.2002 297.824V64.3506C32.2002 58.9143 25.5492 56.2803 21.8271 60.2425L2.82712 80.4683C1.78198 81.5809 1.2002 83.0499 1.2002 84.5764V318.05C1.2002 323.486 7.8512 326.12 11.5733 322.158L30.5733 301.932C31.6184 300.82 32.2002 299.35 32.2002 297.824Z" stroke="#EBC485" stroke-width="2.4"/>
<defs>
<filter id="filter0_iiii_205_263" x="-4" y="-4" width="344.4" height="700.4" filterUnits="userSpaceOnUse" color-interpolation-filters="sRGB">
<feFlood flood-opacity="0" result="BackgroundImageFix"/>
<feBlend mode="normal" in="SourceGraphic" in2="BackgroundImageFix" result="shape"/>
<feColorMatrix in="SourceAlpha" type="matrix" values="0 0 0 0 0 0 0 0 0 0 0 0 0 0 0 0 0 0 127 0" result="hardAlpha"/>
<feOffset dy="4"/>
<feGaussianBlur stdDeviation="2.4"/>
<feComposite in2="hardAlpha" operator="arithmetic" k2="-1" k3="1"/>
<feColorMatrix type="matrix" values="0 0 0 0 0.562731 0 0 0 0 0.148807 0 0 0 0 0.217795 0 0 0 1 0"/>
<feBlend mode="normal" in2="shape" result="effect1_innerShadow_205_263"/>
<feColorMatrix in="SourceAlpha" type="matrix" values="0 0 0 0 0 0 0 0 0 0 0 0 0 0 0 0 0 0 127 0" result="hardAlpha"/>
<feOffset dy="-4"/>
<feGaussianBlur stdDeviation="2.4"/>
<feComposite in2="hardAlpha" operator="arithmetic" k2="-1" k3="1"/>
<feColorMatrix type="matrix" values="0 0 0 0 0.562731 0 0 0 0 0.148807 0 0 0 0 0.217795 0 0 0 1 0"/>
<feBlend mode="normal" in2="effect1_innerShadow_205_263" result="effect2_innerShadow_205_263"/>
<feColorMatrix in="SourceAlpha" type="matrix" values="0 0 0 0 0 0 0 0 0 0 0 0 0 0 0 0 0 0 127 0" result="hardAlpha"/>
<feOffset dx="-4"/>
<feGaussianBlur stdDeviation="2.4"/>
<feComposite in2="hardAlpha" operator="arithmetic" k2="-1" k3="1"/>
<feColorMatrix type="matrix" values="0 0 0 0 0.562731 0 0 0 0 0.148807 0 0 0 0 0.217795 0 0 0 1 0"/>
<feBlend mode="normal" in2="effect2_innerShadow_205_263" result="effect3_innerShadow_205_263"/>
<feColorMatrix in="SourceAlpha" type="matrix" values="0 0 0 0 0 0 0 0 0 0 0 0 0 0 0 0 0 0 127 0" result="hardAlpha"/>
<feOffset dx="4"/>
<feGaussianBlur stdDeviation="2.4"/>
<feComposite in2="hardAlpha" operator="arithmetic" k2="-1" k3="1"/>
<feColorMatrix type="matrix" values="0 0 0 0 0.562731 0 0 0 0 0.148807 0 0 0 0 0.217795 0 0 0 1 0"/>
<feBlend mode="normal" in2="effect3_innerShadow_205_263" result="effect4_innerShadow_205_263"/>
</filter>
<linearGradient id="paint0_linear_205_263" x1="1.20019" y1="1948.11" x2="1048.85" y2="876.726" gradientUnits="userSpaceOnUse">
<stop stop-color="#F5AA89"/>
<stop offset="1" stop-color="#FAD9C4"/>
</linearGradient>
<linearGradient id="paint1_linear_205_263" x1="1.20019" y1="1948.11" x2="1048.85" y2="876.726" gradientUnits="userSpaceOnUse">
<stop stop-color="#F5AA89"/>
<stop offset="1" stop-color="#FAD9C4"/>
</linearGradient>
</defs>
</svg>
