<svg width="337" height="693" viewBox="0 0 337 693" fill="none" xmlns="http://www.w3.org/2000/svg">
<g filter="url(#filter0_iiii_184_44)">
<path d="M257.601 1.2002H7.2002C3.88649 1.2002 1.2002 3.8865 1.2002 7.20021V656.828C1.2002 658.352 1.7804 659.819 2.82297 660.931L29.4224 689.304C30.5566 690.514 32.1411 691.2 33.7996 691.2H302.601C304.259 691.2 305.844 690.514 306.978 689.304L333.577 660.931C334.62 659.819 335.2 658.352 335.2 656.828V360.573C335.2 359.049 334.62 357.581 333.577 356.469L291.823 311.931C290.78 310.819 290.2 309.352 290.2 307.828V35.5729C290.2 34.0485 289.62 32.5813 288.577 31.4692L261.978 3.09655C260.844 1.88664 259.259 1.2002 257.601 1.2002Z" fill="url(#paint0_linear_184_44)"/>
<path d="M304.2 297.824V64.3506C304.2 58.9143 310.851 56.2803 314.573 60.2425L333.573 80.4683C334.618 81.5809 335.2 83.0499 335.2 84.5764V318.05C335.2 323.486 328.549 326.12 324.827 322.158L305.827 301.932C304.782 300.82 304.2 299.35 304.2 297.824Z" fill="url(#paint1_linear_184_44)"/>
</g>
<path d="M257.601 1.2002H7.2002C3.88649 1.2002 1.2002 3.8865 1.2002 7.20021V656.828C1.2002 658.352 1.7804 659.819 2.82297 660.931L29.4224 689.304C30.5566 690.514 32.1411 691.2 33.7996 691.2H302.601C304.259 691.2 305.844 690.514 306.978 689.304L333.577 660.931C334.62 659.819 335.2 658.352 335.2 656.828V360.573C335.2 359.049 334.62 357.581 333.577 356.469L291.823 311.931C290.78 310.819 290.2 309.352 290.2 307.828V35.5729C290.2 34.0485 289.62 32.5813 288.577 31.4692L261.978 3.09655C260.844 1.88664 259.259 1.2002 257.601 1.2002Z" stroke="#EBC485" stroke-width="2.4"/>
<path d="M304.2 297.824V64.3506C304.2 58.9143 310.851 56.2803 314.573 60.2425L333.573 80.4683C334.618 81.5809 335.2 83.0499 335.2 84.5764V318.05C335.2 323.486 328.549 326.12 324.827 322.158L305.827 301.932C304.782 300.82 304.2 299.35 304.2 297.824Z" stroke="#EBC485" stroke-width="2.4"/>
<defs>
<filter id="filter0_iiii_184_44" x="-4" y="-4" width="344.4" height="700.4" filterUnits="userSpaceOnUse" color-interpolation-filters="sRGB">
<feFlood flood-opacity="0" result="BackgroundImageFix"/>
<feBlend mode="normal" in="SourceGraphic" in2="BackgroundImageFix" result="shape"/>
<feColorMatrix in="SourceAlpha" type="matrix" values="0 0 0 0 0 0 0 0 0 0 0 0 0 0 0 0 0 0 127 0" result="hardAlpha"/>
<feOffset dy="4"/>
<feGaussianBlur stdDeviation="2.4"/>
<feComposite in2="hardAlpha" operator="arithmetic" k2="-1" k3="1"/>
<feColorMatrix type="matrix" values="0 0 0 0 0.562731 0 0 0 0 0.148807 0 0 0 0 0.217795 0 0 0 1 0"/>
<feBlend mode="normal" in2="shape" result="effect1_innerShadow_184_44"/>
<feColorMatrix in="SourceAlpha" type="matrix" values="0 0 0 0 0 0 0 0 0 0 0 0 0 0 0 0 0 0 127 0" result="hardAlpha"/>
<feOffset dy="-4"/>
<feGaussianBlur stdDeviation="2.4"/>
<feComposite in2="hardAlpha" operator="arithmetic" k2="-1" k3="1"/>
<feColorMatrix type="matrix" values="0 0 0 0 0.562731 0 0 0 0 0.148807 0 0 0 0 0.217795 0 0 0 1 0"/>
<feBlend mode="normal" in2="effect1_innerShadow_184_44" result="effect2_innerShadow_184_44"/>
<feColorMatrix in="SourceAlpha" type="matrix" values="0 0 0 0 0 0 0 0 0 0 0 0 0 0 0 0 0 0 127 0" result="hardAlpha"/>
<feOffset dx="-4"/>
<feGaussianBlur stdDeviation="2.4"/>
<feComposite in2="hardAlpha" operator="arithmetic" k2="-1" k3="1"/>
<feColorMatrix type="matrix" values="0 0 0 0 0.562731 0 0 0 0 0.148807 0 0 0 0 0.217795 0 0 0 1 0"/>
<feBlend mode="normal" in2="effect2_innerShadow_184_44" result="effect3_innerShadow_184_44"/>
<feColorMatrix in="SourceAlpha" type="matrix" values="0 0 0 0 0 0 0 0 0 0 0 0 0 0 0 0 0 0 127 0" result="hardAlpha"/>
<feOffset dx="4"/>
<feGaussianBlur stdDeviation="2.4"/>
<feComposite in2="hardAlpha" operator="arithmetic" k2="-1" k3="1"/>
<feColorMatrix type="matrix" values="0 0 0 0 0.562731 0 0 0 0 0.148807 0 0 0 0 0.217795 0 0 0 1 0"/>
<feBlend mode="normal" in2="effect3_innerShadow_184_44" result="effect4_innerShadow_184_44"/>
</filter>
<linearGradient id="paint0_linear_184_44" x1="335.2" y1="1948.11" x2="-712.449" y2="876.726" gradientUnits="userSpaceOnUse">
<stop stop-color="#F5AA89"/>
<stop offset="1" stop-color="#FAD9C4"/>
</linearGradient>
<linearGradient id="paint1_linear_184_44" x1="335.2" y1="1948.11" x2="-712.449" y2="876.726" gradientUnits="userSpaceOnUse">
<stop stop-color="#F5AA89"/>
<stop offset="1" stop-color="#FAD9C4"/>
</linearGradient>
</defs>
</svg>
