<svg width="225" height="212" viewBox="0 0 225 212" fill="none" xmlns="http://www.w3.org/2000/svg">
<path fill-rule="evenodd" clip-rule="evenodd" d="M146.51 154.617C147.408 150.439 151.522 147.779 155.701 148.676C159.879 149.573 162.539 153.688 161.642 157.866C160.745 162.044 156.63 164.704 152.452 163.807C148.273 162.91 145.613 158.796 146.51 154.617Z" fill="white" fill-opacity="0.458824"/>
<path fill-rule="evenodd" clip-rule="evenodd" d="M61.5422 31.3028C62.8446 25.2375 68.8173 21.3762 74.8827 22.6785C80.9482 23.9809 84.8093 29.9537 83.5069 36.0189C82.2046 42.0844 76.2319 45.9456 70.1664 44.6433C64.1011 43.3409 60.2399 37.3681 61.5422 31.3028Z" fill="white" fill-opacity="0.458824"/>
<path fill-rule="evenodd" clip-rule="evenodd" d="M48.8233 154.203L44.4678 159.034L50.5498 156.699L55.3275 161.821L53.3743 155.201L56.8832 149.925L51.0333 152.422L46.5124 147.991L48.8233 154.203Z" fill="white"/>
<path fill-rule="evenodd" clip-rule="evenodd" d="M5.72232 123.336L1.48022 124.725L5.97612 125.426L7.25662 130.142L8.19802 125.504L12.0632 123.557L7.65772 123.032L6.31172 118.818L5.72232 123.336Z" fill="white"/>
<path fill-rule="evenodd" clip-rule="evenodd" d="M122.207 203.397L117.965 204.786L122.461 205.488L123.742 210.204L124.683 205.566L128.548 203.618L124.143 203.094L122.797 198.88L122.207 203.397Z" fill="white"/>
<path fill-rule="evenodd" clip-rule="evenodd" d="M159.375 6.37429L155.133 7.76349L159.629 8.46499L160.909 13.181L161.851 8.54279L165.716 6.59549L161.31 6.07109L159.964 1.85699L159.375 6.37429Z" fill="white"/>
<path fill-rule="evenodd" clip-rule="evenodd" d="M68.5227 31.56L58.9 36.9906L69.929 36.5494L74.7957 47.4647L75.277 35.674L83.7843 29.0598L73.0391 29.8905L68.2076 20.234L68.5227 31.56Z" fill="white"/>
<path fill-rule="evenodd" clip-rule="evenodd" d="M211.734 42.9239L204.379 47.0403L212.816 46.7175L216.551 55.0184L216.906 46.0582L223.407 41.0411L215.188 41.6602L211.48 34.3158L211.734 42.9239Z" fill="white"/>
<path fill-rule="evenodd" clip-rule="evenodd" d="M151.085 154.413L143.417 156.92L151.545 158.189L153.862 166.706L155.562 158.33L162.548 154.815L154.584 153.867L152.149 146.256L151.085 154.413Z" fill="white"/>
</svg>
