<svg width="214" height="203" viewBox="0 0 214 203" fill="none" xmlns="http://www.w3.org/2000/svg">
<path fill-rule="evenodd" clip-rule="evenodd" d="M60.6643 150.397C64.5727 150.397 67.7411 153.566 67.7411 157.474C67.7411 161.383 64.5727 164.551 60.6643 164.551C56.7558 164.551 53.5874 161.383 53.5874 157.474C53.5874 153.566 56.7558 150.397 60.6643 150.397Z" fill="white" fill-opacity="0.458824"/>
<path fill-rule="evenodd" clip-rule="evenodd" d="M163.393 41.7334C169.067 41.7334 173.666 46.3327 173.666 52.0063C173.666 57.6798 169.067 62.279 163.393 62.279C157.719 62.279 153.12 57.6798 153.12 52.0063C153.12 46.3327 157.719 41.7334 163.393 41.7334Z" fill="white" fill-opacity="0.458824"/>
<path fill-rule="evenodd" clip-rule="evenodd" d="M40.5615 54.1389L34.9234 50.8947L38.4832 56.351L34.4785 62.0975L40.5414 58.798L46.4358 61.1212L42.7664 55.926L46.1501 50.5754L40.5615 54.1389Z" fill="white"/>
<path fill-rule="evenodd" clip-rule="evenodd" d="M61.6923 5.5185L59.4435 1.6626L59.7015 6.2055L55.3594 8.4475L60.0918 8.3943L62.8071 11.7645L62.3951 7.3472L66.2327 5.1465L61.6923 5.5185Z" fill="white"/>
<path fill-rule="evenodd" clip-rule="evenodd" d="M7.86938 136.215L5.62058 132.359L5.87858 136.902L1.53638 139.144L6.26888 139.091L8.98428 142.461L8.57208 138.044L12.4098 135.843L7.86938 136.215Z" fill="white"/>
<path fill-rule="evenodd" clip-rule="evenodd" d="M208.304 131.193L206.055 127.337L206.313 131.88L201.971 134.122L206.704 134.069L209.419 137.439L209.007 133.022L212.844 130.821L208.304 131.193Z" fill="white"/>
<path fill-rule="evenodd" clip-rule="evenodd" d="M164.607 47.6526L157.277 39.3843L160.024 50.075L150.374 57.1247L162.002 55.1201L170.255 62.0491L167.187 51.7179L175.614 44.9668L164.607 47.6526Z" fill="white"/>
<path fill-rule="evenodd" clip-rule="evenodd" d="M183.561 190.058L177.992 183.731L180.079 191.912L172.747 197.307L181.582 195.773L187.852 201.075L185.522 193.169L191.924 188.003L183.561 190.058Z" fill="white"/>
<path fill-rule="evenodd" clip-rule="evenodd" d="M61.824 154.166L57.7632 147.195L58.2289 155.408L50.3879 159.462L58.9338 159.366L63.8371 165.458L63.0929 157.472L70.0228 153.493L61.824 154.166Z" fill="white"/>
</svg>
