<svg width="103" height="37" viewBox="0 0 103 37" fill="none" xmlns="http://www.w3.org/2000/svg">
<path d="M6.13098 1L1.64209 5.8V29.8H3.88653V31H6.13098V32.2H5.00876V34.6H8.37542V35.8H3.88653V37H97.031L102.642 32.2V8.2H100.398V7H98.1532V5.8H99.2754V3.4H95.9088V2.2H100.398V1H6.13098Z" fill="#46DBE0"/>
<path d="M4.48889 0L0 4.8V28.8H2.24444V30H4.48889V31.2H3.36667V33.6H6.73333V34.8H2.24444V36H95.3889L101 31.2V7.2H98.7556V6H96.5111V4.8H97.6333V2.4H94.2667V1.2H98.7556V0H4.48889Z" fill="url(#paint0_linear_181_63)"/>
<path d="M32.1609 14.0588H32.6903V14.5882H32.1609V14.0588ZM31.6315 14.0588H32.1609V14.5882H31.6315V14.0588ZM31.1021 14.0588H31.6315V14.5882H31.1021V14.0588ZM30.5727 14.0588H31.1021V14.5882H30.5727V14.0588ZM30.0433 14.5882H30.5727V15.1176H30.0433V14.5882ZM30.0433 15.1176H30.5727V15.6471H30.0433V15.1176ZM30.5727 15.1176H31.1021V15.6471H30.5727V15.1176ZM31.1021 15.1176H31.6315V15.6471H31.1021V15.1176ZM31.1021 14.5882H31.6315V15.1176H31.1021V14.5882ZM30.5727 14.5882H31.1021V15.1176H30.5727V14.5882ZM29.5138 14.5882H30.0433V15.1176H29.5138V14.5882ZM29.5138 14.0588H30.0433V14.5882H29.5138V14.0588ZM28.9844 14.0588H29.5138V14.5882H28.9844V14.0588ZM28.455 14.0588H28.9844V14.5882H28.455V14.0588ZM27.9256 14.0588H28.455V14.5882H27.9256V14.0588ZM27.3962 14.0588H27.9256V14.5882H27.3962V14.0588ZM27.3962 14.5882H27.9256V15.1176H27.3962V14.5882ZM27.3962 15.1176H27.9256V15.6471H27.3962V15.1176ZM27.9256 15.1176H28.455V15.6471H27.9256V15.1176ZM28.455 15.1176H28.9844V15.6471H28.455V15.1176ZM28.9844 15.1176H29.5138V15.6471H28.9844V15.1176ZM29.5138 15.1176H30.0433V15.6471H29.5138V15.1176ZM31.6315 14.5882H32.1609V15.1176H31.6315V14.5882ZM32.1609 14.5882H32.6903V15.1176H32.1609V14.5882ZM32.1609 15.1176H32.6903V15.6471H32.1609V15.1176ZM31.6315 15.1176H32.1609V15.6471H31.6315V15.1176ZM28.9844 14.5882H29.5138V15.1176H28.9844V14.5882ZM28.455 14.5882H28.9844V15.1176H28.455V14.5882ZM27.9256 14.5882H28.455V15.1176H27.9256V14.5882ZM26.8668 14.5882H27.3962V15.1176H26.8668V14.5882ZM26.8668 15.1176H27.3962V15.6471H26.8668V15.1176ZM26.3374 15.1176H26.8668V15.6471H26.3374V15.1176ZM26.3374 14.5882H26.8668V15.1176H26.3374V14.5882ZM27.9256 15.6471H28.455V16.1765H27.9256V15.6471ZM27.3962 15.6471H27.9256V16.1765H27.3962V15.6471ZM26.8668 15.6471H27.3962V16.1765H26.8668V15.6471ZM26.3374 15.6471H26.8668V16.1765H26.3374V15.6471ZM25.808 15.6471H26.3374V16.1765H25.808V15.6471ZM25.808 16.1765H26.3374V16.7059H25.808V16.1765ZM25.808 16.7059H26.3374V17.2353H25.808V16.7059ZM25.808 17.2353H26.3374V17.7647H25.808V17.2353ZM26.3374 17.2353H26.8668V17.7647H26.3374V17.2353ZM26.3374 17.7647H26.8668V18.2941H26.3374V17.7647ZM26.8668 17.7647H27.3962V18.2941H26.8668V17.7647ZM26.8668 17.2353H27.3962V17.7647H26.8668V17.2353ZM27.3962 17.2353H27.9256V17.7647H27.3962V17.2353ZM27.3962 16.7059H27.9256V17.2353H27.3962V16.7059ZM27.3962 16.1765H27.9256V16.7059H27.3962V16.1765ZM26.8668 16.1765H27.3962V16.7059H26.8668V16.1765ZM26.3374 16.1765H26.8668V16.7059H26.3374V16.1765ZM26.3374 16.7059H26.8668V17.2353H26.3374V16.7059ZM26.8668 16.7059H27.3962V17.2353H26.8668V16.7059ZM30.5727 15.6471H31.1021V16.1765H30.5727V15.6471ZM31.1021 15.6471H31.6315V16.1765H31.1021V15.6471ZM31.6315 15.6471H32.1609V16.1765H31.6315V15.6471ZM31.6315 16.1765H32.1609V16.7059H31.6315V16.1765ZM32.1609 16.1765H32.6903V16.7059H32.1609V16.1765ZM32.1609 15.6471H32.6903V16.1765H32.1609V15.6471ZM32.1609 16.7059H32.6903V17.2353H32.1609V16.7059ZM31.6315 16.7059H32.1609V17.2353H31.6315V16.7059ZM31.1021 16.7059H31.6315V17.2353H31.1021V16.7059ZM31.1021 16.1765H31.6315V16.7059H31.1021V16.1765ZM30.5727 16.1765H31.1021V16.7059H30.5727V16.1765ZM30.5727 16.7059H31.1021V17.2353H30.5727V16.7059ZM30.5727 17.2353H31.1021V17.7647H30.5727V17.2353ZM31.1021 17.2353H31.6315V17.7647H31.1021V17.2353ZM31.6315 17.2353H32.1609V17.7647H31.6315V17.2353ZM32.1609 17.2353H32.6903V17.7647H32.1609V17.2353ZM31.6315 17.7647H32.1609V18.2941H31.6315V17.7647ZM31.1021 17.7647H31.6315V18.2941H31.1021V17.7647ZM30.5727 17.7647H31.1021V18.2941H30.5727V17.7647ZM30.5727 18.2941H31.1021V18.8235H30.5727V18.2941ZM31.1021 18.2941H31.6315V18.8235H31.1021V18.2941ZM31.6315 18.2941H32.1609V18.8235H31.6315V18.2941ZM32.1609 17.7647H32.6903V18.2941H32.1609V17.7647ZM32.1609 18.2941H32.6903V18.8235H32.1609V18.2941ZM32.1609 18.8235H32.6903V19.3529H32.1609V18.8235ZM32.1609 19.3529H32.6903V19.8824H32.1609V19.3529ZM32.1609 19.8824H32.6903V20.4118H32.1609V19.8824ZM32.1609 20.4118H32.6903V20.9412H32.1609V20.4118ZM31.6315 20.4118H32.1609V20.9412H31.6315V20.4118ZM31.6315 20.9412H32.1609V21.4706H31.6315V20.9412ZM31.1021 20.9412H31.6315V21.4706H31.1021V20.9412ZM30.5727 20.4118H31.1021V20.9412H30.5727V20.4118ZM30.5727 19.8824H31.1021V20.4118H30.5727V19.8824ZM30.5727 19.3529H31.1021V19.8824H30.5727V19.3529ZM30.5727 18.8235H31.1021V19.3529H30.5727V18.8235ZM31.1021 18.8235H31.6315V19.3529H31.1021V18.8235ZM31.6315 18.8235H32.1609V19.3529H31.6315V18.8235ZM31.6315 19.3529H32.1609V19.8824H31.6315V19.3529ZM31.6315 19.8824H32.1609V20.4118H31.6315V19.8824ZM31.1021 20.4118H31.6315V20.9412H31.1021V20.4118ZM31.1021 19.8824H31.6315V20.4118H31.1021V19.8824ZM31.1021 19.3529H31.6315V19.8824H31.1021V19.3529ZM30.0433 19.8824H30.5727V20.4118H30.0433V19.8824ZM30.0433 20.4118H30.5727V20.9412H30.0433V20.4118ZM29.5138 20.4118H30.0433V20.9412H29.5138V20.4118ZM29.5138 20.9412H30.0433V21.4706H29.5138V20.9412ZM28.9844 20.9412H29.5138V21.4706H28.9844V20.9412ZM28.455 20.9412H28.9844V21.4706H28.455V20.9412ZM27.9256 20.9412H28.455V21.4706H27.9256V20.9412ZM27.3962 20.9412H27.9256V21.4706H27.3962V20.9412ZM27.3962 20.4118H27.9256V20.9412H27.3962V20.4118ZM27.9256 20.4118H28.455V20.9412H27.9256V20.4118ZM28.455 19.8824H28.9844V20.4118H28.455V19.8824ZM28.9844 19.8824H29.5138V20.4118H28.9844V19.8824ZM29.5138 19.8824H30.0433V20.4118H29.5138V19.8824ZM28.455 20.4118H28.9844V20.9412H28.455V20.4118ZM28.9844 20.4118H29.5138V20.9412H28.9844V20.4118ZM30.5727 20.9412H31.1021V21.4706H30.5727V20.9412ZM27.3962 19.8824H27.9256V20.4118H27.3962V19.8824ZM27.3962 19.3529H27.9256V19.8824H27.3962V19.3529ZM27.9256 19.3529H28.455V19.8824H27.9256V19.3529ZM27.9256 19.8824H28.455V20.4118H27.9256V19.8824ZM26.8668 19.8824H27.3962V20.4118H26.8668V19.8824ZM26.8668 20.4118H27.3962V20.9412H26.8668V20.4118ZM26.3374 20.4118H26.8668V20.9412H26.3374V20.4118ZM26.3374 19.8824H26.8668V20.4118H26.3374V19.8824ZM26.3374 19.3529H26.8668V19.8824H26.3374V19.3529ZM26.3374 18.8235H26.8668V19.3529H26.3374V18.8235ZM25.808 18.8235H26.3374V19.3529H25.808V18.8235ZM25.808 19.3529H26.3374V19.8824H25.808V19.3529ZM25.808 18.2941H26.3374V18.8235H25.808V18.2941ZM25.808 17.7647H26.3374V18.2941H25.808V17.7647ZM27.3962 17.7647H27.9256V18.2941H27.3962V17.7647ZM27.3962 18.2941H27.9256V18.8235H27.3962V18.2941ZM27.3962 18.8235H27.9256V19.3529H27.3962V18.8235ZM26.8668 19.3529H27.3962V19.8824H26.8668V19.3529ZM26.8668 18.8235H27.3962V19.3529H26.8668V18.8235ZM26.8668 18.2941H27.3962V18.8235H26.8668V18.2941ZM26.3374 18.2941H26.8668V18.8235H26.3374V18.2941ZM32.1609 20.9412H32.6903V21.4706H32.1609V20.9412ZM32.1609 21.4706H32.6903V22H32.1609V21.4706ZM32.1609 22H32.6903V22.5294H32.1609V22ZM32.1609 22.5294H32.6903V23.0588H32.1609V22.5294ZM31.6315 22.5294H32.1609V23.0588H31.6315V22.5294ZM31.1021 22.5294H31.6315V23.0588H31.1021V22.5294ZM31.1021 22H31.6315V22.5294H31.1021V22ZM31.1021 21.4706H31.6315V22H31.1021V21.4706ZM31.6315 21.4706H32.1609V22H31.6315V21.4706ZM31.6315 22H32.1609V22.5294H31.6315V22ZM30.5727 21.4706H31.1021V22H30.5727V21.4706ZM30.5727 22H31.1021V22.5294H30.5727V22ZM30.5727 22.5294H31.1021V23.0588H30.5727V22.5294ZM30.5727 23.0588H31.1021V23.5882H30.5727V23.0588ZM30.0433 22.5294H30.5727V23.0588H30.0433V22.5294ZM30.0433 23.0588H30.5727V23.5882H30.0433V23.0588ZM31.1021 23.0588H31.6315V23.5882H31.1021V23.0588ZM31.6315 23.0588H32.1609V23.5882H31.6315V23.0588ZM31.6315 23.5882H32.1609V24.1176H31.6315V23.5882ZM31.1021 23.5882H31.6315V24.1176H31.1021V23.5882ZM30.5727 23.5882H31.1021V24.1176H30.5727V23.5882ZM25.808 22H26.3374V22.5294H25.808V22ZM26.3374 22H26.8668V22.5294H26.3374V22ZM26.8668 22H27.3962V22.5294H26.8668V22ZM27.3962 22H27.9256V22.5294H27.3962V22ZM27.3962 22.5294H27.9256V23.0588H27.3962V22.5294ZM26.8668 22.5294H27.3962V23.0588H26.8668V22.5294ZM26.3374 22.5294H26.8668V23.0588H26.3374V22.5294ZM25.808 22.5294H26.3374V23.0588H25.808V22.5294ZM27.3962 23.0588H27.9256V23.5882H27.3962V23.0588ZM27.9256 23.0588H28.455V23.5882H27.9256V23.0588ZM26.8668 23.0588H27.3962V23.5882H26.8668V23.0588ZM27.9256 22.5294H28.455V23.0588H27.9256V22.5294ZM26.3374 23.0588H26.8668V23.5882H26.3374V23.0588ZM26.3374 23.5882H26.8668V24.1176H26.3374V23.5882ZM26.8668 23.5882H27.3962V24.1176H26.8668V23.5882ZM27.3962 23.5882H27.9256V24.1176H27.3962V23.5882ZM27.9256 23.5882H28.455V24.1176H27.9256V23.5882ZM28.455 23.5882H28.9844V24.1176H28.455V23.5882ZM28.9844 23.5882H29.5138V24.1176H28.9844V23.5882ZM29.5138 23.5882H30.0433V24.1176H29.5138V23.5882ZM30.0433 23.5882H30.5727V24.1176H30.0433V23.5882ZM29.5138 23.0588H30.0433V23.5882H29.5138V23.0588ZM28.9844 23.0588H29.5138V23.5882H28.9844V23.0588ZM28.455 23.0588H28.9844V23.5882H28.455V23.0588ZM27.9256 24.1176H28.455V24.6471H27.9256V24.1176ZM27.3962 24.1176H27.9256V24.6471H27.3962V24.1176ZM28.455 24.1176H28.9844V24.6471H28.455V24.1176ZM28.9844 24.1176H29.5138V24.6471H28.9844V24.1176ZM29.5138 24.1176H30.0433V24.6471H29.5138V24.1176ZM30.0433 24.1176H30.5727V24.6471H30.0433V24.1176ZM30.5727 24.1176H31.1021V24.6471H30.5727V24.1176ZM30.0433 14.0588H30.5727V14.5882H30.0433V14.0588ZM30.0433 19.3529H30.5727V19.8824H30.0433V19.3529ZM36.0383 14.0588H36.5677V14.5882H36.0383V14.0588ZM36.5677 14.0588H37.0971V14.5882H36.5677V14.0588ZM35.5089 14.0588H36.0383V14.5882H35.5089V14.0588ZM37.0971 14.0588H37.6265V14.5882H37.0971V14.0588ZM37.6265 14.0588H38.1559V14.5882H37.6265V14.0588ZM38.1559 14.0588H38.6853V14.5882H38.1559V14.0588ZM38.6853 14.0588H39.2147V14.5882H38.6853V14.0588ZM39.2147 14.5882H39.7442V15.1176H39.2147V14.5882ZM38.6853 14.5882H39.2147V15.1176H38.6853V14.5882ZM38.6853 15.1176H39.2147V15.6471H38.6853V15.1176ZM39.7442 14.5882H40.2736V15.1176H39.7442V14.5882ZM39.7442 15.1176H40.2736V15.6471H39.7442V15.1176ZM39.2147 15.1176H39.7442V15.6471H39.2147V15.1176ZM38.6853 15.6471H39.2147V16.1765H38.6853V15.6471ZM38.1559 15.6471H38.6853V16.1765H38.1559V15.6471ZM39.2147 15.6471H39.7442V16.1765H39.2147V15.6471ZM39.7442 15.6471H40.2736V16.1765H39.7442V15.6471ZM40.2736 15.6471H40.803V16.1765H40.2736V15.6471ZM40.2736 16.1765H40.803V16.7059H40.2736V16.1765ZM40.2736 16.7059H40.803V17.2353H40.2736V16.7059ZM40.2736 17.2353H40.803V17.7647H40.2736V17.2353ZM40.2736 17.7647H40.803V18.2941H40.2736V17.7647ZM40.2736 18.2941H40.803V18.8235H40.2736V18.2941ZM40.2736 18.8235H40.803V19.3529H40.2736V18.8235ZM40.2736 19.3529H40.803V19.8824H40.2736V19.3529ZM40.2736 19.8824H40.803V20.4118H40.2736V19.8824ZM39.7442 19.8824H40.2736V20.4118H39.7442V19.8824ZM39.7442 20.4118H40.2736V20.9412H39.7442V20.4118ZM39.7442 20.9412H40.2736V21.4706H39.7442V20.9412ZM39.2147 20.9412H39.7442V21.4706H39.2147V20.9412ZM38.6853 20.9412H39.2147V21.4706H38.6853V20.9412ZM38.1559 20.4118H38.6853V20.9412H38.1559V20.4118ZM38.1559 19.8824H38.6853V20.4118H38.1559V19.8824ZM38.6853 19.8824H39.2147V20.4118H38.6853V19.8824ZM38.6853 20.4118H39.2147V20.9412H38.6853V20.4118ZM39.2147 20.4118H39.7442V20.9412H39.2147V20.4118ZM39.2147 19.8824H39.7442V20.4118H39.2147V19.8824ZM39.2147 19.3529H39.7442V19.8824H39.2147V19.3529ZM38.6853 19.3529H39.2147V19.8824H38.6853V19.3529ZM38.6853 18.8235H39.2147V19.3529H38.6853V18.8235ZM38.6853 18.2941H39.2147V18.8235H38.6853V18.2941ZM38.6853 17.7647H39.2147V18.2941H38.6853V17.7647ZM38.6853 17.2353H39.2147V17.7647H38.6853V17.2353ZM38.6853 16.7059H39.2147V17.2353H38.6853V16.7059ZM38.6853 16.1765H39.2147V16.7059H38.6853V16.1765ZM39.2147 16.1765H39.7442V16.7059H39.2147V16.1765ZM39.2147 16.7059H39.7442V17.2353H39.2147V16.7059ZM39.2147 17.2353H39.7442V17.7647H39.2147V17.2353ZM39.2147 17.7647H39.7442V18.2941H39.2147V17.7647ZM39.2147 18.2941H39.7442V18.8235H39.2147V18.2941ZM39.2147 18.8235H39.7442V19.3529H39.2147V18.8235ZM39.7442 19.3529H40.2736V19.8824H39.7442V19.3529ZM39.7442 18.8235H40.2736V19.3529H39.7442V18.8235ZM39.7442 18.2941H40.2736V18.8235H39.7442V18.2941ZM39.7442 17.7647H40.2736V18.2941H39.7442V17.7647ZM39.7442 17.2353H40.2736V17.7647H39.7442V17.2353ZM39.7442 16.7059H40.2736V17.2353H39.7442V16.7059ZM39.7442 16.1765H40.2736V16.7059H39.7442V16.1765ZM38.1559 20.9412H38.6853V21.4706H38.1559V20.9412ZM38.1559 21.4706H38.6853V22H38.1559V21.4706ZM38.6853 21.4706H39.2147V22H38.6853V21.4706ZM37.6265 21.4706H38.1559V22H37.6265V21.4706ZM37.0971 21.4706H37.6265V22H37.0971V21.4706ZM36.5677 21.4706H37.0971V22H36.5677V21.4706ZM36.0383 21.4706H36.5677V22H36.0383V21.4706ZM35.5089 21.4706H36.0383V22H35.5089V21.4706ZM35.5089 20.9412H36.0383V21.4706H35.5089V20.9412ZM34.9794 20.9412H35.5089V21.4706H34.9794V20.9412ZM34.45 20.9412H34.9794V21.4706H34.45V20.9412ZM34.45 20.4118H34.9794V20.9412H34.45V20.4118ZM33.9206 19.8824H34.45V20.4118H33.9206V19.8824ZM34.45 19.8824H34.9794V20.4118H34.45V19.8824ZM33.9206 19.3529H34.45V19.8824H33.9206V19.3529ZM33.9206 18.8235H34.45V19.3529H33.9206V18.8235ZM33.9206 18.2941H34.45V18.8235H33.9206V18.2941ZM33.9206 17.7647H34.45V18.2941H33.9206V17.7647ZM33.9206 17.2353H34.45V17.7647H33.9206V17.2353ZM33.9206 16.7059H34.45V17.2353H33.9206V16.7059ZM34.45 16.7059H34.9794V17.2353H34.45V16.7059ZM34.45 16.1765H34.9794V16.7059H34.45V16.1765ZM33.9206 16.1765H34.45V16.7059H33.9206V16.1765ZM33.9206 15.6471H34.45V16.1765H33.9206V15.6471ZM34.45 15.6471H34.9794V16.1765H34.45V15.6471ZM34.45 15.1176H34.9794V15.6471H34.45V15.1176ZM34.45 14.5882H34.9794V15.1176H34.45V14.5882ZM34.9794 14.5882H35.5089V15.1176H34.9794V14.5882ZM35.5089 14.5882H36.0383V15.1176H35.5089V14.5882ZM36.0383 14.5882H36.5677V15.1176H36.0383V14.5882ZM36.0383 15.1176H36.5677V15.6471H36.0383V15.1176ZM36.0383 15.6471H36.5677V16.1765H36.0383V15.6471ZM35.5089 15.6471H36.0383V16.1765H35.5089V15.6471ZM34.9794 15.6471H35.5089V16.1765H34.9794V15.6471ZM35.5089 16.1765H36.0383V16.7059H35.5089V16.1765ZM35.5089 16.7059H36.0383V17.2353H35.5089V16.7059ZM35.5089 17.2353H36.0383V17.7647H35.5089V17.2353ZM35.5089 17.7647H36.0383V18.2941H35.5089V17.7647ZM35.5089 18.2941H36.0383V18.8235H35.5089V18.2941ZM35.5089 18.8235H36.0383V19.3529H35.5089V18.8235ZM35.5089 19.3529H36.0383V19.8824H35.5089V19.3529ZM35.5089 19.8824H36.0383V20.4118H35.5089V19.8824ZM36.0383 19.8824H36.5677V20.4118H36.0383V19.8824ZM36.0383 20.4118H36.5677V20.9412H36.0383V20.4118ZM36.5677 20.4118H37.0971V20.9412H36.5677V20.4118ZM37.0971 20.4118H37.6265V20.9412H37.0971V20.4118ZM37.6265 20.4118H38.1559V20.9412H37.6265V20.4118ZM37.6265 20.9412H38.1559V21.4706H37.6265V20.9412ZM37.0971 20.9412H37.6265V21.4706H37.0971V20.9412ZM36.5677 20.9412H37.0971V21.4706H36.5677V20.9412ZM36.0383 20.9412H36.5677V21.4706H36.0383V20.9412ZM35.5089 20.4118H36.0383V20.9412H35.5089V20.4118ZM34.9794 20.4118H35.5089V20.9412H34.9794V20.4118ZM34.9794 19.8824H35.5089V20.4118H34.9794V19.8824ZM34.9794 19.3529H35.5089V19.8824H34.9794V19.3529ZM34.9794 18.8235H35.5089V19.3529H34.9794V18.8235ZM34.45 18.8235H34.9794V19.3529H34.45V18.8235ZM34.45 19.3529H34.9794V19.8824H34.45V19.3529ZM34.45 18.2941H34.9794V18.8235H34.45V18.2941ZM34.45 17.7647H34.9794V18.2941H34.45V17.7647ZM34.45 17.2353H34.9794V17.7647H34.45V17.2353ZM34.9794 17.2353H35.5089V17.7647H34.9794V17.2353ZM34.9794 17.7647H35.5089V18.2941H34.9794V17.7647ZM34.9794 18.2941H35.5089V18.8235H34.9794V18.2941ZM34.9794 16.7059H35.5089V17.2353H34.9794V16.7059ZM34.9794 16.1765H35.5089V16.7059H34.9794V16.1765ZM34.9794 15.1176H35.5089V15.6471H34.9794V15.1176ZM35.5089 15.1176H36.0383V15.6471H35.5089V15.1176ZM36.5677 14.5882H37.0971V15.1176H36.5677V14.5882ZM37.0971 14.5882H37.6265V15.1176H37.0971V14.5882ZM37.6265 14.5882H38.1559V15.1176H37.6265V14.5882ZM38.1559 14.5882H38.6853V15.1176H38.1559V14.5882ZM38.1559 15.1176H38.6853V15.6471H38.1559V15.1176ZM37.6265 15.1176H38.1559V15.6471H37.6265V15.1176ZM37.0971 15.1176H37.6265V15.6471H37.0971V15.1176ZM36.5677 15.1176H37.0971V15.6471H36.5677V15.1176ZM45.3823 11.4118H45.9117V11.9412H45.3823V11.4118ZM45.9117 11.4118H46.4411V11.9412H45.9117V11.4118ZM46.4411 11.4118H46.9705V11.9412H46.4411V11.4118ZM46.9705 11.4118H47.4999V11.9412H46.9705V11.4118ZM46.9705 11.9412H47.4999V12.4706H46.9705V11.9412ZM46.9705 12.4706H47.4999V13H46.9705V12.4706ZM46.4411 12.4706H46.9705V13H46.4411V12.4706ZM45.9117 12.4706H46.4411V13H45.9117V12.4706ZM45.9117 11.9412H46.4411V12.4706H45.9117V11.9412ZM45.3823 11.9412H45.9117V12.4706H45.3823V11.9412ZM46.4411 11.9412H46.9705V12.4706H46.4411V11.9412ZM45.3823 12.4706H45.9117V13H45.3823V12.4706ZM45.3823 13H45.9117V13.5294H45.3823V13ZM45.3823 13.5294H45.9117V14.0588H45.3823V13.5294ZM45.9117 13.5294H46.4411V14.0588H45.9117V13.5294ZM46.4411 13.5294H46.9705V14.0588H46.4411V13.5294ZM46.9705 13.5294H47.4999V14.0588H46.9705V13.5294ZM46.9705 13H47.4999V13.5294H46.9705V13ZM46.4411 13H46.9705V13.5294H46.4411V13ZM45.9117 13H46.4411V13.5294H45.9117V13ZM45.3823 14.0588H45.9117V14.5882H45.3823V14.0588ZM45.9117 14.0588H46.4411V14.5882H45.9117V14.0588ZM46.4411 14.0588H46.9705V14.5882H46.4411V14.0588ZM45.3823 15.1176H45.9117V15.6471H45.3823V15.1176ZM45.3823 14.5882H45.9117V15.1176H45.3823V14.5882ZM46.4411 21.4706H46.9705V22H46.4411V21.4706ZM45.9117 21.4706H46.4411V22H45.9117V21.4706ZM45.3823 20.9412H45.9117V21.4706H45.3823V20.9412ZM45.3823 20.4118H45.9117V20.9412H45.3823V20.4118ZM45.3823 21.4706H45.9117V22H45.3823V21.4706ZM48.0293 14.0588H48.5587V14.5882H48.0293V14.0588ZM46.9705 14.0588H47.4999V14.5882H46.9705V14.0588ZM48.5587 14.0588H49.0881V14.5882H48.5587V14.0588ZM49.0881 14.0588H49.6176V14.5882H49.0881V14.0588ZM49.6176 14.0588H50.147V14.5882H49.6176V14.0588ZM50.147 14.0588H50.6764V14.5882H50.147V14.0588ZM50.6764 14.5882H51.2058V15.1176H50.6764V14.5882ZM50.147 14.5882H50.6764V15.1176H50.147V14.5882ZM50.147 15.1176H50.6764V15.6471H50.147V15.1176ZM51.2058 14.5882H51.7352V15.1176H51.2058V14.5882ZM51.2058 15.1176H51.7352V15.6471H51.2058V15.1176ZM50.6764 15.1176H51.2058V15.6471H50.6764V15.1176ZM50.147 15.6471H50.6764V16.1765H50.147V15.6471ZM49.6176 15.6471H50.147V16.1765H49.6176V15.6471ZM50.6764 15.6471H51.2058V16.1765H50.6764V15.6471ZM51.2058 15.6471H51.7352V16.1765H51.2058V15.6471ZM51.7352 15.6471H52.2646V16.1765H51.7352V15.6471ZM51.7352 16.1765H52.2646V16.7059H51.7352V16.1765ZM51.7352 16.7059H52.2646V17.2353H51.7352V16.7059ZM51.7352 17.2353H52.2646V17.7647H51.7352V17.2353ZM51.7352 17.7647H52.2646V18.2941H51.7352V17.7647ZM51.7352 18.2941H52.2646V18.8235H51.7352V18.2941ZM51.7352 18.8235H52.2646V19.3529H51.7352V18.8235ZM51.7352 19.3529H52.2646V19.8824H51.7352V19.3529ZM51.7352 19.8824H52.2646V20.4118H51.7352V19.8824ZM51.2058 19.8824H51.7352V20.4118H51.2058V19.8824ZM51.2058 20.4118H51.7352V20.9412H51.2058V20.4118ZM51.2058 20.9412H51.7352V21.4706H51.2058V20.9412ZM50.6764 20.9412H51.2058V21.4706H50.6764V20.9412ZM50.147 20.9412H50.6764V21.4706H50.147V20.9412ZM49.6176 20.4118H50.147V20.9412H49.6176V20.4118ZM49.6176 19.8824H50.147V20.4118H49.6176V19.8824ZM50.147 19.8824H50.6764V20.4118H50.147V19.8824ZM50.147 20.4118H50.6764V20.9412H50.147V20.4118ZM50.6764 20.4118H51.2058V20.9412H50.6764V20.4118ZM50.6764 19.8824H51.2058V20.4118H50.6764V19.8824ZM50.6764 19.3529H51.2058V19.8824H50.6764V19.3529ZM50.147 19.3529H50.6764V19.8824H50.147V19.3529ZM50.147 18.8235H50.6764V19.3529H50.147V18.8235ZM50.147 18.2941H50.6764V18.8235H50.147V18.2941ZM50.147 17.7647H50.6764V18.2941H50.147V17.7647ZM50.147 17.2353H50.6764V17.7647H50.147V17.2353ZM50.147 16.7059H50.6764V17.2353H50.147V16.7059ZM50.147 16.1765H50.6764V16.7059H50.147V16.1765ZM50.6764 16.1765H51.2058V16.7059H50.6764V16.1765ZM50.6764 16.7059H51.2058V17.2353H50.6764V16.7059ZM50.6764 17.2353H51.2058V17.7647H50.6764V17.2353ZM50.6764 17.7647H51.2058V18.2941H50.6764V17.7647ZM50.6764 18.2941H51.2058V18.8235H50.6764V18.2941ZM50.6764 18.8235H51.2058V19.3529H50.6764V18.8235ZM51.2058 19.3529H51.7352V19.8824H51.2058V19.3529ZM51.2058 18.8235H51.7352V19.3529H51.2058V18.8235ZM51.2058 18.2941H51.7352V18.8235H51.2058V18.2941ZM51.2058 17.7647H51.7352V18.2941H51.2058V17.7647ZM51.2058 17.2353H51.7352V17.7647H51.2058V17.2353ZM51.2058 16.7059H51.7352V17.2353H51.2058V16.7059ZM51.2058 16.1765H51.7352V16.7059H51.2058V16.1765ZM49.6176 20.9412H50.147V21.4706H49.6176V20.9412ZM49.6176 21.4706H50.147V22H49.6176V21.4706ZM50.147 21.4706H50.6764V22H50.147V21.4706ZM49.0881 21.4706H49.6176V22H49.0881V21.4706ZM48.5587 21.4706H49.0881V22H48.5587V21.4706ZM48.0293 21.4706H48.5587V22H48.0293V21.4706ZM47.4999 21.4706H48.0293V22H47.4999V21.4706ZM46.9705 21.4706H47.4999V22H46.9705V21.4706ZM46.9705 20.9412H47.4999V21.4706H46.9705V20.9412ZM46.4411 20.9412H46.9705V21.4706H46.4411V20.9412ZM45.9117 20.9412H46.4411V21.4706H45.9117V20.9412ZM45.9117 16.7059H46.4411V17.2353H45.9117V16.7059ZM45.9117 16.1765H46.4411V16.7059H45.9117V16.1765ZM45.3823 15.6471H45.9117V16.1765H45.3823V15.6471ZM45.9117 15.1176H46.4411V15.6471H45.9117V15.1176ZM46.4411 14.5882H46.9705V15.1176H46.4411V14.5882ZM46.9705 14.5882H47.4999V15.1176H46.9705V14.5882ZM47.4999 14.5882H48.0293V15.1176H47.4999V14.5882ZM47.4999 15.1176H48.0293V15.6471H47.4999V15.1176ZM47.4999 15.6471H48.0293V16.1765H47.4999V15.6471ZM46.9705 15.6471H47.4999V16.1765H46.9705V15.6471ZM46.4411 15.6471H46.9705V16.1765H46.4411V15.6471ZM46.9705 16.1765H47.4999V16.7059H46.9705V16.1765ZM46.9705 16.7059H47.4999V17.2353H46.9705V16.7059ZM46.9705 17.2353H47.4999V17.7647H46.9705V17.2353ZM47.4999 20.4118H48.0293V20.9412H47.4999V20.4118ZM48.0293 20.4118H48.5587V20.9412H48.0293V20.4118ZM48.5587 20.4118H49.0881V20.9412H48.5587V20.4118ZM49.0881 20.4118H49.6176V20.9412H49.0881V20.4118ZM49.0881 20.9412H49.6176V21.4706H49.0881V20.9412ZM48.5587 20.9412H49.0881V21.4706H48.5587V20.9412ZM48.0293 20.9412H48.5587V21.4706H48.0293V20.9412ZM47.4999 20.9412H48.0293V21.4706H47.4999V20.9412ZM46.9705 20.4118H47.4999V20.9412H46.9705V20.4118ZM46.4411 20.4118H46.9705V20.9412H46.4411V20.4118ZM46.4411 16.7059H46.9705V17.2353H46.4411V16.7059ZM46.4411 16.1765H46.9705V16.7059H46.4411V16.1765ZM46.4411 15.1176H46.9705V15.6471H46.4411V15.1176ZM46.9705 15.1176H47.4999V15.6471H46.9705V15.1176ZM48.0293 14.5882H48.5587V15.1176H48.0293V14.5882ZM48.5587 14.5882H49.0881V15.1176H48.5587V14.5882ZM49.0881 14.5882H49.6176V15.1176H49.0881V14.5882ZM49.6176 14.5882H50.147V15.1176H49.6176V14.5882ZM49.6176 15.1176H50.147V15.6471H49.6176V15.1176ZM49.0881 15.1176H49.6176V15.6471H49.0881V15.1176ZM48.5587 15.1176H49.0881V15.6471H48.5587V15.1176ZM48.0293 15.1176H48.5587V15.6471H48.0293V15.1176ZM45.9117 14.5882H46.4411V15.1176H45.9117V14.5882ZM45.9117 20.4118H46.4411V20.9412H45.9117V20.4118ZM45.9117 15.6471H46.4411V16.1765H45.9117V15.6471ZM45.3823 16.1765H45.9117V16.7059H45.3823V16.1765ZM45.3823 16.7059H45.9117V17.2353H45.3823V16.7059ZM45.3823 19.8824H45.9117V20.4118H45.3823V19.8824ZM45.9117 19.8824H46.4411V20.4118H45.9117V19.8824ZM46.4411 19.8824H46.9705V20.4118H46.4411V19.8824ZM46.9705 19.8824H47.4999V20.4118H46.9705V19.8824ZM46.4411 17.2353H46.9705V17.7647H46.4411V17.2353ZM45.9117 17.2353H46.4411V17.7647H45.9117V17.2353ZM45.3823 17.2353H45.9117V17.7647H45.3823V17.2353ZM45.3823 17.7647H45.9117V18.2941H45.3823V17.7647ZM45.3823 18.2941H45.9117V18.8235H45.3823V18.2941ZM45.3823 18.8235H45.9117V19.3529H45.3823V18.8235ZM45.9117 18.8235H46.4411V19.3529H45.9117V18.8235ZM45.9117 19.3529H46.4411V19.8824H45.9117V19.3529ZM46.4411 19.3529H46.9705V19.8824H46.4411V19.3529ZM45.3823 19.3529H45.9117V19.8824H45.3823V19.3529ZM46.9705 19.3529H47.4999V19.8824H46.9705V19.3529ZM46.9705 18.8235H47.4999V19.3529H46.9705V18.8235ZM46.9705 18.2941H47.4999V18.8235H46.9705V18.2941ZM46.9705 17.7647H47.4999V18.2941H46.9705V17.7647ZM46.4411 17.7647H46.9705V18.2941H46.4411V17.7647ZM45.9117 17.7647H46.4411V18.2941H45.9117V17.7647ZM45.9117 18.2941H46.4411V18.8235H45.9117V18.2941ZM46.4411 18.8235H46.9705V19.3529H46.4411V18.8235ZM46.4411 18.2941H46.9705V18.8235H46.4411V18.2941ZM57.7302 22H57.2008V21.4706H57.7302V22ZM58.789 22H58.2596V21.4706H58.789V22ZM57.2008 22H56.6714V21.4706H57.2008V22ZM56.6714 22H56.142V21.4706H56.6714V22ZM56.142 22H55.6126V21.4706H56.142V22ZM55.6126 22H55.0832V21.4706H55.6126V22ZM55.0832 21.4706H54.5537V20.9412H55.0832V21.4706ZM55.6126 21.4706H55.0832V20.9412H55.6126V21.4706ZM55.6126 20.9412H55.0832V20.4118H55.6126V20.9412ZM54.5537 21.4706H54.0243V20.9412H54.5537V21.4706ZM54.5537 20.9412H54.0243V20.4118H54.5537V20.9412ZM55.0832 20.9412H54.5537V20.4118H55.0832V20.9412ZM55.6126 20.4118H55.0832V19.8824H55.6126V20.4118ZM56.142 20.4118H55.6126V19.8824H56.142V20.4118ZM55.0832 20.4118H54.5537V19.8824H55.0832V20.4118ZM54.5537 20.4118H54.0243V19.8824H54.5537V20.4118ZM54.0243 20.4118H53.4949V19.8824H54.0243V20.4118ZM54.0243 19.8824H53.4949V19.3529H54.0243V19.8824ZM54.0243 16.7059H53.4949V16.1765H54.0243V16.7059ZM54.0243 16.1765H53.4949V15.6471H54.0243V16.1765ZM54.5537 16.1765H54.0243V15.6471H54.5537V16.1765ZM54.5537 15.6471H54.0243V15.1176H54.5537V15.6471ZM54.5537 15.1176H54.0243V14.5882H54.5537V15.1176ZM55.0832 15.1176H54.5537V14.5882H55.0832V15.1176ZM55.6126 15.1176H55.0832V14.5882H55.6126V15.1176ZM56.142 15.6471H55.6126V15.1176H56.142V15.6471ZM56.142 16.1765H55.6126V15.6471H56.142V16.1765ZM55.6126 16.1765H55.0832V15.6471H55.6126V16.1765ZM55.6126 15.6471H55.0832V15.1176H55.6126V15.6471ZM55.0832 15.6471H54.5537V15.1176H55.0832V15.6471ZM55.0832 16.1765H54.5537V15.6471H55.0832V16.1765ZM55.0832 16.7059H54.5537V16.1765H55.0832V16.7059ZM55.6126 16.7059H55.0832V16.1765H55.6126V16.7059ZM55.6126 19.8824H55.0832V19.3529H55.6126V19.8824ZM55.0832 19.8824H54.5537V19.3529H55.0832V19.8824ZM54.5537 16.7059H54.0243V16.1765H54.5537V16.7059ZM54.5537 19.8824H54.0243V19.3529H54.5537V19.8824ZM56.142 15.1176H55.6126V14.5882H56.142V15.1176ZM56.142 14.5882H55.6126V14.0588H56.142V14.5882ZM55.6126 14.5882H55.0832V14.0588H55.6126V14.5882ZM56.6714 14.5882H56.142V14.0588H56.6714V14.5882ZM57.2008 14.5882H56.6714V14.0588H57.2008V14.5882ZM57.7302 14.5882H57.2008V14.0588H57.7302V14.5882ZM58.2596 14.5882H57.7302V14.0588H58.2596V14.5882ZM58.789 14.5882H58.2596V14.0588H58.789V14.5882ZM58.789 15.1176H58.2596V14.5882H58.789V15.1176ZM59.3184 15.1176H58.789V14.5882H59.3184V15.1176ZM59.8479 15.1176H59.3184V14.5882H59.8479V15.1176ZM59.8479 15.6471H59.3184V15.1176H59.8479V15.6471ZM60.3773 16.1765H59.8479V15.6471H60.3773V16.1765ZM59.8479 16.1765H59.3184V15.6471H59.8479V16.1765ZM60.3773 16.7059H59.8479V16.1765H60.3773V16.7059ZM60.3773 17.2353H59.8479V16.7059H60.3773V17.2353ZM60.3773 17.7647H59.8479V17.2353H60.3773V17.7647ZM60.3773 18.2941H59.8479V17.7647H60.3773V18.2941ZM60.3773 18.8235H59.8479V18.2941H60.3773V18.8235ZM60.3773 19.3529H59.8479V18.8235H60.3773V19.3529ZM59.8479 19.3529H59.3184V18.8235H59.8479V19.3529ZM59.8479 19.8824H59.3184V19.3529H59.8479V19.8824ZM60.3773 19.8824H59.8479V19.3529H60.3773V19.8824ZM60.3773 20.4118H59.8479V19.8824H60.3773V20.4118ZM59.8479 20.4118H59.3184V19.8824H59.8479V20.4118ZM59.8479 20.9412H59.3184V20.4118H59.8479V20.9412ZM59.8479 21.4706H59.3184V20.9412H59.8479V21.4706ZM59.3184 21.4706H58.789V20.9412H59.3184V21.4706ZM58.789 21.4706H58.2596V20.9412H58.789V21.4706ZM58.2596 21.4706H57.7302V20.9412H58.2596V21.4706ZM58.2596 20.9412H57.7302V20.4118H58.2596V20.9412ZM58.789 20.4118H58.2596V19.8824H58.789V20.4118ZM59.3184 20.4118H58.789V19.8824H59.3184V20.4118ZM58.789 19.8824H58.2596V19.3529H58.789V19.8824ZM58.789 19.3529H58.2596V18.8235H58.789V19.3529ZM58.789 18.8235H58.2596V18.2941H58.789V18.8235ZM58.789 18.2941H58.2596V17.7647H58.789V18.2941ZM58.789 17.7647H58.2596V17.2353H58.789V17.7647ZM58.789 17.2353H58.2596V16.7059H58.789V17.2353ZM58.789 16.7059H58.2596V16.1765H58.789V16.7059ZM58.789 16.1765H58.2596V15.6471H58.789V16.1765ZM58.2596 16.1765H57.7302V15.6471H58.2596V16.1765ZM58.2596 15.6471H57.7302V15.1176H58.2596V15.6471ZM57.7302 15.6471H57.2008V15.1176H57.7302V15.6471ZM57.2008 15.6471H56.6714V15.1176H57.2008V15.6471ZM56.6714 15.6471H56.142V15.1176H56.6714V15.6471ZM56.6714 15.1176H56.142V14.5882H56.6714V15.1176ZM57.2008 15.1176H56.6714V14.5882H57.2008V15.1176ZM57.7302 15.1176H57.2008V14.5882H57.7302V15.1176ZM58.2596 15.1176H57.7302V14.5882H58.2596V15.1176ZM58.789 15.6471H58.2596V15.1176H58.789V15.6471ZM59.3184 15.6471H58.789V15.1176H59.3184V15.6471ZM59.3184 16.1765H58.789V15.6471H59.3184V16.1765ZM59.3184 16.7059H58.789V16.1765H59.3184V16.7059ZM59.3184 17.2353H58.789V16.7059H59.3184V17.2353ZM59.8479 17.2353H59.3184V16.7059H59.8479V17.2353ZM59.8479 16.7059H59.3184V16.1765H59.8479V16.7059ZM59.8479 17.7647H59.3184V17.2353H59.8479V17.7647ZM59.8479 18.2941H59.3184V17.7647H59.8479V18.2941ZM59.8479 18.8235H59.3184V18.2941H59.8479V18.8235ZM59.3184 18.8235H58.789V18.2941H59.3184V18.8235ZM59.3184 18.2941H58.789V17.7647H59.3184V18.2941ZM59.3184 17.7647H58.789V17.2353H59.3184V17.7647ZM59.3184 19.3529H58.789V18.8235H59.3184V19.3529ZM59.3184 19.8824H58.789V19.3529H59.3184V19.8824ZM59.3184 20.9412H58.789V20.4118H59.3184V20.9412ZM58.789 20.9412H58.2596V20.4118H58.789V20.9412ZM57.7302 21.4706H57.2008V20.9412H57.7302V21.4706ZM57.2008 21.4706H56.6714V20.9412H57.2008V21.4706ZM56.6714 21.4706H56.142V20.9412H56.6714V21.4706ZM56.142 21.4706H55.6126V20.9412H56.142V21.4706ZM56.142 20.9412H55.6126V20.4118H56.142V20.9412ZM56.6714 20.9412H56.142V20.4118H56.6714V20.9412ZM57.2008 20.9412H56.6714V20.4118H57.2008V20.9412ZM57.7302 20.9412H57.2008V20.4118H57.7302V20.9412ZM54.5537 19.3529H54.0243V18.8235H54.5537V19.3529ZM55.0832 19.3529H54.5537V18.8235H55.0832V19.3529ZM55.6126 19.3529H55.0832V18.8235H55.6126V19.3529ZM54.5537 18.8235H54.0243V18.2941H54.5537V18.8235ZM55.0832 18.8235H54.5537V18.2941H55.0832V18.8235ZM55.6126 18.8235H55.0832V18.2941H55.6126V18.8235ZM56.142 18.8235H55.6126V18.2941H56.142V18.8235ZM56.6714 18.8235H56.142V18.2941H56.6714V18.8235ZM57.2008 18.8235H56.6714V18.2941H57.2008V18.8235ZM57.7302 18.8235H57.2008V18.2941H57.7302V18.8235ZM58.2596 18.8235H57.7302V18.2941H58.2596V18.8235ZM58.2596 18.2941H57.7302V17.7647H58.2596V18.2941ZM57.7302 18.2941H57.2008V17.7647H57.7302V18.2941ZM57.2008 18.2941H56.6714V17.7647H57.2008V18.2941ZM56.6714 18.2941H56.142V17.7647H56.6714V18.2941ZM56.142 18.2941H55.6126V17.7647H56.142V18.2941ZM55.6126 18.2941H55.0832V17.7647H55.6126V18.2941ZM59.8479 20.4118H60.3773V20.9412H59.8479V20.4118ZM59.8479 20.9412H60.3773V21.4706H59.8479V20.9412ZM59.8479 21.4706H60.3773V22H59.8479V21.4706ZM59.3184 21.4706H59.8479V22H59.3184V21.4706ZM58.789 21.4706H59.3184V22H58.789V21.4706ZM55.6126 18.8235H56.142V19.3529H55.6126V18.8235ZM63.7252 14.0588H64.2546V14.5882H63.7252V14.0588ZM64.2546 14.0588H64.784V14.5882H64.2546V14.0588ZM63.1958 14.0588H63.7252V14.5882H63.1958V14.0588ZM64.784 14.0588H65.3135V14.5882H64.784V14.0588ZM65.3135 14.0588H65.8429V14.5882H65.3135V14.0588ZM65.8429 14.0588H66.3723V14.5882H65.8429V14.0588ZM66.3723 14.0588H66.9017V14.5882H66.3723V14.0588ZM66.9017 14.5882H67.4311V15.1176H66.9017V14.5882ZM66.3723 14.5882H66.9017V15.1176H66.3723V14.5882ZM66.3723 15.1176H66.9017V15.6471H66.3723V15.1176ZM67.4311 14.5882H67.9605V15.1176H67.4311V14.5882ZM67.4311 15.1176H67.9605V15.6471H67.4311V15.1176ZM66.9017 15.1176H67.4311V15.6471H66.9017V15.1176ZM66.3723 15.6471H66.9017V16.1765H66.3723V15.6471ZM65.8429 15.6471H66.3723V16.1765H65.8429V15.6471ZM66.9017 15.6471H67.4311V16.1765H66.9017V15.6471ZM67.4311 15.6471H67.9605V16.1765H67.4311V15.6471ZM67.9605 15.6471H68.4899V16.1765H67.9605V15.6471ZM67.9605 16.1765H68.4899V16.7059H67.9605V16.1765ZM67.9605 19.3529H68.4899V19.8824H67.9605V19.3529ZM67.9605 19.8824H68.4899V20.4118H67.9605V19.8824ZM67.4311 19.8824H67.9605V20.4118H67.4311V19.8824ZM67.4311 20.4118H67.9605V20.9412H67.4311V20.4118ZM67.4311 20.9412H67.9605V21.4706H67.4311V20.9412ZM66.9017 20.9412H67.4311V21.4706H66.9017V20.9412ZM66.3723 20.9412H66.9017V21.4706H66.3723V20.9412ZM65.8429 20.4118H66.3723V20.9412H65.8429V20.4118ZM65.8429 19.8824H66.3723V20.4118H65.8429V19.8824ZM66.3723 19.8824H66.9017V20.4118H66.3723V19.8824ZM66.3723 20.4118H66.9017V20.9412H66.3723V20.4118ZM66.9017 20.4118H67.4311V20.9412H66.9017V20.4118ZM66.9017 19.8824H67.4311V20.4118H66.9017V19.8824ZM66.9017 19.3529H67.4311V19.8824H66.9017V19.3529ZM66.3723 19.3529H66.9017V19.8824H66.3723V19.3529ZM66.3723 16.1765H66.9017V16.7059H66.3723V16.1765ZM66.9017 16.1765H67.4311V16.7059H66.9017V16.1765ZM67.4311 19.3529H67.9605V19.8824H67.4311V19.3529ZM67.4311 16.1765H67.9605V16.7059H67.4311V16.1765ZM65.8429 20.9412H66.3723V21.4706H65.8429V20.9412ZM65.8429 21.4706H66.3723V22H65.8429V21.4706ZM66.3723 21.4706H66.9017V22H66.3723V21.4706ZM65.3135 21.4706H65.8429V22H65.3135V21.4706ZM64.784 21.4706H65.3135V22H64.784V21.4706ZM64.2546 21.4706H64.784V22H64.2546V21.4706ZM63.7252 21.4706H64.2546V22H63.7252V21.4706ZM63.1958 21.4706H63.7252V22H63.1958V21.4706ZM63.1958 20.9412H63.7252V21.4706H63.1958V20.9412ZM62.6664 20.9412H63.1958V21.4706H62.6664V20.9412ZM62.137 20.9412H62.6664V21.4706H62.137V20.9412ZM62.137 20.4118H62.6664V20.9412H62.137V20.4118ZM61.6076 19.8824H62.137V20.4118H61.6076V19.8824ZM62.137 19.8824H62.6664V20.4118H62.137V19.8824ZM61.6076 19.3529H62.137V19.8824H61.6076V19.3529ZM61.6076 18.8235H62.137V19.3529H61.6076V18.8235ZM61.6076 18.2941H62.137V18.8235H61.6076V18.2941ZM61.6076 17.7647H62.137V18.2941H61.6076V17.7647ZM61.6076 17.2353H62.137V17.7647H61.6076V17.2353ZM61.6076 16.7059H62.137V17.2353H61.6076V16.7059ZM62.137 16.7059H62.6664V17.2353H62.137V16.7059ZM62.137 16.1765H62.6664V16.7059H62.137V16.1765ZM61.6076 16.1765H62.137V16.7059H61.6076V16.1765ZM61.6076 15.6471H62.137V16.1765H61.6076V15.6471ZM62.137 15.6471H62.6664V16.1765H62.137V15.6471ZM62.137 15.1176H62.6664V15.6471H62.137V15.1176ZM62.137 14.5882H62.6664V15.1176H62.137V14.5882ZM62.6664 14.5882H63.1958V15.1176H62.6664V14.5882ZM63.1958 14.5882H63.7252V15.1176H63.1958V14.5882ZM63.7252 14.5882H64.2546V15.1176H63.7252V14.5882ZM63.7252 15.1176H64.2546V15.6471H63.7252V15.1176ZM63.7252 15.6471H64.2546V16.1765H63.7252V15.6471ZM63.1958 15.6471H63.7252V16.1765H63.1958V15.6471ZM62.6664 15.6471H63.1958V16.1765H62.6664V15.6471ZM63.1958 16.1765H63.7252V16.7059H63.1958V16.1765ZM63.1958 16.7059H63.7252V17.2353H63.1958V16.7059ZM63.1958 17.2353H63.7252V17.7647H63.1958V17.2353ZM63.1958 17.7647H63.7252V18.2941H63.1958V17.7647ZM63.1958 18.2941H63.7252V18.8235H63.1958V18.2941ZM63.1958 18.8235H63.7252V19.3529H63.1958V18.8235ZM63.1958 19.3529H63.7252V19.8824H63.1958V19.3529ZM63.1958 19.8824H63.7252V20.4118H63.1958V19.8824ZM63.7252 19.8824H64.2546V20.4118H63.7252V19.8824ZM63.7252 20.4118H64.2546V20.9412H63.7252V20.4118ZM64.2546 20.4118H64.784V20.9412H64.2546V20.4118ZM64.784 20.4118H65.3135V20.9412H64.784V20.4118ZM65.3135 20.4118H65.8429V20.9412H65.3135V20.4118ZM65.3135 20.9412H65.8429V21.4706H65.3135V20.9412ZM64.784 20.9412H65.3135V21.4706H64.784V20.9412ZM64.2546 20.9412H64.784V21.4706H64.2546V20.9412ZM63.7252 20.9412H64.2546V21.4706H63.7252V20.9412ZM63.1958 20.4118H63.7252V20.9412H63.1958V20.4118ZM62.6664 20.4118H63.1958V20.9412H62.6664V20.4118ZM62.6664 19.8824H63.1958V20.4118H62.6664V19.8824ZM62.6664 19.3529H63.1958V19.8824H62.6664V19.3529ZM62.6664 18.8235H63.1958V19.3529H62.6664V18.8235ZM62.137 18.8235H62.6664V19.3529H62.137V18.8235ZM62.137 19.3529H62.6664V19.8824H62.137V19.3529ZM62.137 18.2941H62.6664V18.8235H62.137V18.2941ZM62.137 17.7647H62.6664V18.2941H62.137V17.7647ZM62.137 17.2353H62.6664V17.7647H62.137V17.2353ZM62.6664 17.2353H63.1958V17.7647H62.6664V17.2353ZM62.6664 17.7647H63.1958V18.2941H62.6664V17.7647ZM62.6664 18.2941H63.1958V18.8235H62.6664V18.2941ZM62.6664 16.7059H63.1958V17.2353H62.6664V16.7059ZM62.6664 16.1765H63.1958V16.7059H62.6664V16.1765ZM62.6664 15.1176H63.1958V15.6471H62.6664V15.1176ZM63.1958 15.1176H63.7252V15.6471H63.1958V15.1176ZM64.2546 14.5882H64.784V15.1176H64.2546V14.5882ZM64.784 14.5882H65.3135V15.1176H64.784V14.5882ZM65.3135 14.5882H65.8429V15.1176H65.3135V14.5882ZM65.8429 14.5882H66.3723V15.1176H65.8429V14.5882ZM65.8429 15.1176H66.3723V15.6471H65.8429V15.1176ZM65.3135 15.1176H65.8429V15.6471H65.3135V15.1176ZM64.784 15.1176H65.3135V15.6471H64.784V15.1176ZM64.2546 15.1176H64.784V15.6471H64.2546V15.1176ZM69.1929 11.4118H69.7223V11.9412H69.1929V11.4118ZM69.7223 11.4118H70.2517V11.9412H69.7223V11.4118ZM70.2517 11.4118H70.7811V11.9412H70.2517V11.4118ZM70.7811 11.4118H71.3105V11.9412H70.7811V11.4118ZM70.7811 12.4706H71.3105V13H70.7811V12.4706ZM70.7811 13H71.3105V13.5294H70.7811V13ZM70.7811 11.9412H71.3105V12.4706H70.7811V11.9412ZM70.7811 13.5294H71.3105V14.0588H70.7811V13.5294ZM70.2517 13.5294H70.7811V14.0588H70.2517V13.5294ZM69.7223 13.5294H70.2517V14.0588H69.7223V13.5294ZM69.1929 13.5294H69.7223V14.0588H69.1929V13.5294ZM69.1929 13H69.7223V13.5294H69.1929V13ZM69.1929 12.4706H69.7223V13H69.1929V12.4706ZM69.1929 11.9412H69.7223V12.4706H69.1929V11.9412ZM69.7223 11.9412H70.2517V12.4706H69.7223V11.9412ZM69.7223 12.4706H70.2517V13H69.7223V12.4706ZM70.2517 12.4706H70.7811V13H70.2517V12.4706ZM70.2517 13H70.7811V13.5294H70.2517V13ZM69.7223 13H70.2517V13.5294H69.7223V13ZM70.2517 11.9412H70.7811V12.4706H70.2517V11.9412ZM72.8988 14.0588H73.4282V14.5882H72.8988V14.0588ZM72.8988 14.5882H73.4282V15.1176H72.8988V14.5882ZM72.8988 15.1176H73.4282V15.6471H72.8988V15.1176ZM72.8988 15.6471H73.4282V16.1765H72.8988V15.6471ZM73.4282 15.6471H73.9576V16.1765H73.4282V15.6471ZM73.9576 15.6471H74.487V16.1765H73.9576V15.6471ZM74.487 15.6471H75.0164V16.1765H74.487V15.6471ZM74.487 15.1176H75.0164V15.6471H74.487V15.1176ZM74.487 14.5882H75.0164V15.1176H74.487V14.5882ZM74.487 14.0588H75.0164V14.5882H74.487V14.0588ZM73.9576 14.0588H74.487V14.5882H73.9576V14.0588ZM73.4282 14.0588H73.9576V14.5882H73.4282V14.0588ZM73.4282 14.5882H73.9576V15.1176H73.4282V14.5882ZM73.4282 15.1176H73.9576V15.6471H73.4282V15.1176ZM73.9576 15.1176H74.487V15.6471H73.9576V15.1176ZM73.9576 14.5882H74.487V15.1176H73.9576V14.5882ZM69.1929 14.0588H69.7223V14.5882H69.1929V14.0588ZM69.7223 14.0588H70.2517V14.5882H69.7223V14.0588ZM70.2517 14.0588H70.7811V14.5882H70.2517V14.0588ZM70.7811 14.0588H71.3105V14.5882H70.7811V14.0588ZM70.7811 14.5882H71.3105V15.1176H70.7811V14.5882ZM70.7811 15.1176H71.3105V15.6471H70.7811V15.1176ZM70.7811 15.6471H71.3105V16.1765H70.7811V15.6471ZM70.7811 16.1765H71.3105V16.7059H70.7811V16.1765ZM70.7811 16.7059H71.3105V17.2353H70.7811V16.7059ZM70.2517 16.7059H70.7811V17.2353H70.2517V16.7059ZM69.7223 16.7059H70.2517V17.2353H69.7223V16.7059ZM69.7223 16.1765H70.2517V16.7059H69.7223V16.1765ZM69.7223 15.6471H70.2517V16.1765H69.7223V15.6471ZM69.7223 15.1176H70.2517V15.6471H69.7223V15.1176ZM69.7223 14.5882H70.2517V15.1176H69.7223V14.5882ZM69.1929 14.5882H69.7223V15.1176H69.1929V14.5882ZM69.1929 15.1176H69.7223V15.6471H69.1929V15.1176ZM69.1929 15.6471H69.7223V16.1765H69.1929V15.6471ZM69.1929 16.1765H69.7223V16.7059H69.1929V16.1765ZM69.1929 16.7059H69.7223V17.2353H69.1929V16.7059ZM70.2517 16.1765H70.7811V16.7059H70.2517V16.1765ZM70.2517 15.6471H70.7811V16.1765H70.2517V15.6471ZM70.2517 15.1176H70.7811V15.6471H70.2517V15.1176ZM70.2517 14.5882H70.7811V15.1176H70.2517V14.5882ZM71.3105 16.7059H71.8399V17.2353H71.3105V16.7059ZM71.8399 16.7059H72.3694V17.2353H71.8399V16.7059ZM71.8399 16.1765H72.3694V16.7059H71.8399V16.1765ZM72.3694 16.1765H72.8988V16.7059H72.3694V16.1765ZM72.3694 15.6471H72.8988V16.1765H72.3694V15.6471ZM74.487 16.1765H75.0164V16.7059H74.487V16.1765ZM73.9576 16.1765H74.487V16.7059H73.9576V16.1765ZM73.4282 16.1765H73.9576V16.7059H73.4282V16.1765ZM72.8988 16.1765H73.4282V16.7059H72.8988V16.1765ZM73.4282 16.7059H73.9576V17.2353H73.4282V16.7059ZM73.9576 16.7059H74.487V17.2353H73.9576V16.7059ZM73.4282 17.2353H73.9576V17.7647H73.4282V17.2353ZM72.8988 17.2353H73.4282V17.7647H72.8988V17.2353ZM72.8988 17.7647H73.4282V18.2941H72.8988V17.7647ZM72.3694 17.7647H72.8988V18.2941H72.3694V17.7647ZM71.8399 17.7647H72.3694V18.2941H71.8399V17.7647ZM71.3105 17.7647H71.8399V18.2941H71.3105V17.7647ZM70.7811 17.7647H71.3105V18.2941H70.7811V17.7647ZM71.3105 17.2353H71.8399V17.7647H71.3105V17.2353ZM71.8399 17.2353H72.3694V17.7647H71.8399V17.2353ZM72.3694 17.2353H72.8988V17.7647H72.3694V17.2353ZM72.3694 16.7059H72.8988V17.2353H72.3694V16.7059ZM72.8988 16.7059H73.4282V17.2353H72.8988V16.7059ZM74.487 19.3529H75.0164V19.8824H74.487V19.3529ZM73.9576 19.3529H74.487V19.8824H73.9576V19.3529ZM73.4282 19.3529H73.9576V19.8824H73.4282V19.3529ZM72.8988 19.3529H73.4282V19.8824H72.8988V19.3529ZM72.3694 19.3529H72.8988V19.8824H72.3694V19.3529ZM72.3694 18.8235H72.8988V19.3529H72.3694V18.8235ZM71.8399 18.8235H72.3694V19.3529H71.8399V18.8235ZM71.8399 18.2941H72.3694V18.8235H71.8399V18.2941ZM71.3105 18.2941H71.8399V18.8235H71.3105V18.2941ZM72.3694 18.2941H72.8988V18.8235H72.3694V18.2941ZM72.8988 18.2941H73.4282V18.8235H72.8988V18.2941ZM73.4282 18.2941H73.9576V18.8235H73.4282V18.2941ZM73.4282 18.8235H73.9576V19.3529H73.4282V18.8235ZM73.9576 18.8235H74.487V19.3529H73.9576V18.8235ZM72.8988 18.8235H73.4282V19.3529H72.8988V18.8235ZM74.487 21.4706H75.0164V22H74.487V21.4706ZM73.9576 21.4706H74.487V22H73.9576V21.4706ZM73.4282 21.4706H73.9576V22H73.4282V21.4706ZM72.8988 21.4706H73.4282V22H72.8988V21.4706ZM72.8988 20.9412H73.4282V21.4706H72.8988V20.9412ZM72.8988 20.4118H73.4282V20.9412H72.8988V20.4118ZM72.8988 19.8824H73.4282V20.4118H72.8988V19.8824ZM73.4282 19.8824H73.9576V20.4118H73.4282V19.8824ZM74.487 19.8824H75.0164V20.4118H74.487V19.8824ZM74.487 20.4118H75.0164V20.9412H74.487V20.4118ZM74.487 20.9412H75.0164V21.4706H74.487V20.9412ZM73.9576 20.9412H74.487V21.4706H73.9576V20.9412ZM73.9576 20.4118H74.487V20.9412H73.9576V20.4118ZM73.9576 19.8824H74.487V20.4118H73.9576V19.8824ZM73.4282 20.4118H73.9576V20.9412H73.4282V20.4118ZM73.4282 20.9412H73.9576V21.4706H73.4282V20.9412ZM69.1929 21.4706H69.7223V22H69.1929V21.4706ZM69.7223 21.4706H70.2517V22H69.7223V21.4706ZM70.2517 21.4706H70.7811V22H70.2517V21.4706ZM70.7811 21.4706H71.3105V22H70.7811V21.4706ZM70.7811 20.9412H71.3105V21.4706H70.7811V20.9412ZM70.7811 20.4118H71.3105V20.9412H70.7811V20.4118ZM70.7811 19.8824H71.3105V20.4118H70.7811V19.8824ZM70.7811 19.3529H71.3105V19.8824H70.7811V19.3529ZM70.7811 18.8235H71.3105V19.3529H70.7811V18.8235ZM70.7811 18.2941H71.3105V18.8235H70.7811V18.2941ZM70.7811 17.2353H71.3105V17.7647H70.7811V17.2353ZM70.2517 17.2353H70.7811V17.7647H70.2517V17.2353ZM69.7223 17.2353H70.2517V17.7647H69.7223V17.2353ZM69.1929 17.2353H69.7223V17.7647H69.1929V17.2353ZM69.1929 17.7647H69.7223V18.2941H69.1929V17.7647ZM69.1929 18.2941H69.7223V18.8235H69.1929V18.2941ZM69.1929 18.8235H69.7223V19.3529H69.1929V18.8235ZM69.7223 18.8235H70.2517V19.3529H69.7223V18.8235ZM69.7223 19.3529H70.2517V19.8824H69.7223V19.3529ZM69.7223 19.8824H70.2517V20.4118H69.7223V19.8824ZM69.7223 20.4118H70.2517V20.9412H69.7223V20.4118ZM69.7223 20.9412H70.2517V21.4706H69.7223V20.9412ZM69.1929 20.9412H69.7223V21.4706H69.1929V20.9412ZM69.1929 20.4118H69.7223V20.9412H69.1929V20.4118ZM69.1929 19.8824H69.7223V20.4118H69.1929V19.8824ZM69.1929 19.3529H69.7223V19.8824H69.1929V19.3529ZM69.7223 18.2941H70.2517V18.8235H69.7223V18.2941ZM69.7223 17.7647H70.2517V18.2941H69.7223V17.7647ZM70.2517 17.7647H70.7811V18.2941H70.2517V17.7647ZM70.2517 18.2941H70.7811V18.8235H70.2517V18.2941ZM70.2517 18.8235H70.7811V19.3529H70.2517V18.8235ZM70.2517 19.3529H70.7811V19.8824H70.2517V19.3529ZM70.2517 19.8824H70.7811V20.4118H70.2517V19.8824ZM70.2517 20.4118H70.7811V20.9412H70.2517V20.4118ZM70.2517 20.9412H70.7811V21.4706H70.2517V20.9412Z" fill="white"/>
<defs>
<linearGradient id="paint0_linear_181_63" x1="28.3293" y1="-5.67773" x2="82.2468" y2="54.5262" gradientUnits="userSpaceOnUse">
<stop stop-color="#EF61F7"/>
<stop offset="1" stop-color="#F69D0E"/>
</linearGradient>
</defs>
</svg>
