<svg width="104" height="37" viewBox="0 0 104 37" fill="none" xmlns="http://www.w3.org/2000/svg">
<path d="M6.53333 1L2 5.8V29.8H4.26667V31H6.53333V32.2H5.4V34.6H8.8V35.8H4.26667V37H98.3333L104 32.2V8.2H101.733V7H99.4667V5.8H100.6V3.4H97.2V2.2H101.733V1H6.53333Z" fill="#FAED0E"/>
<path d="M4.53333 0L0 4.8V28.8H2.26667V30H4.53333V31.2H3.4V33.6H6.8V34.8H2.26667V36H96.3333L102 31.2V7.2H99.7333V6H97.4667V4.8H98.6V2.4H95.2V1.2H99.7333V0H4.53333Z" fill="#E00E12"/>
<path d="M20.5495 15.6471H21.0789V16.1765H20.5495V15.6471ZM20.0201 15.6471H20.5495V16.1765H20.0201V15.6471ZM19.4906 15.6471H20.0201V16.1765H19.4906V15.6471ZM19.4906 15.1176H20.0201V15.6471H19.4906V15.1176ZM18.9612 15.1176H19.4906V15.6471H18.9612V15.1176ZM20.0201 15.1176H20.5495V15.6471H20.0201V15.1176ZM20.5495 15.1176H21.0789V15.6471H20.5495V15.1176ZM20.0201 14.5882H20.5495V15.1176H20.0201V14.5882ZM19.4906 14.5882H20.0201V15.1176H19.4906V14.5882ZM18.9612 14.5882H19.4906V15.1176H18.9612V14.5882ZM18.9612 14.0588H19.4906V14.5882H18.9612V14.0588ZM19.4906 14.0588H20.0201V14.5882H19.4906V14.0588ZM18.4318 14.0588H18.9612V14.5882H18.4318V14.0588ZM17.9024 14.0588H18.4318V14.5882H17.9024V14.0588ZM17.373 14.0588H17.9024V14.5882H17.373V14.0588ZM16.8436 14.5882H17.373V15.1176H16.8436V14.5882ZM16.3142 14.5882H16.8436V15.1176H16.3142V14.5882ZM16.3142 14.0588H16.8436V14.5882H16.3142V14.0588ZM16.8436 14.0588H17.373V14.5882H16.8436V14.0588ZM17.373 14.5882H17.9024V15.1176H17.373V14.5882ZM17.373 15.1176H17.9024V15.6471H17.373V15.1176ZM17.9024 15.1176H18.4318V15.6471H17.9024V15.1176ZM18.4318 15.1176H18.9612V15.6471H18.4318V15.1176ZM18.4318 14.5882H18.9612V15.1176H18.4318V14.5882ZM17.9024 14.5882H18.4318V15.1176H17.9024V14.5882ZM16.8436 15.1176H17.373V15.6471H16.8436V15.1176ZM16.3142 15.1176H16.8436V15.6471H16.3142V15.1176ZM15.7848 15.1176H16.3142V15.6471H15.7848V15.1176ZM15.2553 15.1176H15.7848V15.6471H15.2553V15.1176ZM15.2553 14.5882H15.7848V15.1176H15.2553V14.5882ZM15.7848 14.5882H16.3142V15.1176H15.7848V14.5882ZM16.3142 15.6471H16.8436V16.1765H16.3142V15.6471ZM16.8436 15.6471H17.373V16.1765H16.8436V15.6471ZM15.7848 15.6471H16.3142V16.1765H15.7848V15.6471ZM15.2553 15.6471H15.7848V16.1765H15.2553V15.6471ZM14.7259 15.6471H15.2553V16.1765H14.7259V15.6471ZM15.2553 16.1765H15.7848V16.7059H15.2553V16.1765ZM14.7259 16.1765H15.2553V16.7059H14.7259V16.1765ZM14.7259 16.7059H15.2553V17.2353H14.7259V16.7059ZM15.2553 16.7059H15.7848V17.2353H15.2553V16.7059ZM15.7848 16.1765H16.3142V16.7059H15.7848V16.1765ZM16.3142 16.1765H16.8436V16.7059H16.3142V16.1765ZM16.3142 16.7059H16.8436V17.2353H16.3142V16.7059ZM16.8436 16.7059H17.373V17.2353H16.8436V16.7059ZM15.7848 16.7059H16.3142V17.2353H15.7848V16.7059ZM15.7848 17.2353H16.3142V17.7647H15.7848V17.2353ZM15.2553 17.2353H15.7848V17.7647H15.2553V17.2353ZM15.7848 17.7647H16.3142V18.2941H15.7848V17.7647ZM15.2553 17.7647H15.7848V18.2941H15.2553V17.7647ZM16.3142 17.2353H16.8436V17.7647H16.3142V17.2353ZM16.8436 17.2353H17.373V17.7647H16.8436V17.2353ZM16.8436 17.7647H17.373V18.2941H16.8436V17.7647ZM16.8436 18.2941H17.373V18.8235H16.8436V18.2941ZM16.3142 18.2941H16.8436V18.8235H16.3142V18.2941ZM16.3142 17.7647H16.8436V18.2941H16.3142V17.7647ZM17.373 17.7647H17.9024V18.2941H17.373V17.7647ZM17.9024 17.7647H18.4318V18.2941H17.9024V17.7647ZM17.9024 17.2353H18.4318V17.7647H17.9024V17.2353ZM18.4318 17.2353H18.9612V17.7647H18.4318V17.2353ZM18.9612 17.2353H19.4906V17.7647H18.9612V17.2353ZM19.4906 17.2353H20.0201V17.7647H19.4906V17.2353ZM17.373 17.2353H17.9024V17.7647H17.373V17.2353ZM17.373 18.2941H17.9024V18.8235H17.373V18.2941ZM17.9024 18.2941H18.4318V18.8235H17.9024V18.2941ZM18.4318 18.2941H18.9612V18.8235H18.4318V18.2941ZM18.9612 18.2941H19.4906V18.8235H18.9612V18.2941ZM19.4906 18.2941H20.0201V18.8235H19.4906V18.2941ZM19.4906 17.7647H20.0201V18.2941H19.4906V17.7647ZM18.9612 17.7647H19.4906V18.2941H18.9612V17.7647ZM18.4318 17.7647H18.9612V18.2941H18.4318V17.7647ZM20.5495 17.7647H21.0789V18.2941H20.5495V17.7647ZM20.0201 17.7647H20.5495V18.2941H20.0201V17.7647ZM20.0201 18.2941H20.5495V18.8235H20.0201V18.2941ZM20.5495 18.2941H21.0789V18.8235H20.5495V18.2941ZM19.4906 18.8235H20.0201V19.3529H19.4906V18.8235ZM18.9612 18.8235H19.4906V19.3529H18.9612V18.8235ZM20.0201 18.8235H20.5495V19.3529H20.0201V18.8235ZM20.5495 18.8235H21.0789V19.3529H20.5495V18.8235ZM21.0789 18.8235H21.6083V19.3529H21.0789V18.8235ZM21.0789 19.3529H21.6083V19.8824H21.0789V19.3529ZM21.0789 19.8824H21.6083V20.4118H21.0789V19.8824ZM20.5495 19.8824H21.0789V20.4118H20.5495V19.8824ZM20.5495 19.3529H21.0789V19.8824H20.5495V19.3529ZM20.0201 19.3529H20.5495V19.8824H20.0201V19.3529ZM20.0201 19.8824H20.5495V20.4118H20.0201V19.8824ZM19.4906 19.3529H20.0201V19.8824H19.4906V19.3529ZM19.4906 19.8824H20.0201V20.4118H19.4906V19.8824ZM18.9612 19.8824H19.4906V20.4118H18.9612V19.8824ZM18.9612 20.4118H19.4906V20.9412H18.9612V20.4118ZM19.4906 20.4118H20.0201V20.9412H19.4906V20.4118ZM19.4906 20.9412H20.0201V21.4706H19.4906V20.9412ZM20.0201 20.9412H20.5495V21.4706H20.0201V20.9412ZM20.0201 20.4118H20.5495V20.9412H20.0201V20.4118ZM20.5495 20.4118H21.0789V20.9412H20.5495V20.4118ZM20.5495 20.9412H21.0789V21.4706H20.5495V20.9412ZM19.4906 21.4706H20.0201V22H19.4906V21.4706ZM18.9612 21.4706H19.4906V22H18.9612V21.4706ZM18.9612 20.9412H19.4906V21.4706H18.9612V20.9412ZM18.4318 20.9412H18.9612V21.4706H18.4318V20.9412ZM17.9024 20.9412H18.4318V21.4706H17.9024V20.9412ZM17.373 20.9412H17.9024V21.4706H17.373V20.9412ZM17.373 20.4118H17.9024V20.9412H17.373V20.4118ZM17.9024 20.4118H18.4318V20.9412H17.9024V20.4118ZM18.4318 20.4118H18.9612V20.9412H18.4318V20.4118ZM18.4318 21.4706H18.9612V22H18.4318V21.4706ZM17.9024 21.4706H18.4318V22H17.9024V21.4706ZM17.373 21.4706H17.9024V22H17.373V21.4706ZM16.8436 21.4706H17.373V22H16.8436V21.4706ZM16.3142 21.4706H16.8436V22H16.3142V21.4706ZM16.3142 20.9412H16.8436V21.4706H16.3142V20.9412ZM16.8436 20.9412H17.373V21.4706H16.8436V20.9412ZM16.8436 20.4118H17.373V20.9412H16.8436V20.4118ZM16.3142 20.4118H16.8436V20.9412H16.3142V20.4118ZM15.7848 20.9412H16.3142V21.4706H15.7848V20.9412ZM15.2553 20.9412H15.7848V21.4706H15.2553V20.9412ZM15.2553 20.4118H15.7848V20.9412H15.2553V20.4118ZM15.7848 20.4118H16.3142V20.9412H15.7848V20.4118ZM16.3142 19.8824H16.8436V20.4118H16.3142V19.8824ZM16.8436 19.8824H17.373V20.4118H16.8436V19.8824ZM16.3142 19.3529H16.8436V19.8824H16.3142V19.3529ZM15.7848 19.3529H16.3142V19.8824H15.7848V19.3529ZM15.2553 19.3529H15.7848V19.8824H15.2553V19.3529ZM14.7259 19.3529H15.2553V19.8824H14.7259V19.3529ZM14.7259 19.8824H15.2553V20.4118H14.7259V19.8824ZM15.2553 19.8824H15.7848V20.4118H15.2553V19.8824ZM15.7848 19.8824H16.3142V20.4118H15.7848V19.8824ZM21.0789 15.6471H21.6083V16.1765H21.0789V15.6471ZM20.5495 14.5882H21.0789V15.1176H20.5495V14.5882ZM21.0789 16.1765H21.6083V16.7059H21.0789V16.1765ZM20.5495 16.1765H21.0789V16.7059H20.5495V16.1765ZM20.0201 16.1765H20.5495V16.7059H20.0201V16.1765ZM19.4906 16.1765H20.0201V16.7059H19.4906V16.1765ZM18.9612 15.6471H19.4906V16.1765H18.9612V15.6471ZM23.368 14.5882H23.8974V15.1176H23.368V14.5882ZM23.368 15.1176H23.8974V15.6471H23.368V15.1176ZM23.368 15.6471H23.8974V16.1765H23.368V15.6471ZM23.368 16.1765H23.8974V16.7059H23.368V16.1765ZM23.368 16.7059H23.8974V17.2353H23.368V16.7059ZM22.8386 16.7059H23.368V17.2353H22.8386V16.7059ZM22.8386 16.1765H23.368V16.7059H22.8386V16.1765ZM22.8386 15.6471H23.368V16.1765H22.8386V15.6471ZM22.8386 15.1176H23.368V15.6471H22.8386V15.1176ZM22.8386 14.5882H23.368V15.1176H22.8386V14.5882ZM22.8386 19.8824H23.368V20.4118H22.8386V19.8824ZM22.8386 19.3529H23.368V19.8824H22.8386V19.3529ZM22.8386 18.8235H23.368V19.3529H22.8386V18.8235ZM22.8386 18.2941H23.368V18.8235H22.8386V18.2941ZM23.368 17.7647H23.8974V18.2941H23.368V17.7647ZM23.368 17.2353H23.8974V17.7647H23.368V17.2353ZM22.8386 17.2353H23.368V17.7647H22.8386V17.2353ZM22.8386 17.7647H23.368V18.2941H22.8386V17.7647ZM22.8386 20.4118H23.368V20.9412H22.8386V20.4118ZM22.8386 20.9412H23.368V21.4706H22.8386V20.9412ZM22.8386 21.4706H23.368V22H22.8386V21.4706ZM24.4268 14.5882H24.9562V15.1176H24.4268V14.5882ZM24.4268 15.1176H24.9562V15.6471H24.4268V15.1176ZM24.4268 15.6471H24.9562V16.1765H24.4268V15.6471ZM24.4268 16.1765H24.9562V16.7059H24.4268V16.1765ZM24.4268 16.7059H24.9562V17.2353H24.4268V16.7059ZM24.4268 17.2353H24.9562V17.7647H24.4268V17.2353ZM24.4268 17.7647H24.9562V18.2941H24.4268V17.7647ZM24.4268 18.2941H24.9562V18.8235H24.4268V18.2941ZM24.4268 18.8235H24.9562V19.3529H24.4268V18.8235ZM24.4268 19.3529H24.9562V19.8824H24.4268V19.3529ZM24.4268 19.8824H24.9562V20.4118H24.4268V19.8824ZM24.4268 20.4118H24.9562V20.9412H24.4268V20.4118ZM24.4268 20.9412H24.9562V21.4706H24.4268V20.9412ZM24.4268 21.4706H24.9562V22H24.4268V21.4706ZM23.8974 21.4706H24.4268V22H23.8974V21.4706ZM23.368 21.4706H23.8974V22H23.368V21.4706ZM23.368 20.9412H23.8974V21.4706H23.368V20.9412ZM23.8974 20.9412H24.4268V21.4706H23.8974V20.9412ZM23.8974 20.4118H24.4268V20.9412H23.8974V20.4118ZM23.368 19.8824H23.8974V20.4118H23.368V19.8824ZM23.368 19.3529H23.8974V19.8824H23.368V19.3529ZM23.368 18.8235H23.8974V19.3529H23.368V18.8235ZM23.8974 18.8235H24.4268V19.3529H23.8974V18.8235ZM23.8974 19.3529H24.4268V19.8824H23.8974V19.3529ZM23.8974 19.8824H24.4268V20.4118H23.8974V19.8824ZM23.368 20.4118H23.8974V20.9412H23.368V20.4118ZM23.8974 18.2941H24.4268V18.8235H23.8974V18.2941ZM23.8974 17.7647H24.4268V18.2941H23.8974V17.7647ZM23.8974 17.2353H24.4268V17.7647H23.8974V17.2353ZM23.368 18.2941H23.8974V18.8235H23.368V18.2941ZM23.8974 16.7059H24.4268V17.2353H23.8974V16.7059ZM23.8974 16.1765H24.4268V16.7059H23.8974V16.1765ZM23.8974 15.6471H24.4268V16.1765H23.8974V15.6471ZM23.8974 15.1176H24.4268V15.6471H23.8974V15.1176ZM23.8974 14.5882H24.4268V15.1176H23.8974V14.5882ZM24.4268 11.4118H24.9562V11.9412H24.4268V11.4118ZM23.8974 11.9412H24.4268V12.4706H23.8974V11.9412ZM23.8974 10.8824H24.4268V11.4118H23.8974V10.8824ZM23.368 11.4118H23.8974V11.9412H23.368V11.4118ZM23.8974 11.4118H24.4268V11.9412H23.8974V11.4118ZM23.368 10.8824H23.8974V11.4118H23.368V10.8824ZM23.368 11.9412H23.8974V12.4706H23.368V11.9412ZM24.4268 11.9412H24.9562V12.4706H24.4268V11.9412ZM22.8386 11.4118H23.368V11.9412H22.8386V11.4118ZM22.8386 11.9412H23.368V12.4706H22.8386V11.9412ZM23.368 12.4706H23.8974V13H23.368V12.4706ZM23.8974 12.4706H24.4268V13H23.8974V12.4706ZM22.8386 10.8824H23.368V11.4118H22.8386V10.8824ZM24.4268 10.8824H24.9562V11.4118H24.4268V10.8824ZM24.4268 12.4706H24.9562V13H24.4268V12.4706ZM22.8386 12.4706H23.368V13H22.8386V12.4706ZM32.5405 14.0588H33.0699V14.5882H32.5405V14.0588ZM32.0111 14.0588H32.5405V14.5882H32.0111V14.0588ZM31.4817 14.0588H32.0111V14.5882H31.4817V14.0588ZM30.9523 14.0588H31.4817V14.5882H30.9523V14.0588ZM30.4229 14.5882H30.9523V15.1176H30.4229V14.5882ZM30.4229 15.1176H30.9523V15.6471H30.4229V15.1176ZM30.9523 15.1176H31.4817V15.6471H30.9523V15.1176ZM31.4817 15.1176H32.0111V15.6471H31.4817V15.1176ZM31.4817 14.5882H32.0111V15.1176H31.4817V14.5882ZM30.9523 14.5882H31.4817V15.1176H30.9523V14.5882ZM29.8935 14.5882H30.4229V15.1176H29.8935V14.5882ZM29.8935 14.0588H30.4229V14.5882H29.8935V14.0588ZM29.364 14.0588H29.8935V14.5882H29.364V14.0588ZM28.8346 14.0588H29.364V14.5882H28.8346V14.0588ZM28.3052 14.0588H28.8346V14.5882H28.3052V14.0588ZM27.7758 14.0588H28.3052V14.5882H27.7758V14.0588ZM27.7758 14.5882H28.3052V15.1176H27.7758V14.5882ZM27.7758 15.1176H28.3052V15.6471H27.7758V15.1176ZM28.3052 15.1176H28.8346V15.6471H28.3052V15.1176ZM28.8346 15.1176H29.364V15.6471H28.8346V15.1176ZM29.364 15.1176H29.8935V15.6471H29.364V15.1176ZM29.8935 15.1176H30.4229V15.6471H29.8935V15.1176ZM32.0111 14.5882H32.5405V15.1176H32.0111V14.5882ZM32.5405 14.5882H33.0699V15.1176H32.5405V14.5882ZM32.5405 15.1176H33.0699V15.6471H32.5405V15.1176ZM32.0111 15.1176H32.5405V15.6471H32.0111V15.1176ZM29.364 14.5882H29.8935V15.1176H29.364V14.5882ZM28.8346 14.5882H29.364V15.1176H28.8346V14.5882ZM28.3052 14.5882H28.8346V15.1176H28.3052V14.5882ZM27.2464 14.5882H27.7758V15.1176H27.2464V14.5882ZM27.2464 15.1176H27.7758V15.6471H27.2464V15.1176ZM26.717 15.1176H27.2464V15.6471H26.717V15.1176ZM26.717 14.5882H27.2464V15.1176H26.717V14.5882ZM28.3052 15.6471H28.8346V16.1765H28.3052V15.6471ZM27.7758 15.6471H28.3052V16.1765H27.7758V15.6471ZM27.2464 15.6471H27.7758V16.1765H27.2464V15.6471ZM26.717 15.6471H27.2464V16.1765H26.717V15.6471ZM26.1876 15.6471H26.717V16.1765H26.1876V15.6471ZM26.1876 16.1765H26.717V16.7059H26.1876V16.1765ZM26.1876 16.7059H26.717V17.2353H26.1876V16.7059ZM26.1876 17.2353H26.717V17.7647H26.1876V17.2353ZM26.717 17.2353H27.2464V17.7647H26.717V17.2353ZM26.717 17.7647H27.2464V18.2941H26.717V17.7647ZM27.2464 17.7647H27.7758V18.2941H27.2464V17.7647ZM27.2464 17.2353H27.7758V17.7647H27.2464V17.2353ZM27.7758 17.2353H28.3052V17.7647H27.7758V17.2353ZM27.7758 16.7059H28.3052V17.2353H27.7758V16.7059ZM27.7758 16.1765H28.3052V16.7059H27.7758V16.1765ZM27.2464 16.1765H27.7758V16.7059H27.2464V16.1765ZM26.717 16.1765H27.2464V16.7059H26.717V16.1765ZM26.717 16.7059H27.2464V17.2353H26.717V16.7059ZM27.2464 16.7059H27.7758V17.2353H27.2464V16.7059ZM30.9523 15.6471H31.4817V16.1765H30.9523V15.6471ZM31.4817 15.6471H32.0111V16.1765H31.4817V15.6471ZM32.0111 15.6471H32.5405V16.1765H32.0111V15.6471ZM32.0111 16.1765H32.5405V16.7059H32.0111V16.1765ZM32.5405 16.1765H33.0699V16.7059H32.5405V16.1765ZM32.5405 15.6471H33.0699V16.1765H32.5405V15.6471ZM32.5405 16.7059H33.0699V17.2353H32.5405V16.7059ZM32.0111 16.7059H32.5405V17.2353H32.0111V16.7059ZM31.4817 16.7059H32.0111V17.2353H31.4817V16.7059ZM31.4817 16.1765H32.0111V16.7059H31.4817V16.1765ZM30.9523 16.1765H31.4817V16.7059H30.9523V16.1765ZM30.9523 16.7059H31.4817V17.2353H30.9523V16.7059ZM30.9523 17.2353H31.4817V17.7647H30.9523V17.2353ZM31.4817 17.2353H32.0111V17.7647H31.4817V17.2353ZM32.0111 17.2353H32.5405V17.7647H32.0111V17.2353ZM32.5405 17.2353H33.0699V17.7647H32.5405V17.2353ZM32.0111 17.7647H32.5405V18.2941H32.0111V17.7647ZM31.4817 17.7647H32.0111V18.2941H31.4817V17.7647ZM30.9523 17.7647H31.4817V18.2941H30.9523V17.7647ZM30.9523 18.2941H31.4817V18.8235H30.9523V18.2941ZM31.4817 18.2941H32.0111V18.8235H31.4817V18.2941ZM32.0111 18.2941H32.5405V18.8235H32.0111V18.2941ZM32.5405 17.7647H33.0699V18.2941H32.5405V17.7647ZM32.5405 18.2941H33.0699V18.8235H32.5405V18.2941ZM32.5405 18.8235H33.0699V19.3529H32.5405V18.8235ZM32.5405 19.3529H33.0699V19.8824H32.5405V19.3529ZM32.5405 19.8824H33.0699V20.4118H32.5405V19.8824ZM32.5405 20.4118H33.0699V20.9412H32.5405V20.4118ZM32.0111 20.4118H32.5405V20.9412H32.0111V20.4118ZM32.0111 20.9412H32.5405V21.4706H32.0111V20.9412ZM31.4817 20.9412H32.0111V21.4706H31.4817V20.9412ZM30.9523 20.4118H31.4817V20.9412H30.9523V20.4118ZM30.9523 19.8824H31.4817V20.4118H30.9523V19.8824ZM30.9523 19.3529H31.4817V19.8824H30.9523V19.3529ZM30.9523 18.8235H31.4817V19.3529H30.9523V18.8235ZM31.4817 18.8235H32.0111V19.3529H31.4817V18.8235ZM32.0111 18.8235H32.5405V19.3529H32.0111V18.8235ZM32.0111 19.3529H32.5405V19.8824H32.0111V19.3529ZM32.0111 19.8824H32.5405V20.4118H32.0111V19.8824ZM31.4817 20.4118H32.0111V20.9412H31.4817V20.4118ZM31.4817 19.8824H32.0111V20.4118H31.4817V19.8824ZM31.4817 19.3529H32.0111V19.8824H31.4817V19.3529ZM30.4229 19.8824H30.9523V20.4118H30.4229V19.8824ZM30.4229 20.4118H30.9523V20.9412H30.4229V20.4118ZM29.8935 20.4118H30.4229V20.9412H29.8935V20.4118ZM29.8935 20.9412H30.4229V21.4706H29.8935V20.9412ZM29.364 20.9412H29.8935V21.4706H29.364V20.9412ZM28.8346 20.9412H29.364V21.4706H28.8346V20.9412ZM28.3052 20.9412H28.8346V21.4706H28.3052V20.9412ZM27.7758 20.9412H28.3052V21.4706H27.7758V20.9412ZM27.7758 20.4118H28.3052V20.9412H27.7758V20.4118ZM28.3052 20.4118H28.8346V20.9412H28.3052V20.4118ZM28.8346 19.8824H29.364V20.4118H28.8346V19.8824ZM29.364 19.8824H29.8935V20.4118H29.364V19.8824ZM29.8935 19.8824H30.4229V20.4118H29.8935V19.8824ZM28.8346 20.4118H29.364V20.9412H28.8346V20.4118ZM29.364 20.4118H29.8935V20.9412H29.364V20.4118ZM30.9523 20.9412H31.4817V21.4706H30.9523V20.9412ZM27.7758 19.8824H28.3052V20.4118H27.7758V19.8824ZM27.7758 19.3529H28.3052V19.8824H27.7758V19.3529ZM28.3052 19.3529H28.8346V19.8824H28.3052V19.3529ZM28.3052 19.8824H28.8346V20.4118H28.3052V19.8824ZM27.2464 19.8824H27.7758V20.4118H27.2464V19.8824ZM27.2464 20.4118H27.7758V20.9412H27.2464V20.4118ZM26.717 20.4118H27.2464V20.9412H26.717V20.4118ZM26.717 19.8824H27.2464V20.4118H26.717V19.8824ZM26.717 19.3529H27.2464V19.8824H26.717V19.3529ZM26.717 18.8235H27.2464V19.3529H26.717V18.8235ZM26.1876 18.8235H26.717V19.3529H26.1876V18.8235ZM26.1876 19.3529H26.717V19.8824H26.1876V19.3529ZM26.1876 18.2941H26.717V18.8235H26.1876V18.2941ZM26.1876 17.7647H26.717V18.2941H26.1876V17.7647ZM27.7758 17.7647H28.3052V18.2941H27.7758V17.7647ZM27.7758 18.2941H28.3052V18.8235H27.7758V18.2941ZM27.7758 18.8235H28.3052V19.3529H27.7758V18.8235ZM27.2464 19.3529H27.7758V19.8824H27.2464V19.3529ZM27.2464 18.8235H27.7758V19.3529H27.2464V18.8235ZM27.2464 18.2941H27.7758V18.8235H27.2464V18.2941ZM26.717 18.2941H27.2464V18.8235H26.717V18.2941ZM32.5405 20.9412H33.0699V21.4706H32.5405V20.9412ZM32.5405 21.4706H33.0699V22H32.5405V21.4706ZM32.5405 22H33.0699V22.5294H32.5405V22ZM32.5405 22.5294H33.0699V23.0588H32.5405V22.5294ZM32.0111 22.5294H32.5405V23.0588H32.0111V22.5294ZM31.4817 22.5294H32.0111V23.0588H31.4817V22.5294ZM31.4817 22H32.0111V22.5294H31.4817V22ZM31.4817 21.4706H32.0111V22H31.4817V21.4706ZM32.0111 21.4706H32.5405V22H32.0111V21.4706ZM32.0111 22H32.5405V22.5294H32.0111V22ZM30.9523 21.4706H31.4817V22H30.9523V21.4706ZM30.9523 22H31.4817V22.5294H30.9523V22ZM30.9523 22.5294H31.4817V23.0588H30.9523V22.5294ZM30.9523 23.0588H31.4817V23.5882H30.9523V23.0588ZM30.4229 22.5294H30.9523V23.0588H30.4229V22.5294ZM30.4229 23.0588H30.9523V23.5882H30.4229V23.0588ZM31.4817 23.0588H32.0111V23.5882H31.4817V23.0588ZM32.0111 23.0588H32.5405V23.5882H32.0111V23.0588ZM32.0111 23.5882H32.5405V24.1176H32.0111V23.5882ZM31.4817 23.5882H32.0111V24.1176H31.4817V23.5882ZM30.9523 23.5882H31.4817V24.1176H30.9523V23.5882ZM26.1876 22H26.717V22.5294H26.1876V22ZM26.717 22H27.2464V22.5294H26.717V22ZM27.2464 22H27.7758V22.5294H27.2464V22ZM27.7758 22H28.3052V22.5294H27.7758V22ZM27.7758 22.5294H28.3052V23.0588H27.7758V22.5294ZM27.2464 22.5294H27.7758V23.0588H27.2464V22.5294ZM26.717 22.5294H27.2464V23.0588H26.717V22.5294ZM26.1876 22.5294H26.717V23.0588H26.1876V22.5294ZM27.7758 23.0588H28.3052V23.5882H27.7758V23.0588ZM28.3052 23.0588H28.8346V23.5882H28.3052V23.0588ZM27.2464 23.0588H27.7758V23.5882H27.2464V23.0588ZM28.3052 22.5294H28.8346V23.0588H28.3052V22.5294ZM26.717 23.0588H27.2464V23.5882H26.717V23.0588ZM26.717 23.5882H27.2464V24.1176H26.717V23.5882ZM27.2464 23.5882H27.7758V24.1176H27.2464V23.5882ZM27.7758 23.5882H28.3052V24.1176H27.7758V23.5882ZM28.3052 23.5882H28.8346V24.1176H28.3052V23.5882ZM28.8346 23.5882H29.364V24.1176H28.8346V23.5882ZM29.364 23.5882H29.8935V24.1176H29.364V23.5882ZM29.8935 23.5882H30.4229V24.1176H29.8935V23.5882ZM30.4229 23.5882H30.9523V24.1176H30.4229V23.5882ZM29.8935 23.0588H30.4229V23.5882H29.8935V23.0588ZM29.364 23.0588H29.8935V23.5882H29.364V23.0588ZM28.8346 23.0588H29.364V23.5882H28.8346V23.0588ZM28.3052 24.1176H28.8346V24.6471H28.3052V24.1176ZM27.7758 24.1176H28.3052V24.6471H27.7758V24.1176ZM28.8346 24.1176H29.364V24.6471H28.8346V24.1176ZM29.364 24.1176H29.8935V24.6471H29.364V24.1176ZM29.8935 24.1176H30.4229V24.6471H29.8935V24.1176ZM30.4229 24.1176H30.9523V24.6471H30.4229V24.1176ZM30.9523 24.1176H31.4817V24.6471H30.9523V24.1176ZM30.4229 14.0588H30.9523V14.5882H30.4229V14.0588ZM30.4229 19.3529H30.9523V19.8824H30.4229V19.3529ZM34.3002 14.0588H34.8296V14.5882H34.3002V14.0588ZM34.8296 14.0588H35.3591V14.5882H34.8296V14.0588ZM35.3591 14.0588H35.8885V14.5882H35.3591V14.0588ZM34.3002 15.1176H34.8296V15.6471H34.3002V15.1176ZM34.3002 14.5882H34.8296V15.1176H34.3002V14.5882ZM35.3591 21.4706H35.8885V22H35.3591V21.4706ZM34.8296 21.4706H35.3591V22H34.8296V21.4706ZM34.3002 20.9412H34.8296V21.4706H34.3002V20.9412ZM34.3002 20.4118H34.8296V20.9412H34.3002V20.4118ZM34.3002 21.4706H34.8296V22H34.3002V21.4706ZM36.9473 14.0588H37.4767V14.5882H36.9473V14.0588ZM35.8885 14.0588H36.4179V14.5882H35.8885V14.0588ZM37.4767 14.0588H38.0061V14.5882H37.4767V14.0588ZM38.0061 14.0588H38.5355V14.5882H38.0061V14.0588ZM38.5355 14.0588H39.0649V14.5882H38.5355V14.0588ZM39.0649 14.0588H39.5943V14.5882H39.0649V14.0588ZM39.5943 14.5882H40.1238V15.1176H39.5943V14.5882ZM39.0649 14.5882H39.5943V15.1176H39.0649V14.5882ZM39.0649 15.1176H39.5943V15.6471H39.0649V15.1176ZM40.1238 14.5882H40.6532V15.1176H40.1238V14.5882ZM40.1238 15.1176H40.6532V15.6471H40.1238V15.1176ZM39.5943 15.1176H40.1238V15.6471H39.5943V15.1176ZM39.0649 15.6471H39.5943V16.1765H39.0649V15.6471ZM38.5355 15.6471H39.0649V16.1765H38.5355V15.6471ZM39.5943 15.6471H40.1238V16.1765H39.5943V15.6471ZM40.1238 15.6471H40.6532V16.1765H40.1238V15.6471ZM40.6532 15.6471H41.1826V16.1765H40.6532V15.6471ZM40.6532 16.1765H41.1826V16.7059H40.6532V16.1765ZM40.6532 16.7059H41.1826V17.2353H40.6532V16.7059ZM40.6532 17.2353H41.1826V17.7647H40.6532V17.2353ZM40.6532 17.7647H41.1826V18.2941H40.6532V17.7647ZM40.6532 18.2941H41.1826V18.8235H40.6532V18.2941ZM40.6532 18.8235H41.1826V19.3529H40.6532V18.8235ZM40.6532 19.3529H41.1826V19.8824H40.6532V19.3529ZM40.6532 19.8824H41.1826V20.4118H40.6532V19.8824ZM40.1238 19.8824H40.6532V20.4118H40.1238V19.8824ZM40.1238 20.4118H40.6532V20.9412H40.1238V20.4118ZM40.1238 20.9412H40.6532V21.4706H40.1238V20.9412ZM39.5943 20.9412H40.1238V21.4706H39.5943V20.9412ZM39.0649 20.9412H39.5943V21.4706H39.0649V20.9412ZM39.0649 19.8824H39.5943V20.4118H39.0649V19.8824ZM39.0649 20.4118H39.5943V20.9412H39.0649V20.4118ZM39.5943 20.4118H40.1238V20.9412H39.5943V20.4118ZM39.5943 19.8824H40.1238V20.4118H39.5943V19.8824ZM39.5943 19.3529H40.1238V19.8824H39.5943V19.3529ZM39.0649 19.3529H39.5943V19.8824H39.0649V19.3529ZM39.0649 18.8235H39.5943V19.3529H39.0649V18.8235ZM39.0649 18.2941H39.5943V18.8235H39.0649V18.2941ZM39.0649 17.7647H39.5943V18.2941H39.0649V17.7647ZM39.0649 17.2353H39.5943V17.7647H39.0649V17.2353ZM39.0649 16.7059H39.5943V17.2353H39.0649V16.7059ZM39.0649 16.1765H39.5943V16.7059H39.0649V16.1765ZM39.5943 16.1765H40.1238V16.7059H39.5943V16.1765ZM39.5943 16.7059H40.1238V17.2353H39.5943V16.7059ZM39.5943 17.2353H40.1238V17.7647H39.5943V17.2353ZM39.5943 17.7647H40.1238V18.2941H39.5943V17.7647ZM39.5943 18.2941H40.1238V18.8235H39.5943V18.2941ZM39.5943 18.8235H40.1238V19.3529H39.5943V18.8235ZM40.1238 19.3529H40.6532V19.8824H40.1238V19.3529ZM40.1238 18.8235H40.6532V19.3529H40.1238V18.8235ZM40.1238 18.2941H40.6532V18.8235H40.1238V18.2941ZM40.1238 17.7647H40.6532V18.2941H40.1238V17.7647ZM40.1238 17.2353H40.6532V17.7647H40.1238V17.2353ZM40.1238 16.7059H40.6532V17.2353H40.1238V16.7059ZM40.1238 16.1765H40.6532V16.7059H40.1238V16.1765ZM39.0649 21.4706H39.5943V22H39.0649V21.4706ZM35.8885 21.4706H36.4179V22H35.8885V21.4706ZM35.8885 20.9412H36.4179V21.4706H35.8885V20.9412ZM35.3591 20.9412H35.8885V21.4706H35.3591V20.9412ZM34.8296 20.9412H35.3591V21.4706H34.8296V20.9412ZM34.8296 16.7059H35.3591V17.2353H34.8296V16.7059ZM34.8296 16.1765H35.3591V16.7059H34.8296V16.1765ZM34.3002 15.6471H34.8296V16.1765H34.3002V15.6471ZM34.8296 15.1176H35.3591V15.6471H34.8296V15.1176ZM35.3591 14.5882H35.8885V15.1176H35.3591V14.5882ZM35.8885 14.5882H36.4179V15.1176H35.8885V14.5882ZM36.4179 14.5882H36.9473V15.1176H36.4179V14.5882ZM36.4179 15.1176H36.9473V15.6471H36.4179V15.1176ZM36.4179 15.6471H36.9473V16.1765H36.4179V15.6471ZM35.8885 15.6471H36.4179V16.1765H35.8885V15.6471ZM35.3591 15.6471H35.8885V16.1765H35.3591V15.6471ZM35.8885 16.1765H36.4179V16.7059H35.8885V16.1765ZM35.8885 16.7059H36.4179V17.2353H35.8885V16.7059ZM35.8885 17.2353H36.4179V17.7647H35.8885V17.2353ZM35.8885 20.4118H36.4179V20.9412H35.8885V20.4118ZM35.3591 20.4118H35.8885V20.9412H35.3591V20.4118ZM35.3591 16.7059H35.8885V17.2353H35.3591V16.7059ZM35.3591 16.1765H35.8885V16.7059H35.3591V16.1765ZM35.3591 15.1176H35.8885V15.6471H35.3591V15.1176ZM35.8885 15.1176H36.4179V15.6471H35.8885V15.1176ZM36.9473 14.5882H37.4767V15.1176H36.9473V14.5882ZM37.4767 14.5882H38.0061V15.1176H37.4767V14.5882ZM38.0061 14.5882H38.5355V15.1176H38.0061V14.5882ZM38.5355 14.5882H39.0649V15.1176H38.5355V14.5882ZM38.5355 15.1176H39.0649V15.6471H38.5355V15.1176ZM38.0061 15.1176H38.5355V15.6471H38.0061V15.1176ZM37.4767 15.1176H38.0061V15.6471H37.4767V15.1176ZM36.9473 15.1176H37.4767V15.6471H36.9473V15.1176ZM34.8296 14.5882H35.3591V15.1176H34.8296V14.5882ZM34.8296 20.4118H35.3591V20.9412H34.8296V20.4118ZM34.8296 15.6471H35.3591V16.1765H34.8296V15.6471ZM34.3002 16.1765H34.8296V16.7059H34.3002V16.1765ZM34.3002 16.7059H34.8296V17.2353H34.3002V16.7059ZM34.3002 19.8824H34.8296V20.4118H34.3002V19.8824ZM34.8296 19.8824H35.3591V20.4118H34.8296V19.8824ZM35.3591 19.8824H35.8885V20.4118H35.3591V19.8824ZM35.8885 19.8824H36.4179V20.4118H35.8885V19.8824ZM35.3591 17.2353H35.8885V17.7647H35.3591V17.2353ZM34.8296 17.2353H35.3591V17.7647H34.8296V17.2353ZM34.3002 17.2353H34.8296V17.7647H34.3002V17.2353ZM34.3002 17.7647H34.8296V18.2941H34.3002V17.7647ZM34.3002 18.2941H34.8296V18.8235H34.3002V18.2941ZM34.3002 18.8235H34.8296V19.3529H34.3002V18.8235ZM34.8296 18.8235H35.3591V19.3529H34.8296V18.8235ZM34.8296 19.3529H35.3591V19.8824H34.8296V19.3529ZM35.3591 19.3529H35.8885V19.8824H35.3591V19.3529ZM34.3002 19.3529H34.8296V19.8824H34.3002V19.3529ZM35.8885 19.3529H36.4179V19.8824H35.8885V19.3529ZM35.8885 18.8235H36.4179V19.3529H35.8885V18.8235ZM35.8885 18.2941H36.4179V18.8235H35.8885V18.2941ZM35.8885 17.7647H36.4179V18.2941H35.8885V17.7647ZM35.3591 17.7647H35.8885V18.2941H35.3591V17.7647ZM34.8296 17.7647H35.3591V18.2941H34.8296V17.7647ZM34.8296 18.2941H35.3591V18.8235H34.8296V18.2941ZM35.3591 18.8235H35.8885V19.3529H35.3591V18.8235ZM35.3591 18.2941H35.8885V18.8235H35.3591V18.2941ZM39.5943 21.4706H40.1238V22H39.5943V21.4706ZM40.1238 21.4706H40.6532V22H40.1238V21.4706ZM40.6532 21.4706H41.1826V22H40.6532V21.4706ZM40.6532 20.9412H41.1826V21.4706H40.6532V20.9412ZM40.6532 20.4118H41.1826V20.9412H40.6532V20.4118ZM47.8795 14.0588H48.4089V14.5882H47.8795V14.0588ZM48.4089 14.0588H48.9383V14.5882H48.4089V14.0588ZM47.3501 14.0588H47.8795V14.5882H47.3501V14.0588ZM48.9383 14.0588H49.4678V14.5882H48.9383V14.0588ZM49.4678 14.0588H49.9972V14.5882H49.4678V14.0588ZM49.9972 14.0588H50.5266V14.5882H49.9972V14.0588ZM50.5266 14.0588H51.056V14.5882H50.5266V14.0588ZM51.056 14.5882H51.5854V15.1176H51.056V14.5882ZM50.5266 14.5882H51.056V15.1176H50.5266V14.5882ZM50.5266 15.1176H51.056V15.6471H50.5266V15.1176ZM51.5854 14.5882H52.1148V15.1176H51.5854V14.5882ZM51.5854 15.1176H52.1148V15.6471H51.5854V15.1176ZM51.056 15.1176H51.5854V15.6471H51.056V15.1176ZM50.5266 15.6471H51.056V16.1765H50.5266V15.6471ZM49.9972 15.6471H50.5266V16.1765H49.9972V15.6471ZM51.056 15.6471H51.5854V16.1765H51.056V15.6471ZM51.5854 15.6471H52.1148V16.1765H51.5854V15.6471ZM52.1148 15.6471H52.6442V16.1765H52.1148V15.6471ZM52.1148 16.1765H52.6442V16.7059H52.1148V16.1765ZM52.1148 16.7059H52.6442V17.2353H52.1148V16.7059ZM52.1148 17.2353H52.6442V17.7647H52.1148V17.2353ZM52.1148 17.7647H52.6442V18.2941H52.1148V17.7647ZM52.1148 18.2941H52.6442V18.8235H52.1148V18.2941ZM52.1148 18.8235H52.6442V19.3529H52.1148V18.8235ZM52.1148 19.3529H52.6442V19.8824H52.1148V19.3529ZM52.1148 19.8824H52.6442V20.4118H52.1148V19.8824ZM51.5854 19.8824H52.1148V20.4118H51.5854V19.8824ZM51.5854 20.4118H52.1148V20.9412H51.5854V20.4118ZM51.5854 20.9412H52.1148V21.4706H51.5854V20.9412ZM51.056 20.9412H51.5854V21.4706H51.056V20.9412ZM50.5266 20.9412H51.056V21.4706H50.5266V20.9412ZM49.9972 20.4118H50.5266V20.9412H49.9972V20.4118ZM49.9972 19.8824H50.5266V20.4118H49.9972V19.8824ZM50.5266 19.8824H51.056V20.4118H50.5266V19.8824ZM50.5266 20.4118H51.056V20.9412H50.5266V20.4118ZM51.056 20.4118H51.5854V20.9412H51.056V20.4118ZM51.056 19.8824H51.5854V20.4118H51.056V19.8824ZM51.056 19.3529H51.5854V19.8824H51.056V19.3529ZM50.5266 19.3529H51.056V19.8824H50.5266V19.3529ZM50.5266 18.8235H51.056V19.3529H50.5266V18.8235ZM50.5266 18.2941H51.056V18.8235H50.5266V18.2941ZM50.5266 17.7647H51.056V18.2941H50.5266V17.7647ZM50.5266 17.2353H51.056V17.7647H50.5266V17.2353ZM50.5266 16.7059H51.056V17.2353H50.5266V16.7059ZM50.5266 16.1765H51.056V16.7059H50.5266V16.1765ZM51.056 16.1765H51.5854V16.7059H51.056V16.1765ZM51.056 16.7059H51.5854V17.2353H51.056V16.7059ZM51.056 17.2353H51.5854V17.7647H51.056V17.2353ZM51.056 17.7647H51.5854V18.2941H51.056V17.7647ZM51.056 18.2941H51.5854V18.8235H51.056V18.2941ZM51.056 18.8235H51.5854V19.3529H51.056V18.8235ZM51.5854 19.3529H52.1148V19.8824H51.5854V19.3529ZM51.5854 18.8235H52.1148V19.3529H51.5854V18.8235ZM51.5854 18.2941H52.1148V18.8235H51.5854V18.2941ZM51.5854 17.7647H52.1148V18.2941H51.5854V17.7647ZM51.5854 17.2353H52.1148V17.7647H51.5854V17.2353ZM51.5854 16.7059H52.1148V17.2353H51.5854V16.7059ZM51.5854 16.1765H52.1148V16.7059H51.5854V16.1765ZM49.9972 20.9412H50.5266V21.4706H49.9972V20.9412ZM49.9972 21.4706H50.5266V22H49.9972V21.4706ZM50.5266 21.4706H51.056V22H50.5266V21.4706ZM49.4678 21.4706H49.9972V22H49.4678V21.4706ZM48.9383 21.4706H49.4678V22H48.9383V21.4706ZM48.4089 21.4706H48.9383V22H48.4089V21.4706ZM47.8795 21.4706H48.4089V22H47.8795V21.4706ZM47.3501 21.4706H47.8795V22H47.3501V21.4706ZM47.3501 20.9412H47.8795V21.4706H47.3501V20.9412ZM46.8207 20.9412H47.3501V21.4706H46.8207V20.9412ZM46.2913 20.9412H46.8207V21.4706H46.2913V20.9412ZM46.2913 20.4118H46.8207V20.9412H46.2913V20.4118ZM45.7619 19.8824H46.2913V20.4118H45.7619V19.8824ZM46.2913 19.8824H46.8207V20.4118H46.2913V19.8824ZM45.7619 19.3529H46.2913V19.8824H45.7619V19.3529ZM45.7619 18.8235H46.2913V19.3529H45.7619V18.8235ZM45.7619 18.2941H46.2913V18.8235H45.7619V18.2941ZM45.7619 17.7647H46.2913V18.2941H45.7619V17.7647ZM45.7619 17.2353H46.2913V17.7647H45.7619V17.2353ZM45.7619 16.7059H46.2913V17.2353H45.7619V16.7059ZM46.2913 16.7059H46.8207V17.2353H46.2913V16.7059ZM46.2913 16.1765H46.8207V16.7059H46.2913V16.1765ZM45.7619 16.1765H46.2913V16.7059H45.7619V16.1765ZM45.7619 15.6471H46.2913V16.1765H45.7619V15.6471ZM46.2913 15.6471H46.8207V16.1765H46.2913V15.6471ZM46.2913 15.1176H46.8207V15.6471H46.2913V15.1176ZM46.2913 14.5882H46.8207V15.1176H46.2913V14.5882ZM46.8207 14.5882H47.3501V15.1176H46.8207V14.5882ZM47.3501 14.5882H47.8795V15.1176H47.3501V14.5882ZM47.8795 14.5882H48.4089V15.1176H47.8795V14.5882ZM47.8795 15.1176H48.4089V15.6471H47.8795V15.1176ZM47.8795 15.6471H48.4089V16.1765H47.8795V15.6471ZM47.3501 15.6471H47.8795V16.1765H47.3501V15.6471ZM46.8207 15.6471H47.3501V16.1765H46.8207V15.6471ZM47.3501 16.1765H47.8795V16.7059H47.3501V16.1765ZM47.3501 16.7059H47.8795V17.2353H47.3501V16.7059ZM47.3501 17.2353H47.8795V17.7647H47.3501V17.2353ZM47.3501 17.7647H47.8795V18.2941H47.3501V17.7647ZM47.3501 18.2941H47.8795V18.8235H47.3501V18.2941ZM47.3501 18.8235H47.8795V19.3529H47.3501V18.8235ZM47.3501 19.3529H47.8795V19.8824H47.3501V19.3529ZM47.3501 19.8824H47.8795V20.4118H47.3501V19.8824ZM47.8795 19.8824H48.4089V20.4118H47.8795V19.8824ZM47.8795 20.4118H48.4089V20.9412H47.8795V20.4118ZM48.4089 20.4118H48.9383V20.9412H48.4089V20.4118ZM48.9383 20.4118H49.4678V20.9412H48.9383V20.4118ZM49.4678 20.4118H49.9972V20.9412H49.4678V20.4118ZM49.4678 20.9412H49.9972V21.4706H49.4678V20.9412ZM48.9383 20.9412H49.4678V21.4706H48.9383V20.9412ZM48.4089 20.9412H48.9383V21.4706H48.4089V20.9412ZM47.8795 20.9412H48.4089V21.4706H47.8795V20.9412ZM47.3501 20.4118H47.8795V20.9412H47.3501V20.4118ZM46.8207 20.4118H47.3501V20.9412H46.8207V20.4118ZM46.8207 19.8824H47.3501V20.4118H46.8207V19.8824ZM46.8207 19.3529H47.3501V19.8824H46.8207V19.3529ZM46.8207 18.8235H47.3501V19.3529H46.8207V18.8235ZM46.2913 18.8235H46.8207V19.3529H46.2913V18.8235ZM46.2913 19.3529H46.8207V19.8824H46.2913V19.3529ZM46.2913 18.2941H46.8207V18.8235H46.2913V18.2941ZM46.2913 17.7647H46.8207V18.2941H46.2913V17.7647ZM46.2913 17.2353H46.8207V17.7647H46.2913V17.2353ZM46.8207 17.2353H47.3501V17.7647H46.8207V17.2353ZM46.8207 17.7647H47.3501V18.2941H46.8207V17.7647ZM46.8207 18.2941H47.3501V18.8235H46.8207V18.2941ZM46.8207 16.7059H47.3501V17.2353H46.8207V16.7059ZM46.8207 16.1765H47.3501V16.7059H46.8207V16.1765ZM46.8207 15.1176H47.3501V15.6471H46.8207V15.1176ZM47.3501 15.1176H47.8795V15.6471H47.3501V15.1176ZM48.4089 14.5882H48.9383V15.1176H48.4089V14.5882ZM48.9383 14.5882H49.4678V15.1176H48.9383V14.5882ZM49.4678 14.5882H49.9972V15.1176H49.4678V14.5882ZM49.9972 14.5882H50.5266V15.1176H49.9972V14.5882ZM49.9972 15.1176H50.5266V15.6471H49.9972V15.1176ZM49.4678 15.1176H49.9972V15.6471H49.4678V15.1176ZM48.9383 15.1176H49.4678V15.6471H48.9383V15.1176ZM48.4089 15.1176H48.9383V15.6471H48.4089V15.1176ZM60.7569 22H60.2275V21.4706H60.7569V22ZM60.2275 22H59.6981V21.4706H60.2275V22ZM59.6981 22H59.1686V21.4706H59.6981V22ZM60.7569 20.9412H60.2275V20.4118H60.7569V20.9412ZM60.7569 21.4706H60.2275V20.9412H60.7569V21.4706ZM59.6981 14.5882H59.1686V14.0588H59.6981V14.5882ZM60.2275 14.5882H59.6981V14.0588H60.2275V14.5882ZM60.7569 15.1176H60.2275V14.5882H60.7569V15.1176ZM60.7569 15.6471H60.2275V15.1176H60.7569V15.6471ZM60.7569 14.5882H60.2275V14.0588H60.7569V14.5882ZM58.1098 22H57.5804V21.4706H58.1098V22ZM59.1686 22H58.6392V21.4706H59.1686V22ZM57.5804 22H57.051V21.4706H57.5804V22ZM57.051 22H56.5216V21.4706H57.051V22ZM56.5216 22H55.9922V21.4706H56.5216V22ZM55.9922 22H55.4628V21.4706H55.9922V22ZM55.4628 21.4706H54.9334V20.9412H55.4628V21.4706ZM55.9922 21.4706H55.4628V20.9412H55.9922V21.4706ZM55.9922 20.9412H55.4628V20.4118H55.9922V20.9412ZM54.9334 21.4706H54.4039V20.9412H54.9334V21.4706ZM54.9334 20.9412H54.4039V20.4118H54.9334V20.9412ZM55.4628 20.9412H54.9334V20.4118H55.4628V20.9412ZM55.9922 20.4118H55.4628V19.8824H55.9922V20.4118ZM56.5216 20.4118H55.9922V19.8824H56.5216V20.4118ZM55.4628 20.4118H54.9334V19.8824H55.4628V20.4118ZM54.9334 20.4118H54.4039V19.8824H54.9334V20.4118ZM54.4039 20.4118H53.8745V19.8824H54.4039V20.4118ZM54.4039 19.8824H53.8745V19.3529H54.4039V19.8824ZM54.4039 19.3529H53.8745V18.8235H54.4039V19.3529ZM54.4039 18.8235H53.8745V18.2941H54.4039V18.8235ZM54.4039 18.2941H53.8745V17.7647H54.4039V18.2941ZM54.4039 17.7647H53.8745V17.2353H54.4039V17.7647ZM54.4039 17.2353H53.8745V16.7059H54.4039V17.2353ZM54.4039 16.7059H53.8745V16.1765H54.4039V16.7059ZM54.4039 16.1765H53.8745V15.6471H54.4039V16.1765ZM54.9334 16.1765H54.4039V15.6471H54.9334V16.1765ZM54.9334 15.6471H54.4039V15.1176H54.9334V15.6471ZM54.9334 15.1176H54.4039V14.5882H54.9334V15.1176ZM55.4628 15.1176H54.9334V14.5882H55.4628V15.1176ZM55.9922 15.1176H55.4628V14.5882H55.9922V15.1176ZM55.9922 16.1765H55.4628V15.6471H55.9922V16.1765ZM55.9922 15.6471H55.4628V15.1176H55.9922V15.6471ZM55.4628 15.6471H54.9334V15.1176H55.4628V15.6471ZM55.4628 16.1765H54.9334V15.6471H55.4628V16.1765ZM55.4628 16.7059H54.9334V16.1765H55.4628V16.7059ZM55.9922 16.7059H55.4628V16.1765H55.9922V16.7059ZM55.9922 17.2353H55.4628V16.7059H55.9922V17.2353ZM55.9922 17.7647H55.4628V17.2353H55.9922V17.7647ZM55.9922 18.2941H55.4628V17.7647H55.9922V18.2941ZM55.9922 18.8235H55.4628V18.2941H55.9922V18.8235ZM55.9922 19.3529H55.4628V18.8235H55.9922V19.3529ZM55.9922 19.8824H55.4628V19.3529H55.9922V19.8824ZM55.4628 19.8824H54.9334V19.3529H55.4628V19.8824ZM55.4628 19.3529H54.9334V18.8235H55.4628V19.3529ZM55.4628 18.8235H54.9334V18.2941H55.4628V18.8235ZM55.4628 18.2941H54.9334V17.7647H55.4628V18.2941ZM55.4628 17.7647H54.9334V17.2353H55.4628V17.7647ZM55.4628 17.2353H54.9334V16.7059H55.4628V17.2353ZM54.9334 16.7059H54.4039V16.1765H54.9334V16.7059ZM54.9334 17.2353H54.4039V16.7059H54.9334V17.2353ZM54.9334 17.7647H54.4039V17.2353H54.9334V17.7647ZM54.9334 18.2941H54.4039V17.7647H54.9334V18.2941ZM54.9334 18.8235H54.4039V18.2941H54.9334V18.8235ZM54.9334 19.3529H54.4039V18.8235H54.9334V19.3529ZM54.9334 19.8824H54.4039V19.3529H54.9334V19.8824ZM55.9922 14.5882H55.4628V14.0588H55.9922V14.5882ZM59.1686 14.5882H58.6392V14.0588H59.1686V14.5882ZM59.1686 15.1176H58.6392V14.5882H59.1686V15.1176ZM59.6981 15.1176H59.1686V14.5882H59.6981V15.1176ZM60.2275 15.1176H59.6981V14.5882H60.2275V15.1176ZM60.2275 19.3529H59.6981V18.8235H60.2275V19.3529ZM60.2275 19.8824H59.6981V19.3529H60.2275V19.8824ZM60.7569 20.4118H60.2275V19.8824H60.7569V20.4118ZM60.2275 20.9412H59.6981V20.4118H60.2275V20.9412ZM59.6981 21.4706H59.1686V20.9412H59.6981V21.4706ZM59.1686 21.4706H58.6392V20.9412H59.1686V21.4706ZM58.6392 21.4706H58.1098V20.9412H58.6392V21.4706ZM58.6392 20.9412H58.1098V20.4118H58.6392V20.9412ZM58.6392 20.4118H58.1098V19.8824H58.6392V20.4118ZM59.1686 20.4118H58.6392V19.8824H59.1686V20.4118ZM59.6981 20.4118H59.1686V19.8824H59.6981V20.4118ZM59.1686 19.8824H58.6392V19.3529H59.1686V19.8824ZM59.1686 19.3529H58.6392V18.8235H59.1686V19.3529ZM59.1686 18.8235H58.6392V18.2941H59.1686V18.8235ZM59.1686 15.6471H58.6392V15.1176H59.1686V15.6471ZM59.6981 15.6471H59.1686V15.1176H59.6981V15.6471ZM59.6981 19.3529H59.1686V18.8235H59.6981V19.3529ZM59.6981 19.8824H59.1686V19.3529H59.6981V19.8824ZM59.6981 20.9412H59.1686V20.4118H59.6981V20.9412ZM59.1686 20.9412H58.6392V20.4118H59.1686V20.9412ZM58.1098 21.4706H57.5804V20.9412H58.1098V21.4706ZM57.5804 21.4706H57.051V20.9412H57.5804V21.4706ZM57.051 21.4706H56.5216V20.9412H57.051V21.4706ZM56.5216 21.4706H55.9922V20.9412H56.5216V21.4706ZM56.5216 20.9412H55.9922V20.4118H56.5216V20.9412ZM57.051 20.9412H56.5216V20.4118H57.051V20.9412ZM57.5804 20.9412H57.051V20.4118H57.5804V20.9412ZM58.1098 20.9412H57.5804V20.4118H58.1098V20.9412ZM60.2275 21.4706H59.6981V20.9412H60.2275V21.4706ZM60.2275 15.6471H59.6981V15.1176H60.2275V15.6471ZM60.2275 20.4118H59.6981V19.8824H60.2275V20.4118ZM60.7569 19.8824H60.2275V19.3529H60.7569V19.8824ZM60.7569 19.3529H60.2275V18.8235H60.7569V19.3529ZM60.7569 16.1765H60.2275V15.6471H60.7569V16.1765ZM60.2275 16.1765H59.6981V15.6471H60.2275V16.1765ZM59.6981 16.1765H59.1686V15.6471H59.6981V16.1765ZM59.1686 16.1765H58.6392V15.6471H59.1686V16.1765ZM59.6981 18.8235H59.1686V18.2941H59.6981V18.8235ZM60.2275 18.8235H59.6981V18.2941H60.2275V18.8235ZM60.7569 18.8235H60.2275V18.2941H60.7569V18.8235ZM60.7569 18.2941H60.2275V17.7647H60.7569V18.2941ZM60.7569 17.7647H60.2275V17.2353H60.7569V17.7647ZM60.7569 17.2353H60.2275V16.7059H60.7569V17.2353ZM60.2275 17.2353H59.6981V16.7059H60.2275V17.2353ZM60.2275 16.7059H59.6981V16.1765H60.2275V16.7059ZM59.6981 16.7059H59.1686V16.1765H59.6981V16.7059ZM60.7569 16.7059H60.2275V16.1765H60.7569V16.7059ZM59.1686 16.7059H58.6392V16.1765H59.1686V16.7059ZM59.1686 17.2353H58.6392V16.7059H59.1686V17.2353ZM59.1686 17.7647H58.6392V17.2353H59.1686V17.7647ZM59.1686 18.2941H58.6392V17.7647H59.1686V18.2941ZM59.6981 18.2941H59.1686V17.7647H59.6981V18.2941ZM60.2275 18.2941H59.6981V17.7647H60.2275V18.2941ZM60.2275 17.7647H59.6981V17.2353H60.2275V17.7647ZM59.6981 17.2353H59.1686V16.7059H59.6981V17.2353ZM59.6981 17.7647H59.1686V17.2353H59.6981V17.7647ZM55.4628 14.5882H54.9334V14.0588H55.4628V14.5882ZM54.9334 14.5882H54.4039V14.0588H54.9334V14.5882ZM54.4039 14.5882H53.8745V14.0588H54.4039V14.5882ZM54.4039 15.1176H53.8745V14.5882H54.4039V15.1176ZM54.4039 15.6471H53.8745V15.1176H54.4039V15.6471ZM61.9872 14.5882H62.5166V15.1176H61.9872V14.5882ZM62.5166 14.5882H63.046V15.1176H62.5166V14.5882ZM63.046 14.5882H63.5754V15.1176H63.046V14.5882ZM63.5754 14.5882H64.1048V15.1176H63.5754V14.5882ZM64.1048 14.5882H64.6342V15.1176H64.1048V14.5882ZM64.6342 14.5882H65.1637V15.1176H64.6342V14.5882ZM65.1637 14.5882H65.6931V15.1176H65.1637V14.5882ZM65.6931 14.5882H66.2225V15.1176H65.6931V14.5882ZM66.2225 14.5882H66.7519V15.1176H66.2225V14.5882ZM66.2225 15.1176H66.7519V15.6471H66.2225V15.1176ZM66.2225 15.6471H66.7519V16.1765H66.2225V15.6471ZM65.6931 15.6471H66.2225V16.1765H65.6931V15.6471ZM65.1637 15.6471H65.6931V16.1765H65.1637V15.6471ZM64.6342 15.6471H65.1637V16.1765H64.6342V15.6471ZM64.1048 15.6471H64.6342V16.1765H64.1048V15.6471ZM63.5754 15.6471H64.1048V16.1765H63.5754V15.6471ZM63.046 15.6471H63.5754V16.1765H63.046V15.6471ZM62.5166 15.6471H63.046V16.1765H62.5166V15.6471ZM62.5166 15.1176H63.046V15.6471H62.5166V15.1176ZM61.9872 15.1176H62.5166V15.6471H61.9872V15.1176ZM61.9872 15.6471H62.5166V16.1765H61.9872V15.6471ZM63.046 15.1176H63.5754V15.6471H63.046V15.1176ZM63.5754 15.1176H64.1048V15.6471H63.5754V15.1176ZM64.1048 15.1176H64.6342V15.6471H64.1048V15.1176ZM64.6342 15.1176H65.1637V15.6471H64.6342V15.1176ZM65.1637 15.1176H65.6931V15.6471H65.1637V15.1176ZM65.6931 15.1176H66.2225V15.6471H65.6931V15.1176ZM63.046 14.0588H63.5754V14.5882H63.046V14.0588ZM63.5754 14.0588H64.1048V14.5882H63.5754V14.0588ZM64.1048 14.0588H64.6342V14.5882H64.1048V14.0588ZM64.6342 14.0588H65.1637V14.5882H64.6342V14.0588ZM64.1048 13.5294H64.6342V14.0588H64.1048V13.5294ZM63.5754 13.5294H64.1048V14.0588H63.5754V13.5294ZM64.6342 13.5294H65.1637V14.0588H64.6342V13.5294ZM64.6342 12.4706H65.1637V13H64.6342V12.4706ZM64.6342 13H65.1637V13.5294H64.6342V13ZM64.1048 13H64.6342V13.5294H64.1048V13ZM64.6342 11.9412H65.1637V12.4706H64.6342V11.9412ZM64.1048 12.4706H64.6342V13H64.1048V12.4706ZM63.5754 13H64.1048V13.5294H63.5754V13ZM63.046 13.5294H63.5754V14.0588H63.046V13.5294ZM63.046 16.1765H63.5754V16.7059H63.046V16.1765ZM63.046 16.7059H63.5754V17.2353H63.046V16.7059ZM63.046 17.2353H63.5754V17.7647H63.046V17.2353ZM63.046 17.7647H63.5754V18.2941H63.046V17.7647ZM63.5754 17.7647H64.1048V18.2941H63.5754V17.7647ZM63.5754 18.2941H64.1048V18.8235H63.5754V18.2941ZM64.1048 17.7647H64.6342V18.2941H64.1048V17.7647ZM64.1048 17.2353H64.6342V17.7647H64.1048V17.2353ZM64.6342 17.2353H65.1637V17.7647H64.6342V17.2353ZM64.6342 16.7059H65.1637V17.2353H64.6342V16.7059ZM64.1048 16.1765H64.6342V16.7059H64.1048V16.1765ZM63.5754 16.1765H64.1048V16.7059H63.5754V16.1765ZM63.5754 16.7059H64.1048V17.2353H63.5754V16.7059ZM63.5754 17.2353H64.1048V17.7647H63.5754V17.2353ZM64.1048 16.7059H64.6342V17.2353H64.1048V16.7059ZM64.6342 16.1765H65.1637V16.7059H64.6342V16.1765ZM64.6342 17.7647H65.1637V18.2941H64.6342V17.7647ZM64.6342 18.2941H65.1637V18.8235H64.6342V18.2941ZM64.1048 18.2941H64.6342V18.8235H64.1048V18.2941ZM64.1048 18.8235H64.6342V19.3529H64.1048V18.8235ZM63.5754 18.8235H64.1048V19.3529H63.5754V18.8235ZM63.046 18.2941H63.5754V18.8235H63.046V18.2941ZM63.046 18.8235H63.5754V19.3529H63.046V18.8235ZM64.6342 18.8235H65.1637V19.3529H64.6342V18.8235ZM63.046 19.3529H63.5754V19.8824H63.046V19.3529ZM63.5754 19.3529H64.1048V19.8824H63.5754V19.3529ZM63.5754 19.8824H64.1048V20.4118H63.5754V19.8824ZM64.1048 19.8824H64.6342V20.4118H64.1048V19.8824ZM64.6342 19.8824H65.1637V20.4118H64.6342V19.8824ZM64.6342 19.3529H65.1637V19.8824H64.6342V19.3529ZM64.1048 19.3529H64.6342V19.8824H64.1048V19.3529ZM63.046 19.8824H63.5754V20.4118H63.046V19.8824ZM64.6342 20.4118H65.1637V20.9412H64.6342V20.4118ZM65.1637 20.4118H65.6931V20.9412H65.1637V20.4118ZM65.1637 19.8824H65.6931V20.4118H65.1637V19.8824ZM64.1048 20.4118H64.6342V20.9412H64.1048V20.4118ZM63.5754 20.4118H64.1048V20.9412H63.5754V20.4118ZM63.5754 20.9412H64.1048V21.4706H63.5754V20.9412ZM64.1048 20.9412H64.6342V21.4706H64.1048V20.9412ZM64.6342 20.9412H65.1637V21.4706H64.6342V20.9412ZM65.1637 20.9412H65.6931V21.4706H65.1637V20.9412ZM65.6931 20.9412H66.2225V21.4706H65.6931V20.9412ZM65.6931 20.4118H66.2225V20.9412H65.6931V20.4118ZM66.2225 20.4118H66.7519V20.9412H66.2225V20.4118ZM66.2225 20.9412H66.7519V21.4706H66.2225V20.9412ZM65.6931 21.4706H66.2225V22H65.6931V21.4706ZM65.1637 21.4706H65.6931V22H65.1637V21.4706ZM64.6342 21.4706H65.1637V22H64.6342V21.4706ZM66.2225 21.4706H66.7519V22H66.2225V21.4706Z" fill="white"/>
<path d="M80 23H77.3333C76.9797 23 76.6406 22.8595 76.3905 22.6095C76.1405 22.3594 76 22.0203 76 21.6667V12.3333C76 11.9797 76.1405 11.6406 76.3905 11.3905C76.6406 11.1405 76.9797 11 77.3333 11H80M84.6667 20.3333L88 17M88 17L84.6667 13.6667M88 17H80" stroke="white" stroke-width="1.32" stroke-linecap="square" stroke-linejoin="round"/>
</svg>
