<svg width="40" height="37" viewBox="0 0 40 37" fill="none" xmlns="http://www.w3.org/2000/svg">
<path d="M21.6663 10V10.8333H20.833V10H21.6663ZM20.833 10V10.8333H19.9997V10H20.833ZM19.9997 10V10.8333H19.1663V10H19.9997ZM19.1663 10V10.8333H18.333V10H19.1663ZM19.1663 10.8333V11.6667H18.333V10.8333H19.1663ZM20.833 11.6667V12.5H19.9997V11.6667H20.833ZM20.833 10.8333V11.6667H19.9997V10.8333H20.833ZM19.9997 10.8333V11.6667H19.1663V10.8333H19.9997ZM21.6663 10.8333V11.6667H20.833V10.8333H21.6663ZM19.9997 11.6667V12.5H19.1663V11.6667H19.9997ZM19.9997 12.5V13.3333H19.1663V12.5H19.9997ZM19.9997 13.3333V14.1667H19.1663V13.3333H19.9997ZM19.9997 14.1667V15H19.1663V14.1667H19.9997ZM19.9997 15V15.8333H19.1663V15H19.9997ZM20.833 15V15.8333H19.9997V15H20.833ZM20.833 14.1667V15H19.9997V14.1667H20.833ZM20.833 13.3333V14.1667H19.9997V13.3333H20.833ZM20.833 12.5V13.3333H19.9997V12.5H20.833ZM13.333 16.6667V17.5H12.4997V16.6667H13.333ZM12.4997 16.6667V17.5H11.6664V16.6667H12.4997ZM12.4997 17.5V18.3333H11.6664V17.5H12.4997ZM12.4997 18.3333V19.1667H11.6664V18.3333H12.4997ZM12.4997 19.1667V20H11.6664V19.1667H12.4997ZM13.333 19.1667V20H12.4997V19.1667H13.333ZM17.4997 17.5V18.3333H16.6664V17.5H17.4997ZM16.6664 17.5V18.3333H15.833V17.5H16.6664ZM15.833 17.5V18.3333H14.9997V17.5H15.833ZM14.9997 17.5V18.3333H14.1664V17.5H14.9997ZM14.1664 17.5V18.3333H13.333V17.5H14.1664ZM13.333 17.5V18.3333H12.4997V17.5H13.333ZM13.333 18.3333V19.1667H12.4997V18.3333H13.333ZM14.1664 18.3333V19.1667H13.333V18.3333H14.1664ZM14.9997 18.3333V19.1667H14.1664V18.3333H14.9997ZM15.833 18.3333V19.1667H14.9997V18.3333H15.833ZM16.6664 18.3333V19.1667H15.833V18.3333H16.6664ZM17.4997 18.3333V19.1667H16.6664V18.3333H17.4997ZM28.333 19.1667V20H27.4997V19.1667H28.333ZM27.4997 19.1667V20H26.6663V19.1667H27.4997ZM28.333 18.3333V19.1667H27.4997V18.3333H28.333ZM28.333 17.5V18.3333H27.4997V17.5H28.333ZM28.333 16.6667V17.5H27.4997V16.6667H28.333ZM27.4997 16.6667V17.5H26.6663V16.6667H27.4997ZM27.4997 17.5V18.3333H26.6663V17.5H27.4997ZM27.4997 18.3333V19.1667H26.6663V18.3333H27.4997ZM26.6663 18.3333V19.1667H25.833V18.3333H26.6663ZM25.833 18.3333V19.1667H24.9997V18.3333H25.833ZM24.9997 18.3333V19.1667H24.1663V18.3333H24.9997ZM24.1663 18.3333V19.1667H23.333V18.3333H24.1663ZM23.333 18.3333V19.1667H22.4997V18.3333H23.333ZM23.333 17.5V18.3333H22.4997V17.5H23.333ZM24.1663 17.5V18.3333H23.333V17.5H24.1663ZM24.9997 17.5V18.3333H24.1663V17.5H24.9997ZM25.833 17.5V18.3333H24.9997V17.5H25.833ZM26.6663 17.5V18.3333H25.833V17.5H26.6663ZM19.1663 25V25.8333H18.333V25H19.1663ZM19.1663 25.8333V26.6666H18.333V25.8333H19.1663ZM19.9997 25.8333V26.6666H19.1663V25.8333H19.9997ZM20.833 25V25.8333H19.9997V25H20.833ZM21.6663 25V25.8333H20.833V25H21.6663ZM20.833 20.8333V21.6666H19.9997V20.8333H20.833ZM20.833 21.6666V22.5H19.9997V21.6666H20.833ZM20.833 22.5V23.3333H19.9997V22.5H20.833ZM20.833 23.3333V24.1666H19.9997V23.3333H20.833ZM20.833 24.1666V25H19.9997V24.1666H20.833ZM20.833 25.8333V26.6666H19.9997V25.8333H20.833ZM21.6663 25.8333V26.6666H20.833V25.8333H21.6663ZM19.9997 25V25.8333H19.1663V25H19.9997ZM19.9997 24.1666V25H19.1663V24.1666H19.9997ZM19.9997 23.3333V24.1666H19.1663V23.3333H19.9997ZM19.9997 22.5V23.3333H19.1663V22.5H19.9997ZM19.9997 21.6666V22.5H19.1663V21.6666H19.9997ZM19.9997 20.8333V21.6666H19.1663V20.8333H19.9997ZM22.4997 10V10.8333H21.6663V10H22.4997ZM22.4997 10.8333V11.6667H21.6663V10.8333H22.4997ZM18.333 10.8333V11.6667H17.4997V10.8333H18.333ZM18.333 10V10.8333H17.4997V10H18.333ZM27.4997 15.8333V16.6667H26.6663V15.8333H27.4997ZM28.333 15.8333V16.6667H27.4997V15.8333H28.333ZM28.333 20V20.8333H27.4997V20H28.333ZM27.4997 20V20.8333H26.6663V20H27.4997ZM18.333 25.8333V26.6666H17.4997V25.8333H18.333ZM18.333 25V25.8333H17.4997V25H18.333ZM12.4997 20V20.8333H11.6664V20H12.4997ZM13.333 15.8333V16.6667H12.4997V15.8333H13.333ZM12.4997 15.8333V16.6667H11.6664V15.8333H12.4997ZM22.4997 25V25.8333H21.6663V25H22.4997ZM22.4997 25.8333V26.6666H21.6663V25.8333H22.4997ZM13.333 20V20.8333H12.4997V20H13.333ZM18.333 17.5V18.3333H17.4997V17.5H18.333ZM19.1663 17.5V18.3333H18.333V17.5H19.1663ZM19.9997 17.5V18.3333H19.1663V17.5H19.9997ZM20.833 17.5V18.3333H19.9997V17.5H20.833ZM21.6663 17.5V18.3333H20.833V17.5H21.6663ZM22.4997 17.5V18.3333H21.6663V17.5H22.4997ZM22.4997 18.3333V19.1667H21.6663V18.3333H22.4997ZM21.6663 18.3333V19.1667H20.833V18.3333H21.6663ZM20.833 18.3333V19.1667H19.9997V18.3333H20.833ZM19.9997 18.3333V19.1667H19.1663V18.3333H19.9997ZM19.1663 18.3333V19.1667H18.333V18.3333H19.1663ZM18.333 18.3333V19.1667H17.4997V18.3333H18.333ZM20.833 20V20.8333H19.9997V20H20.833ZM20.833 19.1667V20H19.9997V19.1667H20.833ZM20.833 16.6667V17.5H19.9997V16.6667H20.833ZM20.833 15.8333V16.6667H19.9997V15.8333H20.833ZM19.9997 15.8333V16.6667H19.1663V15.8333H19.9997ZM19.9997 16.6667V17.5H19.1663V16.6667H19.9997ZM19.9997 19.1667V20H19.1663V19.1667H19.9997ZM19.9997 20V20.8333H19.1663V20H19.9997ZM21.6663 14.1667V15H20.833V14.1667H21.6663ZM19.1663 14.1667V15H18.333V14.1667H19.1663ZM19.1663 13.3333V14.1667H18.333V13.3333H19.1663ZM21.6663 13.3333V14.1667H20.833V13.3333H21.6663ZM22.4997 12.5V13.3333H21.6663V12.5H22.4997ZM21.6663 12.5V13.3333H20.833V12.5H21.6663ZM19.1663 12.5V13.3333H18.333V12.5H19.1663ZM18.333 12.5V13.3333H17.4997V12.5H18.333ZM21.6663 11.6667V12.5H20.833V11.6667H21.6663ZM22.4997 11.6667V12.5H21.6663V11.6667H22.4997ZM18.333 11.6667V12.5H17.4997V11.6667H18.333ZM19.1663 11.6667V12.5H18.333V11.6667H19.1663ZM17.4997 10.8333V11.6667H16.6664V10.8333H17.4997ZM17.4997 10V10.8333H16.6664V10H17.4997ZM23.333 10.8333V11.6667H22.4997V10.8333H23.333ZM23.333 10V10.8333H22.4997V10H23.333ZM24.1663 10V10.8333H23.333V10H24.1663ZM16.6664 10V10.8333H15.833V10H16.6664ZM21.6663 21.6666V22.5H20.833V21.6666H21.6663ZM19.1663 21.6666V22.5H18.333V21.6666H19.1663ZM19.1663 22.5V23.3333H18.333V22.5H19.1663ZM19.1663 23.3333V24.1666H18.333V23.3333H19.1663ZM19.1663 24.1666V25H18.333V24.1666H19.1663ZM21.6663 24.1666V25H20.833V24.1666H21.6663ZM21.6663 23.3333V24.1666H20.833V23.3333H21.6663ZM21.6663 22.5V23.3333H20.833V22.5H21.6663ZM22.4997 23.3333V24.1666H21.6663V23.3333H22.4997ZM22.4997 24.1666V25H21.6663V24.1666H22.4997ZM18.333 23.3333V24.1666H17.4997V23.3333H18.333ZM18.333 24.1666V25H17.4997V24.1666H18.333ZM17.4997 25V25.8333H16.6664V25H17.4997ZM17.4997 25.8333V26.6666H16.6664V25.8333H17.4997ZM16.6664 25.8333V26.6666H15.833V25.8333H16.6664ZM23.333 25V25.8333H22.4997V25H23.333ZM23.333 25.8333V26.6666H22.4997V25.8333H23.333ZM24.1663 25.8333V26.6666H23.333V25.8333H24.1663ZM24.1663 16.6667V17.5H23.333V16.6667H24.1663ZM24.1663 19.1667V20H23.333V19.1667H24.1663ZM24.9997 19.1667V20H24.1663V19.1667H24.9997ZM25.833 19.1667V20H24.9997V19.1667H25.833ZM26.6663 19.1667V20H25.833V19.1667H26.6663ZM26.6663 16.6667V17.5H25.833V16.6667H26.6663ZM26.6663 15.8333V16.6667H25.833V15.8333H26.6663ZM25.833 16.6667V17.5H24.9997V16.6667H25.833ZM24.9997 16.6667V17.5H24.1663V16.6667H24.9997ZM25.833 20V20.8333H24.9997V20H25.833ZM26.6663 20V20.8333H25.833V20H26.6663ZM25.833 15.8333V16.6667H24.9997V15.8333H25.833ZM27.4997 15V15.8333H26.6663V15H27.4997ZM27.4997 20.8333V21.6666H26.6663V20.8333H27.4997ZM28.333 21.6666V22.5H27.4997V21.6666H28.333ZM28.333 20.8333V21.6666H27.4997V20.8333H28.333ZM28.333 15V15.8333H27.4997V15H28.333ZM28.333 14.1667V15H27.4997V14.1667H28.333ZM16.6664 16.6667V17.5H15.833V16.6667H16.6664ZM15.833 16.6667V17.5H14.9997V16.6667H15.833ZM14.9997 16.6667V17.5H14.1664V16.6667H14.9997ZM14.1664 16.6667V17.5H13.333V16.6667H14.1664ZM14.1664 19.1667V20H13.333V19.1667H14.1664ZM14.9997 19.1667V20H14.1664V19.1667H14.9997ZM15.833 19.1667V20H14.9997V19.1667H15.833ZM16.6664 19.1667V20H15.833V19.1667H16.6664ZM14.9997 20V20.8333H14.1664V20H14.9997ZM14.1664 20V20.8333H13.333V20H14.1664ZM14.9997 15.8333V16.6667H14.1664V15.8333H14.9997ZM14.1664 15.8333V16.6667H13.333V15.8333H14.1664ZM13.333 15V15.8333H12.4997V15H13.333ZM12.4997 15V15.8333H11.6664V15H12.4997ZM12.4997 14.1667V15H11.6664V14.1667H12.4997ZM13.333 20.8333V21.6666H12.4997V20.8333H13.333ZM12.4997 20.8333V21.6666H11.6664V20.8333H12.4997ZM12.4997 21.6666V22.5H11.6664V21.6666H12.4997Z" fill="white"/>
</svg>
