<svg width="40" height="37" viewBox="0 0 40 37" fill="none" xmlns="http://www.w3.org/2000/svg">
<path d="M11.6665 16.6667H12.4998V17.5H11.6665V16.6667ZM11.6665 17.5H12.4998V18.3333H11.6665V17.5ZM11.6665 18.3333H12.4998V19.1667H11.6665V18.3333ZM11.6665 19.1667H12.4998V20H11.6665V19.1667ZM12.4998 19.1667H13.3332V20H12.4998V19.1667ZM13.3332 19.1667H14.1665V20H13.3332V19.1667ZM14.1665 19.1667H14.9998V20H14.1665V19.1667ZM14.9998 19.1667H15.8332V20H14.9998V19.1667ZM15.8332 19.1667H16.6665V20H15.8332V19.1667ZM16.6665 19.1667H17.4998V20H16.6665V19.1667ZM17.4998 19.1667H18.3332V20H17.4998V19.1667ZM17.4998 18.3333H18.3332V19.1667H17.4998V18.3333ZM17.4998 17.5H18.3332V18.3333H17.4998V17.5ZM17.4998 16.6667H18.3332V17.5H17.4998V16.6667ZM16.6665 16.6667H17.4998V17.5H16.6665V16.6667ZM15.8332 16.6667H16.6665V17.5H15.8332V16.6667ZM14.9998 16.6667H15.8332V17.5H14.9998V16.6667ZM14.1665 16.6667H14.9998V17.5H14.1665V16.6667ZM13.3332 16.6667H14.1665V17.5H13.3332V16.6667ZM13.3332 17.5H14.1665V18.3333H13.3332V17.5ZM12.4998 17.5H13.3332V18.3333H12.4998V17.5ZM12.4998 18.3333H13.3332V19.1667H12.4998V18.3333ZM12.4998 16.6667H13.3332V17.5H12.4998V16.6667ZM13.3332 18.3333H14.1665V19.1667H13.3332V18.3333ZM14.1665 18.3333H14.9998V19.1667H14.1665V18.3333ZM14.9998 18.3333H15.8332V19.1667H14.9998V18.3333ZM15.8332 18.3333H16.6665V19.1667H15.8332V18.3333ZM16.6665 18.3333H17.4998V19.1667H16.6665V18.3333ZM16.6665 17.5H17.4998V18.3333H16.6665V17.5ZM15.8332 17.5H16.6665V18.3333H15.8332V17.5ZM14.9998 17.5H15.8332V18.3333H14.9998V17.5ZM14.1665 17.5H14.9998V18.3333H14.1665V17.5ZM18.3332 20H19.1665V20.8333H18.3332V20ZM18.3332 20.8333H19.1665V21.6666H18.3332V20.8333ZM18.3332 21.6666H19.1665V22.5H18.3332V21.6666ZM18.3332 22.5H19.1665V23.3333H18.3332V22.5ZM18.3332 23.3333H19.1665V24.1666H18.3332V23.3333ZM18.3332 24.1666H19.1665V25H18.3332V24.1666ZM18.3332 25H19.1665V25.8333H18.3332V25ZM18.3332 25.8333H19.1665V26.6666H18.3332V25.8333ZM19.1665 25.8333H19.9998V26.6666H19.1665V25.8333ZM19.9998 25.8333H20.8332V26.6666H19.9998V25.8333ZM20.8332 25.8333H21.6665V26.6666H20.8332V25.8333ZM20.8332 25H21.6665V25.8333H20.8332V25ZM20.8332 24.1666H21.6665V25H20.8332V24.1666ZM20.8332 23.3333H21.6665V24.1666H20.8332V23.3333ZM20.8332 22.5H21.6665V23.3333H20.8332V22.5ZM20.8332 21.6666H21.6665V22.5H20.8332V21.6666ZM20.8332 20.8333H21.6665V21.6666H20.8332V20.8333ZM20.8332 20H21.6665V20.8333H20.8332V20ZM19.9998 20H20.8332V20.8333H19.9998V20ZM19.1665 20H19.9998V20.8333H19.1665V20ZM19.1665 20.8333H19.9998V21.6666H19.1665V20.8333ZM19.1665 21.6666H19.9998V22.5H19.1665V21.6666ZM19.1665 22.5H19.9998V23.3333H19.1665V22.5ZM19.1665 23.3333H19.9998V24.1666H19.1665V23.3333ZM19.1665 24.1666H19.9998V25H19.1665V24.1666ZM19.1665 25H19.9998V25.8333H19.1665V25ZM19.9998 25H20.8332V25.8333H19.9998V25ZM19.9998 24.1666H20.8332V25H19.9998V24.1666ZM19.9998 23.3333H20.8332V24.1666H19.9998V23.3333ZM19.9998 22.5H20.8332V23.3333H19.9998V22.5ZM19.9998 21.6666H20.8332V22.5H19.9998V21.6666ZM19.9998 20.8333H20.8332V21.6666H19.9998V20.8333ZM18.3332 15.8333H19.1665V16.6667H18.3332V15.8333ZM19.1665 15.8333H19.9998V16.6667H19.1665V15.8333ZM19.9998 15.8333H20.8332V16.6667H19.9998V15.8333ZM20.8332 15.8333H21.6665V16.6667H20.8332V15.8333ZM20.8332 15H21.6665V15.8333H20.8332V15ZM20.8332 14.1667H21.6665V15H20.8332V14.1667ZM20.8332 13.3333H21.6665V14.1667H20.8332V13.3333ZM20.8332 12.5H21.6665V13.3333H20.8332V12.5ZM20.8332 11.6667H21.6665V12.5H20.8332V11.6667ZM20.8332 10H21.6665V10.8333H20.8332V10ZM20.8332 10.8333H21.6665V11.6667H20.8332V10.8333ZM19.9998 10H20.8332V10.8333H19.9998V10ZM19.1665 10H19.9998V10.8333H19.1665V10ZM18.3332 10H19.1665V10.8333H18.3332V10ZM18.3332 15H19.1665V15.8333H18.3332V15ZM18.3332 14.1667H19.1665V15H18.3332V14.1667ZM18.3332 13.3333H19.1665V14.1667H18.3332V13.3333ZM18.3332 12.5H19.1665V13.3333H18.3332V12.5ZM18.3332 11.6667H19.1665V12.5H18.3332V11.6667ZM18.3332 10.8333H19.1665V11.6667H18.3332V10.8333ZM19.1665 10.8333H19.9998V11.6667H19.1665V10.8333ZM19.9998 10.8333H20.8332V11.6667H19.9998V10.8333ZM19.9998 11.6667H20.8332V12.5H19.9998V11.6667ZM19.9998 12.5H20.8332V13.3333H19.9998V12.5ZM19.9998 13.3333H20.8332V14.1667H19.9998V13.3333ZM19.9998 14.1667H20.8332V15H19.9998V14.1667ZM19.9998 15H20.8332V15.8333H19.9998V15ZM19.1665 15H19.9998V15.8333H19.1665V15ZM19.1665 14.1667H19.9998V15H19.1665V14.1667ZM19.1665 13.3333H19.9998V14.1667H19.1665V13.3333ZM19.1665 12.5H19.9998V13.3333H19.1665V12.5ZM19.1665 11.6667H19.9998V12.5H19.1665V11.6667ZM21.6665 16.6667H22.4998V17.5H21.6665V16.6667ZM21.6665 17.5H22.4998V18.3333H21.6665V17.5ZM21.6665 18.3333H22.4998V19.1667H21.6665V18.3333ZM21.6665 19.1667H22.4998V20H21.6665V19.1667ZM22.4998 19.1667H23.3331V20H22.4998V19.1667ZM23.3331 19.1667H24.1665V20H23.3331V19.1667ZM24.1665 19.1667H24.9998V20H24.1665V19.1667ZM24.9998 19.1667H25.8331V20H24.9998V19.1667ZM25.8331 19.1667H26.6665V20H25.8331V19.1667ZM26.6665 19.1667H27.4998V20H26.6665V19.1667ZM27.4998 19.1667H28.3331V20H27.4998V19.1667ZM27.4998 18.3333H28.3331V19.1667H27.4998V18.3333ZM26.6665 17.5H27.4998V18.3333H26.6665V17.5ZM26.6665 16.6667H27.4998V17.5H26.6665V16.6667ZM25.8331 16.6667H26.6665V17.5H25.8331V16.6667ZM24.9998 16.6667H25.8331V17.5H24.9998V16.6667ZM24.1665 16.6667H24.9998V17.5H24.1665V16.6667ZM23.3331 16.6667H24.1665V17.5H23.3331V16.6667ZM22.4998 16.6667H23.3331V17.5H22.4998V16.6667ZM22.4998 17.5H23.3331V18.3333H22.4998V17.5ZM23.3331 17.5H24.1665V18.3333H23.3331V17.5ZM24.1665 17.5H24.9998V18.3333H24.1665V17.5ZM24.9998 17.5H25.8331V18.3333H24.9998V17.5ZM25.8331 17.5H26.6665V18.3333H25.8331V17.5ZM27.4998 17.5H28.3331V18.3333H27.4998V17.5ZM27.4998 16.6667H28.3331V17.5H27.4998V16.6667ZM26.6665 18.3333H27.4998V19.1667H26.6665V18.3333ZM25.8331 18.3333H26.6665V19.1667H25.8331V18.3333ZM24.9998 18.3333H25.8331V19.1667H24.9998V18.3333ZM24.1665 18.3333H24.9998V19.1667H24.1665V18.3333ZM23.3331 18.3333H24.1665V19.1667H23.3331V18.3333ZM22.4998 18.3333H23.3331V19.1667H22.4998V18.3333Z" fill="white"/>
</svg>
