<svg width="40" height="36" viewBox="0 0 40 36" fill="none" xmlns="http://www.w3.org/2000/svg">
<path d="M20.4168 25.8335V25.0002H21.2502V25.8335H20.4168ZM20.4168 25.0002V24.1668H21.2502V25.0002H20.4168ZM20.4168 24.1668V23.3335H21.2502V24.1668H20.4168ZM20.4168 23.3335V22.5002H21.2502V23.3335H20.4168ZM20.4168 22.5002V21.6668H21.2502V22.5002H20.4168ZM20.4168 21.6668V20.8335H21.2502V21.6668H20.4168ZM20.4168 20.8335V20.0002H21.2502V20.8335H20.4168ZM17.9168 20.8335L17.9168 20.0002H18.7502L18.7502 20.8335H17.9168ZM17.9168 21.6668V20.8335H18.7502V21.6668H17.9168ZM17.9168 22.5002V21.6668H18.7502V22.5002H17.9168ZM17.9168 23.3335V22.5002H18.7502V23.3335H17.9168ZM17.9168 24.1668V23.3335H18.7502V24.1668H17.9168ZM17.9168 25.0002V24.1668H18.7502V25.0002H17.9168ZM17.9168 25.8335V25.0002H18.7502V25.8335H17.9168ZM22.0835 20.0002V19.1668H22.9169V20.0002H22.0835ZM22.9169 20.0002V19.1668H23.7502V20.0002H22.9169ZM23.7502 20.0002V19.1668H24.5835V20.0002H23.7502ZM24.5835 20.0002V19.1668L25.4169 19.1668V20.0002L24.5835 20.0002ZM25.4169 20.0002V19.1668H26.2502V20.0002H25.4169ZM26.2502 20.0002V19.1668H27.0835V20.0002H26.2502ZM26.2502 17.5002V16.6668H27.0835V17.5002H26.2502ZM25.4169 17.5002V16.6668H26.2502V17.5002H25.4169ZM24.5835 17.5002V16.6668H25.4169V17.5002H24.5835ZM23.7502 17.5002V16.6668H24.5835V17.5002H23.7502ZM22.9169 17.5002V16.6668L23.7502 16.6668V17.5002L22.9169 17.5002ZM22.0835 17.5002V16.6668H22.9169V17.5002H22.0835ZM22.0835 19.1668L22.0835 18.3335H22.9169L22.9169 19.1668H22.0835ZM22.9169 19.1668L22.9169 18.3335H23.7502L23.7502 19.1668H22.9169ZM23.7502 19.1668L23.7502 18.3335H24.5835L24.5835 19.1668H23.7502ZM24.5835 19.1668L24.5835 18.3335L25.4169 18.3335L25.4169 19.1668L24.5835 19.1668ZM25.4169 19.1668L25.4169 18.3335H26.2502L26.2502 19.1668H25.4169ZM26.2502 19.1668L26.2502 18.3335H27.0835L27.0835 19.1668H26.2502ZM17.0835 20.0002V19.1668L17.9168 19.1668V20.0002L17.0835 20.0002ZM17.0835 19.1668V18.3335L17.9168 18.3335V19.1668L17.0835 19.1668ZM17.0835 17.5002V16.6668H17.9168V17.5002H17.0835ZM16.2502 17.5002V16.6668H17.0835V17.5002H16.2502ZM15.4168 17.5002V16.6668H16.2502V17.5002H15.4168ZM14.5835 17.5002V16.6668H15.4168V17.5002H14.5835ZM13.7502 17.5002V16.6668H14.5835V17.5002H13.7502ZM12.9168 17.5002V16.6668H13.7502V17.5002H12.9168ZM12.0835 17.5002V16.6668H12.9168V17.5002H12.0835ZM16.2502 20.0002V19.1668H17.0835V20.0002H16.2502ZM15.4168 20.0002L15.4168 19.1668H16.2502V20.0002H15.4168ZM14.5835 20.0002L14.5835 19.1668H15.4168L15.4168 20.0002H14.5835ZM13.7502 20.0002V19.1668H14.5835L14.5835 20.0002H13.7502ZM12.9168 20.0002V19.1668H13.7502V20.0002H12.9168ZM12.0835 20.0002V19.1668H12.9168V20.0002H12.0835ZM12.0835 19.1668L12.0835 18.3335H12.9168L12.9168 19.1668H12.0835ZM16.2502 19.1668V18.3335H17.0835V19.1668H16.2502ZM15.4168 19.1668V18.3335H16.2502V19.1668H15.4168ZM14.5835 19.1668V18.3335H15.4168V19.1668H14.5835ZM13.7502 19.1668L13.7502 18.3335H14.5835V19.1668H13.7502ZM12.9168 19.1668L12.9168 18.3335H13.7502L13.7502 19.1668H12.9168ZM20.4168 15.8335V15.0002H21.2502V15.8335H20.4168ZM20.4168 15.0002L20.4168 14.1669H21.2502L21.2502 15.0002H20.4168ZM20.4168 14.1669V13.3335H21.2502V14.1669H20.4168ZM20.4168 13.3335V12.5002H21.2502V13.3335H20.4168ZM20.4168 12.5002V11.6669H21.2502V12.5002H20.4168ZM20.4168 11.6669V10.8335H21.2502V11.6669H20.4168ZM17.9168 11.6669V10.8335H18.7502V11.6669H17.9168ZM17.9168 12.5002V11.6669H18.7502V12.5002H17.9168ZM17.9168 13.3335L17.9168 12.5002H18.7502L18.7502 13.3335H17.9168ZM17.9168 14.1669V13.3335H18.7502V14.1669H17.9168ZM17.9168 15.0002V14.1669H18.7502V15.0002H17.9168ZM17.9168 15.8335V15.0002H18.7502V15.8335H17.9168ZM26.2502 16.6668V15.8335H27.0835V16.6668H26.2502ZM24.5835 16.6668V15.8335H25.4169V16.6668H24.5835ZM23.7502 16.6668V15.8335H24.5835V16.6668H23.7502ZM22.9169 16.6668V15.8335L23.7502 15.8335V16.6668L22.9169 16.6668ZM22.0835 16.6668V15.8335H22.9169V16.6668H22.0835ZM25.4169 16.6668V15.8335H26.2502V16.6668H25.4169ZM21.2502 20.0002V19.1668H22.0835V20.0002H21.2502ZM20.4168 20.0002V19.1668H21.2502V20.0002H20.4168ZM20.4168 19.1668L20.4168 18.3335H21.2502L21.2502 19.1668H20.4168ZM21.2502 19.1668L21.2502 18.3335H22.0835L22.0835 19.1668H21.2502ZM21.2502 17.5002V16.6668H22.0835V17.5002H21.2502ZM21.2502 16.6668V15.8335H22.0835V16.6668H21.2502ZM20.4168 16.6668V15.8335H21.2502V16.6668H20.4168ZM20.4168 17.5002V16.6668H21.2502V17.5002H20.4168ZM17.0835 16.6668V15.8335H17.9168V16.6668H17.0835ZM16.2502 16.6668V15.8335H17.0835V16.6668H16.2502ZM15.4168 16.6668V15.8335H16.2502V16.6668H15.4168ZM14.5835 16.6668V15.8335H15.4168V16.6668H14.5835ZM13.7502 16.6668V15.8335L14.5835 15.8335V16.6668H13.7502ZM12.0835 16.6668V15.8335H12.9168V16.6668H12.0835ZM12.9168 16.6668V15.8335H13.7502V16.6668H12.9168ZM17.9168 20.0002V19.1668H18.7502V20.0002H17.9168ZM17.9168 19.1668V18.3335H18.7502V19.1668H17.9168ZM17.9168 17.5002V16.6668H18.7502V17.5002H17.9168ZM17.9168 16.6668V15.8335H18.7502V16.6668H17.9168ZM27.0835 20.0002V19.1668H27.9169V20.0002H27.0835ZM27.0835 19.1668L27.0835 18.3335H27.9169L27.9169 19.1668H27.0835ZM27.0835 17.5002V16.6668H27.9169V17.5002H27.0835ZM27.0835 16.6668V15.8335H27.9169V16.6668H27.0835ZM21.2502 25.8335V25.0002H22.0835V25.8335H21.2502ZM21.2502 25.0002V24.1668H22.0835V25.0002H21.2502ZM21.2502 24.1668V23.3335H22.0835V24.1668H21.2502ZM21.2502 23.3335V22.5002H22.0835V23.3335H21.2502ZM21.2502 22.5002V21.6668H22.0835V22.5002H21.2502ZM21.2502 21.6668V20.8335H22.0835V21.6668H21.2502ZM21.2502 20.8335V20.0002H22.0835V20.8335H21.2502ZM21.2502 15.8335V15.0002H22.0835V15.8335H21.2502ZM21.2502 15.0002L21.2502 14.1669H22.0835L22.0835 15.0002H21.2502ZM21.2502 14.1669V13.3335H22.0835V14.1669H21.2502ZM21.2502 13.3335V12.5002H22.0835V13.3335H21.2502ZM21.2502 12.5002V11.6669H22.0835V12.5002H21.2502ZM21.2502 11.6669V10.8335H22.0835V11.6669H21.2502ZM18.7502 25.8335V25.0002H19.5835V25.8335H18.7502ZM18.7502 25.0002V24.1668H19.5835V25.0002H18.7502ZM18.7502 24.1668V23.3335H19.5835V24.1668H18.7502ZM18.7502 22.5002V21.6668H19.5835V22.5002H18.7502ZM18.7502 21.6668V20.8335H19.5835V21.6668H18.7502ZM18.7502 20.8335L18.7502 20.0002H19.5835L19.5835 20.8335H18.7502ZM18.7502 20.0002V19.1668H19.5835V20.0002H18.7502ZM18.7502 19.1668V18.3335H19.5835V19.1668H18.7502ZM18.7502 23.3335V22.5002H19.5835V23.3335H18.7502ZM18.7502 17.5002V16.6668L19.5835 16.6668V17.5002L18.7502 17.5002ZM18.7502 16.6668V15.8335L19.5835 15.8335V16.6668L18.7502 16.6668ZM18.7502 15.8335V15.0002L19.5835 15.0002V15.8335L18.7502 15.8335ZM18.7502 15.0002V14.1669L19.5835 14.1669V15.0002L18.7502 15.0002ZM18.7502 14.1669V13.3335L19.5835 13.3335V14.1669L18.7502 14.1669ZM18.7502 13.3335L18.7502 12.5002L19.5835 12.5002L19.5835 13.3335L18.7502 13.3335ZM18.7502 12.5002V11.6669L19.5835 11.6669V12.5002L18.7502 12.5002ZM18.7502 11.6669V10.8335L19.5835 10.8335V11.6669L18.7502 11.6669ZM21.2502 10.8335V10.0002H22.0835V10.8335H21.2502ZM20.4168 10.8335V10.0002H21.2502V10.8335H20.4168ZM18.7502 10.8335V10.0002L19.5835 10.0002V10.8335L18.7502 10.8335ZM17.9168 10.8335V10.0002H18.7502V10.8335H17.9168Z" fill="white"/>
</svg>
