<svg width="40" height="37" viewBox="0 0 40 37" fill="none" xmlns="http://www.w3.org/2000/svg">
<path d="M28.3335 19.1665H27.5002V18.3332H28.3335V19.1665ZM27.5002 19.1665H26.6668V18.3332H27.5002V19.1665ZM26.6668 19.1665H25.8335V18.3332H26.6668V19.1665ZM25.8335 19.1665H25.0002V18.3332H25.8335V19.1665ZM25.8335 18.3332H25.0002V17.4998H25.8335V18.3332ZM26.6668 18.3332H25.8335V17.4998H26.6668V18.3332ZM27.5002 18.3332H26.6668V17.4998H27.5002V18.3332ZM28.3335 18.3332H27.5002V17.4998H28.3335V18.3332ZM25.0002 19.1665H24.1668V18.3332H25.0002V19.1665ZM24.1668 19.1665H23.3335V18.3332H24.1668V19.1665ZM23.3335 19.1665H22.5002V18.3332H23.3335V19.1665ZM22.5002 19.1665H21.6668V18.3332H22.5002V19.1665ZM22.5002 18.3332H21.6668V17.4998H22.5002V18.3332ZM23.3335 18.3332H22.5002V17.4998H23.3335V18.3332ZM24.1668 18.3332H23.3335V17.4998H24.1668V18.3332ZM25.0002 18.3332H24.1668V17.4998H25.0002V18.3332ZM18.3335 18.3332H17.5002V17.4998H18.3335V18.3332ZM18.3335 19.1665H17.5002V18.3332H18.3335V19.1665ZM17.5002 19.1665H16.6669V18.3332H17.5002V19.1665ZM16.6669 19.1665H15.8335V18.3332H16.6669V19.1665ZM15.8335 19.1665H15.0002V18.3332H15.8335V19.1665ZM15.0002 19.1665H14.1669V18.3332H15.0002V19.1665ZM15.0002 18.3332H14.1669V17.4998H15.0002V18.3332ZM15.8335 18.3332H15.0002V17.4998H15.8335V18.3332ZM16.6669 18.3332H15.8335V17.4998H16.6669V18.3332ZM17.5002 18.3332H16.6669V17.4998H17.5002V18.3332ZM14.1669 19.1665H13.3335V18.3332H14.1669V19.1665ZM13.3335 19.1665H12.5002V18.3332H13.3335V19.1665ZM12.5002 19.1665H11.6669V18.3332H12.5002V19.1665ZM12.5002 18.3332H11.6669V17.4998H12.5002V18.3332ZM13.3335 18.3332H12.5002V17.4998H13.3335V18.3332ZM14.1669 18.3332H13.3335V17.4998H14.1669V18.3332ZM20.8335 19.1665H20.0002V18.3332H20.8335V19.1665ZM20.0002 19.1665H19.1668V18.3332H20.0002V19.1665ZM20.0002 18.3332H19.1668V17.4998H20.0002V18.3332ZM20.8335 18.3332H20.0002V17.4998H20.8335V18.3332ZM20.8335 20.8332H20.0002V19.9998H20.8335V20.8332ZM20.8335 21.6665H20.0002V20.8332H20.8335V21.6665ZM20.8335 22.4998H20.0002V21.6665H20.8335V22.4998ZM20.0002 22.4998H19.1668V21.6665H20.0002V22.4998ZM20.0002 23.3332H19.1668V22.4998H20.0002V23.3332ZM20.0002 21.6665H19.1668V20.8332H20.0002V21.6665ZM20.0002 20.8332H19.1668V19.9998H20.0002V20.8332ZM20.8335 23.3332H20.0002V22.4998H20.8335V23.3332ZM20.8335 24.1665H20.0002V23.3332H20.8335V24.1665ZM20.8335 24.9998H20.0002V24.1665H20.8335V24.9998ZM20.0002 24.9998H19.1668V24.1665H20.0002V24.9998ZM20.0002 24.1665H19.1668V23.3332H20.0002V24.1665ZM20.0002 25.8332H19.1668V24.9998H20.0002V25.8332ZM20.8335 25.8332H20.0002V24.9998H20.8335V25.8332ZM20.8335 16.6665H20.0002V15.8332H20.8335V16.6665ZM20.0002 16.6665H19.1668V15.8332H20.0002V16.6665ZM20.0002 15.8332H19.1668V14.9999H20.0002V15.8332ZM20.0002 14.9999H19.1668V14.1665H20.0002V14.9999ZM20.0002 14.1665H19.1668V13.3332H20.0002V14.1665ZM20.0002 13.3332H19.1668V12.4999H20.0002V13.3332ZM20.0002 12.4999H19.1668V11.6665H20.0002V12.4999ZM20.0002 11.6665H19.1668V10.8332H20.0002V11.6665ZM20.8335 11.6665H20.0002V10.8332H20.8335V11.6665ZM20.8335 12.4999H20.0002V11.6665H20.8335V12.4999ZM20.8335 13.3332H20.0002V12.4999H20.8335V13.3332ZM20.8335 14.1665H20.0002V13.3332H20.8335V14.1665ZM20.8335 14.9999H20.0002V14.1665H20.8335V14.9999ZM20.8335 15.8332H20.0002V14.9999H20.8335V15.8332ZM20.0002 10.8332H19.1668V9.99988H20.0002V10.8332ZM20.8335 10.8332H20.0002V9.99988H20.8335V10.8332ZM20.0002 26.6665H19.1668V25.8332H20.0002V26.6665ZM20.8335 26.6665H20.0002V25.8332H20.8335V26.6665ZM18.3335 20.8332H17.5002V19.9998H18.3335V20.8332ZM18.3335 21.6665H17.5002V20.8332H18.3335V21.6665ZM17.5002 21.6665H16.6669V20.8332H17.5002V21.6665ZM17.5002 20.8332H16.6669V19.9998H17.5002V20.8332ZM17.5002 22.4998H16.6669V21.6665H17.5002V22.4998ZM16.6669 22.4998H15.8335V21.6665H16.6669V22.4998ZM16.6669 21.6665H15.8335V20.8332H16.6669V21.6665ZM16.6669 23.3332H15.8335V22.4998H16.6669V23.3332ZM15.8335 22.4998H15.0002V21.6665H15.8335V22.4998ZM15.8335 23.3332H15.0002V22.4998H15.8335V23.3332ZM15.8335 24.1665H15.0002V23.3332H15.8335V24.1665ZM15.0002 24.1665H14.1669V23.3332H15.0002V24.1665ZM15.0002 23.3332H14.1669V22.4998H15.0002V23.3332ZM15.0002 24.9998H14.1669V24.1665H15.0002V24.9998ZM14.1669 24.9998H13.3335V24.1665H14.1669V24.9998ZM14.1669 24.1665H13.3335V23.3332H14.1669V24.1665ZM14.1669 25.8332L13.3335 25.8332V24.9998H14.1669V25.8332ZM13.3335 24.9998L12.5002 24.9998V24.1665H13.3335V24.9998ZM22.5002 20.8332H21.6668V19.9998H22.5002V20.8332ZM23.3335 20.8332H22.5002V19.9998H23.3335V20.8332ZM23.3335 21.6665H22.5002V20.8332H23.3335V21.6665ZM22.5002 21.6665H21.6668V20.8332H22.5002V21.6665ZM23.3335 22.4998H22.5002V21.6665H23.3335V22.4998ZM24.1668 22.4998H23.3335V21.6665H24.1668V22.4998ZM24.1668 21.6665H23.3335V20.8332H24.1668V21.6665ZM24.1668 23.3332H23.3335V22.4998H24.1668V23.3332ZM25.0002 23.3332H24.1668V22.4998H25.0002V23.3332ZM25.0002 22.4998H24.1668V21.6665H25.0002V22.4998ZM25.0002 24.1665H24.1668V23.3332H25.0002V24.1665ZM25.8335 24.1665H25.0002V23.3332H25.8335V24.1665ZM25.8335 23.3332H25.0002V22.4998H25.8335V23.3332ZM25.8335 24.9998H25.0002V24.1665H25.8335V24.9998ZM26.6668 24.9998H25.8335V24.1665H26.6668V24.9998ZM26.6668 24.1665H25.8335V23.3332H26.6668V24.1665ZM26.6668 25.8332H25.8335V24.9998H26.6668V25.8332ZM27.5002 24.9998H26.6668V24.1665H27.5002V24.9998ZM22.5002 16.6665H21.6668V15.8332H22.5002V16.6665ZM23.3335 16.6665H22.5002V15.8332H23.3335V16.6665ZM23.3335 15.8332H22.5002V14.9999H23.3335V15.8332ZM22.5002 15.8332H21.6668V14.9999H22.5002V15.8332ZM24.1668 15.8332H23.3335V14.9999H24.1668V15.8332ZM24.1668 14.9999H23.3335V14.1665H24.1668V14.9999ZM23.3335 14.9999H22.5002V14.1665H23.3335V14.9999ZM25.0002 14.9999H24.1668V14.1665H25.0002V14.9999ZM25.0002 14.1665H24.1668V13.3332H25.0002V14.1665ZM24.1668 14.1665H23.3335V13.3332H24.1668V14.1665ZM25.8335 14.1665H25.0002V13.3332H25.8335V14.1665ZM25.8335 13.3332H25.0002V12.4999H25.8335V13.3332ZM25.0002 13.3332H24.1668V12.4999H25.0002V13.3332ZM26.6668 13.3332H25.8335V12.4999H26.6668V13.3332ZM26.6668 12.4999H25.8335V11.6665H26.6668V12.4999ZM25.8335 12.4999H25.0002V11.6665H25.8335V12.4999ZM27.5002 12.4999H26.6668V11.6665H27.5002L27.5002 12.4999ZM26.6668 11.6665H25.8335V10.8332H26.6668L26.6668 11.6665ZM18.3335 15.8332H17.5002V14.9999H18.3335V15.8332ZM18.3335 16.6665H17.5002V15.8332H18.3335V16.6665ZM17.5002 16.6665H16.6669V15.8332H17.5002V16.6665ZM17.5002 15.8332H16.6669V14.9999H17.5002V15.8332ZM16.6669 15.8332H15.8335V14.9999H16.6669V15.8332ZM17.5002 14.9999H16.6669V14.1665H17.5002V14.9999ZM16.6669 14.9999H15.8335V14.1665H16.6669V14.9999ZM15.8335 14.9999H15.0002V14.1665H15.8335V14.9999ZM15.8335 14.1665H15.0002V13.3332H15.8335V14.1665ZM16.6669 14.1665H15.8335V13.3332H16.6669V14.1665ZM15.0002 14.1665H14.1669V13.3332H15.0002V14.1665ZM15.0002 13.3332H14.1669V12.4999H15.0002V13.3332ZM15.8335 13.3332H15.0002V12.4999H15.8335V13.3332ZM14.1669 13.3332H13.3335V12.4999H14.1669V13.3332ZM14.1669 12.4999H13.3335V11.6665H14.1669V12.4999ZM15.0002 12.4999H14.1669V11.6665H15.0002V12.4999ZM13.3335 12.4999H12.5002V11.6665H13.3335V12.4999ZM14.1669 11.6665H13.3335V10.8332H14.1669V11.6665Z" fill="white"/>
</svg>
