<svg width="169" height="38" viewBox="0 0 169 38" fill="none" xmlns="http://www.w3.org/2000/svg">
<path d="M157.703 35.8182V38H5.19919V35.8182H7.89837V33.6364V32.5455H6.54878V30.3636H3.84959V29.2727H2.5V8.54545H6.54878V6.36364H9.24797V5.27273H10.5976V4.18182H13.2967V2H167.15V3.09091H165.801V4.18182H163.102V7.45455H164.451V9.63636H167.15V10.7273H168.5V31.4545H164.451V33.6364H161.752V34.7273H160.402V35.8182H157.703Z" fill="#13BAEF"/>
<path d="M155.203 33.8182V36H2.69919V33.8182H5.39837V31.6364V30.5455H4.04878V28.3636H1.34959V27.2727H0V6.54545H4.04878V4.36364H6.74797V3.27273H8.09756V2.18182H10.7967V0H164.65V1.09091H163.301V2.18182H160.602V5.45455H161.951V7.63636H164.65V8.72727H166V29.4545H161.951V31.6364H159.252V32.7273H157.902V33.8182H155.203Z" fill="#FAED0E"/>
</svg>
