<svg width="82" height="32" viewBox="0 0 82 32" fill="none" xmlns="http://www.w3.org/2000/svg">
<g filter="url(#filter0_i_122_2)">
<path d="M59 24.8H10C10 24.8 10 24.7954 10 24.7864C9.83441 24.795 9.66773 24.8 9.5 24.8C4.25329 24.8 0 20.5468 0 15.3C0 10.0533 4.25329 5.80005 9.5 5.80005C9.66771 5.80005 9.83442 5.80416 10 5.81274V5.80005H59V24.8Z" fill="#EBC484"/>
</g>
<g filter="url(#filter1_di_122_2)">
<circle cx="67" cy="15.8" r="13" fill="url(#paint0_linear_122_2)"/>
<circle cx="67" cy="15.8" r="12.5" stroke="#EBC485"/>
</g>
<g style="mix-blend-mode:overlay" filter="url(#filter2_f_122_2)">
<circle cx="67" cy="15.8" r="7" fill="#AB5F1C"/>
</g>
<path d="M67.8536 14.802C68.1056 14.9607 68.3296 15.11 68.5256 15.25C68.7123 15.3807 68.8756 15.5394 69.0156 15.726C69.1556 15.9034 69.2723 16.0994 69.3656 16.314C69.4683 16.5194 69.543 16.7294 69.5896 16.944C69.6456 17.1587 69.6736 17.364 69.6736 17.56C69.6736 17.8587 69.6083 18.1434 69.4776 18.414C69.3563 18.6847 69.1463 18.9414 68.8476 19.184C68.8196 19.212 68.759 19.254 68.6656 19.31C68.5816 19.366 68.4883 19.4267 68.3856 19.492C68.2923 19.548 68.2036 19.5994 68.1196 19.646C68.0356 19.6927 67.9843 19.716 67.9656 19.716C67.9656 19.744 67.961 19.8047 67.9516 19.898C67.9516 20.0007 67.9516 20.1034 67.9516 20.206C67.9516 20.318 67.9516 20.4207 67.9516 20.514C67.9516 20.6167 67.9516 20.682 67.9516 20.71V20.766C67.9516 20.878 67.9096 20.9667 67.8256 21.032C67.751 21.1067 67.6156 21.144 67.4196 21.144C67.3263 21.144 67.2283 21.144 67.1256 21.144C67.0323 21.1534 66.9343 21.158 66.8316 21.158H66.4396C66.2716 21.158 66.1503 21.1254 66.0756 21.06C66.0103 21.004 65.9683 20.9247 65.9496 20.822C65.9403 20.7287 65.9403 20.6214 65.9496 20.5C65.9683 20.388 65.9683 20.276 65.9496 20.164C65.9403 20.052 65.9076 19.9494 65.8516 19.856C65.7956 19.7627 65.6883 19.6927 65.5296 19.646C65.1936 19.534 64.923 19.3987 64.7176 19.24C64.5216 19.0814 64.3723 18.8994 64.2696 18.694C64.1763 18.4794 64.1156 18.2414 64.0876 17.98C64.0596 17.7187 64.0456 17.434 64.0456 17.126C64.0456 16.986 64.0456 16.8694 64.0456 16.776C64.055 16.6827 64.0783 16.6127 64.1156 16.566C64.1623 16.51 64.2276 16.4727 64.3116 16.454C64.405 16.426 64.531 16.412 64.6896 16.412C64.7923 16.412 64.8856 16.4167 64.9696 16.426C65.063 16.4354 65.1516 16.4447 65.2356 16.454C65.3476 16.4634 65.4596 16.468 65.5716 16.468C65.693 16.4587 65.7956 16.4634 65.8796 16.482C65.973 16.5007 66.0476 16.5427 66.1036 16.608C66.169 16.6734 66.2016 16.776 66.2016 16.916C66.2016 16.9907 66.2016 17.0654 66.2016 17.14C66.211 17.2054 66.2156 17.2754 66.2156 17.35C66.2156 17.4994 66.253 17.6394 66.3276 17.77C66.4023 17.9007 66.561 17.966 66.8036 17.966C66.953 17.966 67.0976 17.9194 67.2376 17.826C67.3776 17.7327 67.4476 17.6114 67.4476 17.462C67.4476 17.1634 67.3543 16.888 67.1676 16.636C66.981 16.384 66.7523 16.1414 66.4816 15.908C66.2203 15.6747 65.945 15.4507 65.6556 15.236C65.3663 15.0214 65.119 14.802 64.9136 14.578C64.699 14.3354 64.517 14.046 64.3676 13.71C64.2276 13.374 64.1576 13.038 64.1576 12.702C64.1576 12.4687 64.195 12.2447 64.2696 12.03C64.3536 11.8154 64.4843 11.6194 64.6616 11.442C64.8203 11.2834 65.0163 11.1387 65.2496 11.008C65.483 10.8774 65.707 10.7794 65.9216 10.714C65.9683 10.6954 65.987 10.672 65.9776 10.644C65.9683 10.6067 65.9636 10.5647 65.9636 10.518C65.9636 10.4994 65.959 10.4387 65.9496 10.336C65.9403 10.2334 65.931 10.1214 65.9216 10C65.9216 9.87871 65.917 9.76671 65.9076 9.66405C65.8983 9.56138 65.8936 9.50072 65.8936 9.48205C65.8936 9.41672 65.917 9.37005 65.9636 9.34205C66.0196 9.30471 66.0896 9.28138 66.1736 9.27205C66.2576 9.25338 66.3463 9.24872 66.4396 9.25805C66.533 9.25805 66.6216 9.25805 66.7056 9.25805C66.687 9.25805 66.7336 9.25805 66.8456 9.25805C66.9576 9.25805 67.0883 9.26272 67.2376 9.27205C67.387 9.27205 67.527 9.28605 67.6576 9.31405C67.7976 9.34205 67.8816 9.38405 67.9096 9.44005V10.588C67.9096 10.7094 67.9703 10.7747 68.0916 10.784C68.269 10.8027 68.4323 10.854 68.5816 10.938C68.731 11.022 68.8663 11.12 68.9876 11.232C69.1183 11.344 69.2256 11.4654 69.3096 11.596C69.403 11.7174 69.4776 11.834 69.5336 11.946C69.6363 12.1607 69.6923 12.3707 69.7016 12.576C69.7203 12.772 69.7296 12.996 69.7296 13.248C69.7296 13.388 69.6876 13.486 69.6036 13.542C69.5196 13.5887 69.403 13.612 69.2536 13.612H69.0296C68.8896 13.612 68.759 13.6167 68.6376 13.626C68.5163 13.6354 68.3856 13.64 68.2456 13.64C67.947 13.64 67.7556 13.584 67.6716 13.472C67.597 13.3507 67.5503 13.22 67.5316 13.08C67.513 12.9307 67.4803 12.8 67.4336 12.688C67.3963 12.5667 67.2656 12.506 67.0416 12.506C66.8923 12.506 66.743 12.5714 66.5936 12.702C66.4536 12.8234 66.3836 12.968 66.3836 13.136C66.3836 13.3414 66.4583 13.542 66.6076 13.738C66.757 13.9247 66.939 14.1114 67.1536 14.298C67.3776 14.4754 67.611 14.6434 67.8536 14.802Z" fill="#90392E"/>
<defs>
<filter id="filter0_i_122_2" x="0" y="4.80005" width="60" height="20" filterUnits="userSpaceOnUse" color-interpolation-filters="sRGB">
<feFlood flood-opacity="0" result="BackgroundImageFix"/>
<feBlend mode="normal" in="SourceGraphic" in2="BackgroundImageFix" result="shape"/>
<feColorMatrix in="SourceAlpha" type="matrix" values="0 0 0 0 0 0 0 0 0 0 0 0 0 0 0 0 0 0 127 0" result="hardAlpha"/>
<feOffset dx="1" dy="-1"/>
<feGaussianBlur stdDeviation="1.75"/>
<feComposite in2="hardAlpha" operator="arithmetic" k2="-1" k3="1"/>
<feColorMatrix type="matrix" values="0 0 0 0 0.564706 0 0 0 0 0.223529 0 0 0 0 0.180392 0 0 0 0.84 0"/>
<feBlend mode="normal" in2="shape" result="effect1_innerShadow_122_2"/>
</filter>
<filter id="filter1_di_122_2" x="50.2" y="4.88758e-05" width="31.6" height="31.6" filterUnits="userSpaceOnUse" color-interpolation-filters="sRGB">
<feFlood flood-opacity="0" result="BackgroundImageFix"/>
<feColorMatrix in="SourceAlpha" type="matrix" values="0 0 0 0 0 0 0 0 0 0 0 0 0 0 0 0 0 0 127 0" result="hardAlpha"/>
<feOffset dx="-1"/>
<feGaussianBlur stdDeviation="1.4"/>
<feComposite in2="hardAlpha" operator="out"/>
<feColorMatrix type="matrix" values="0 0 0 0 0.485053 0 0 0 0 0.192 0 0 0 0 0.154947 0 0 0 0.52 0"/>
<feBlend mode="normal" in2="BackgroundImageFix" result="effect1_dropShadow_122_2"/>
<feBlend mode="normal" in="SourceGraphic" in2="effect1_dropShadow_122_2" result="shape"/>
<feColorMatrix in="SourceAlpha" type="matrix" values="0 0 0 0 0 0 0 0 0 0 0 0 0 0 0 0 0 0 127 0" result="hardAlpha"/>
<feOffset/>
<feGaussianBlur stdDeviation="2"/>
<feComposite in2="hardAlpha" operator="arithmetic" k2="-1" k3="1"/>
<feColorMatrix type="matrix" values="0 0 0 0 0.562731 0 0 0 0 0.148807 0 0 0 0 0.217795 0 0 0 1 0"/>
<feBlend mode="normal" in2="shape" result="effect2_innerShadow_122_2"/>
</filter>
<filter id="filter2_f_122_2" x="54" y="2.80005" width="26" height="26" filterUnits="userSpaceOnUse" color-interpolation-filters="sRGB">
<feFlood flood-opacity="0" result="BackgroundImageFix"/>
<feBlend mode="normal" in="SourceGraphic" in2="BackgroundImageFix" result="shape"/>
<feGaussianBlur stdDeviation="3" result="effect1_foregroundBlur_122_2"/>
</filter>
<linearGradient id="paint0_linear_122_2" x1="80" y1="28.8" x2="61" y2="4.80005" gradientUnits="userSpaceOnUse">
<stop stop-color="#F5AA89"/>
<stop offset="1" stop-color="#FAD9C4"/>
</linearGradient>
</defs>
</svg>
